%TF.GenerationSoftware,KiCad,Pcbnew,(6.0.4-0)*%
%TF.CreationDate,2023-05-07T08:38:50+01:00*%
%TF.ProjectId,BeebLED,42656562-4c45-4442-9e6b-696361645f70,rev?*%
%TF.SameCoordinates,Original*%
%TF.FileFunction,Copper,L1,Top*%
%TF.FilePolarity,Positive*%
%FSLAX46Y46*%
G04 Gerber Fmt 4.6, Leading zero omitted, Abs format (unit mm)*
G04 Created by KiCad (PCBNEW (6.0.4-0)) date 2023-05-07 08:38:50*
%MOMM*%
%LPD*%
G01*
G04 APERTURE LIST*
G04 Aperture macros list*
%AMRoundRect*
0 Rectangle with rounded corners*
0 $1 Rounding radius*
0 $2 $3 $4 $5 $6 $7 $8 $9 X,Y pos of 4 corners*
0 Add a 4 corners polygon primitive as box body*
4,1,4,$2,$3,$4,$5,$6,$7,$8,$9,$2,$3,0*
0 Add four circle primitives for the rounded corners*
1,1,$1+$1,$2,$3*
1,1,$1+$1,$4,$5*
1,1,$1+$1,$6,$7*
1,1,$1+$1,$8,$9*
0 Add four rect primitives between the rounded corners*
20,1,$1+$1,$2,$3,$4,$5,0*
20,1,$1+$1,$4,$5,$6,$7,0*
20,1,$1+$1,$6,$7,$8,$9,0*
20,1,$1+$1,$8,$9,$2,$3,0*%
G04 Aperture macros list end*
%TA.AperFunction,ComponentPad*%
%ADD10C,1.600000*%
%TD*%
%TA.AperFunction,ComponentPad*%
%ADD11O,1.600000X1.600000*%
%TD*%
%TA.AperFunction,ComponentPad*%
%ADD12R,1.600000X1.600000*%
%TD*%
%TA.AperFunction,ComponentPad*%
%ADD13C,3.500000*%
%TD*%
%TA.AperFunction,ComponentPad*%
%ADD14R,4.000000X4.000000*%
%TD*%
%TA.AperFunction,ComponentPad*%
%ADD15C,3.300000*%
%TD*%
%TA.AperFunction,ComponentPad*%
%ADD16R,1.800000X1.800000*%
%TD*%
%TA.AperFunction,ComponentPad*%
%ADD17O,1.800000X1.800000*%
%TD*%
%TA.AperFunction,ComponentPad*%
%ADD18RoundRect,0.250000X0.625000X-0.350000X0.625000X0.350000X-0.625000X0.350000X-0.625000X-0.350000X0*%
%TD*%
%TA.AperFunction,ComponentPad*%
%ADD19O,1.750000X1.200000*%
%TD*%
%TA.AperFunction,ComponentPad*%
%ADD20RoundRect,0.250000X0.600000X0.600000X-0.600000X0.600000X-0.600000X-0.600000X0.600000X-0.600000X0*%
%TD*%
%TA.AperFunction,ComponentPad*%
%ADD21C,1.700000*%
%TD*%
%TA.AperFunction,Conductor*%
%ADD22C,0.250000*%
%TD*%
G04 APERTURE END LIST*
D10*
%TO.P,C1,1*%
%TO.N,Net-(C1-Pad1)*%
X112776000Y-56622000D03*
%TO.P,C1,2*%
%TO.N,Net-(C1-Pad2)*%
X112776000Y-54122000D03*
%TD*%
%TO.P,R3,1*%
%TO.N,Net-(R3-Pad1)*%
X112776000Y-92456000D03*
D11*
%TO.P,R3,2*%
%TO.N,Net-(J3-Pad2)*%
X122936000Y-92456000D03*
%TD*%
D12*
%TO.P,U2,1,~{PL}*%
%TO.N,Net-(U1-Pad10)*%
X99324000Y-72380000D03*
D11*
%TO.P,U2,2,CP*%
%TO.N,Net-(U2-Pad2)*%
X99324000Y-74920000D03*
%TO.P,U2,3,D4*%
%TO.N,GND*%
X99324000Y-77460000D03*
%TO.P,U2,4,D5*%
%TO.N,Net-(U1-Pad8)*%
X99324000Y-80000000D03*
%TO.P,U2,5,D6*%
X99324000Y-82540000D03*
%TO.P,U2,6,D7*%
%TO.N,+5V*%
X99324000Y-85080000D03*
%TO.P,U2,7,~{Q7}*%
%TO.N,unconnected-(U2-Pad7)*%
X99324000Y-87620000D03*
%TO.P,U2,8,GND*%
%TO.N,GND*%
X99324000Y-90160000D03*
%TO.P,U2,9,Q7*%
%TO.N,Net-(R3-Pad1)*%
X106944000Y-90160000D03*
%TO.P,U2,10,DS*%
%TO.N,GND*%
X106944000Y-87620000D03*
%TO.P,U2,11,D0*%
X106944000Y-85080000D03*
%TO.P,U2,12,D1*%
X106944000Y-82540000D03*
%TO.P,U2,13,D2*%
X106944000Y-80000000D03*
%TO.P,U2,14,D3*%
X106944000Y-77460000D03*
%TO.P,U2,15,~{CE}*%
%TO.N,Net-(C2-Pad1)*%
X106944000Y-74920000D03*
%TO.P,U2,16,VCC*%
%TO.N,+5V*%
X106944000Y-72380000D03*
%TD*%
D13*
%TO.P,J2,*%
%TO.N,*%
X130524000Y-49204000D03*
X130524000Y-40204000D03*
D14*
%TO.P,J2,1*%
%TO.N,+5V*%
X123524000Y-44704000D03*
D15*
%TO.P,J2,2*%
%TO.N,GND*%
X129524000Y-44704000D03*
%TD*%
D12*
%TO.P,X1,1,EN*%
%TO.N,unconnected-(X1-Pad1)*%
X131572000Y-67818000D03*
D10*
%TO.P,X1,7,GND*%
%TO.N,GND*%
X116332000Y-67818000D03*
%TO.P,X1,8,OUT*%
%TO.N,Net-(U2-Pad2)*%
X116332000Y-75438000D03*
%TO.P,X1,14,Vcc*%
%TO.N,+5V*%
X131572000Y-75438000D03*
%TD*%
D16*
%TO.P,D1,1,A*%
%TO.N,Net-(C2-Pad1)*%
X119126000Y-41656000D03*
D17*
%TO.P,D1,2,K*%
%TO.N,Net-(D1-Pad2)*%
X111506000Y-41656000D03*
%TD*%
D12*
%TO.P,C3,1*%
%TO.N,+5V*%
X125665113Y-83312000D03*
D10*
%TO.P,C3,2*%
%TO.N,GND*%
X123165113Y-83312000D03*
%TD*%
D18*
%TO.P,J3,1,Pin_1*%
%TO.N,GND*%
X129630000Y-94456000D03*
D19*
%TO.P,J3,2,Pin_2*%
%TO.N,Net-(J3-Pad2)*%
X129630000Y-92456000D03*
%TO.P,J3,3,Pin_3*%
%TO.N,+5V*%
X129630000Y-90456000D03*
%TD*%
D20*
%TO.P,J1,1,Pin_1*%
%TO.N,unconnected-(J1-Pad1)*%
X94597500Y-81534000D03*
D21*
%TO.P,J1,2,Pin_2*%
%TO.N,Net-(D1-Pad2)*%
X92057500Y-81534000D03*
%TO.P,J1,3,Pin_3*%
%TO.N,unconnected-(J1-Pad3)*%
X94597500Y-78994000D03*
%TO.P,J1,4,Pin_4*%
%TO.N,Net-(J1-Pad4)*%
X92057500Y-78994000D03*
%TO.P,J1,5,Pin_5*%
%TO.N,unconnected-(J1-Pad5)*%
X94597500Y-76454000D03*
%TO.P,J1,6,Pin_6*%
%TO.N,unconnected-(J1-Pad6)*%
X92057500Y-76454000D03*
%TO.P,J1,7,Pin_7*%
%TO.N,unconnected-(J1-Pad7)*%
X94597500Y-73914000D03*
%TO.P,J1,8,Pin_8*%
%TO.N,unconnected-(J1-Pad8)*%
X92057500Y-73914000D03*
%TO.P,J1,9,Pin_9*%
%TO.N,unconnected-(J1-Pad9)*%
X94597500Y-71374000D03*
%TO.P,J1,10,Pin_10*%
%TO.N,unconnected-(J1-Pad10)*%
X92057500Y-71374000D03*
%TO.P,J1,11,Pin_11*%
%TO.N,GND*%
X94597500Y-68834000D03*
%TO.P,J1,12,Pin_12*%
%TO.N,unconnected-(J1-Pad12)*%
X92057500Y-68834000D03*
%TO.P,J1,13,Pin_13*%
%TO.N,unconnected-(J1-Pad13)*%
X94597500Y-66294000D03*
%TO.P,J1,14,Pin_14*%
%TO.N,unconnected-(J1-Pad14)*%
X92057500Y-66294000D03*
%TO.P,J1,15,Pin_15*%
%TO.N,unconnected-(J1-Pad15)*%
X94597500Y-63754000D03*
%TO.P,J1,16,Pin_16*%
%TO.N,unconnected-(J1-Pad16)*%
X92057500Y-63754000D03*
%TO.P,J1,17,Pin_17*%
%TO.N,unconnected-(J1-Pad17)*%
X94597500Y-61214000D03*
%TO.P,J1,18,Pin_18*%
%TO.N,unconnected-(J1-Pad18)*%
X92057500Y-61214000D03*
%TO.P,J1,19,Pin_19*%
%TO.N,unconnected-(J1-Pad19)*%
X94597500Y-58674000D03*
%TO.P,J1,20,Pin_20*%
%TO.N,unconnected-(J1-Pad20)*%
X92057500Y-58674000D03*
%TD*%
D12*
%TO.P,X2,1,EN*%
%TO.N,unconnected-(X2-Pad1)*%
X127762000Y-67818000D03*
D10*
%TO.P,X2,4,GND*%
%TO.N,GND*%
X120142000Y-67818000D03*
%TO.P,X2,5,OUT*%
%TO.N,Net-(U2-Pad2)*%
X120142000Y-75438000D03*
%TO.P,X2,8,Vcc*%
%TO.N,+5V*%
X127762000Y-75438000D03*
%TD*%
D12*
%TO.P,U1,1*%
%TO.N,Net-(D1-Pad2)*%
X99324000Y-49012000D03*
D11*
%TO.P,U1,2*%
%TO.N,Net-(U1-Pad13)*%
X99324000Y-51552000D03*
%TO.P,U1,3*%
%TO.N,GND*%
X99324000Y-54092000D03*
%TO.P,U1,4*%
%TO.N,unconnected-(U1-Pad4)*%
X99324000Y-56632000D03*
%TO.P,U1,5*%
%TO.N,Net-(J1-Pad4)*%
X99324000Y-59172000D03*
%TO.P,U1,6*%
%TO.N,Net-(U1-Pad6)*%
X99324000Y-61712000D03*
%TO.P,U1,7,GND*%
%TO.N,GND*%
X99324000Y-64252000D03*
%TO.P,U1,8*%
%TO.N,Net-(U1-Pad8)*%
X106944000Y-64252000D03*
%TO.P,U1,9*%
%TO.N,Net-(U1-Pad6)*%
X106944000Y-61712000D03*
%TO.P,U1,10*%
%TO.N,Net-(U1-Pad10)*%
X106944000Y-59172000D03*
%TO.P,U1,11*%
%TO.N,Net-(C1-Pad1)*%
X106944000Y-56632000D03*
%TO.P,U1,12*%
%TO.N,Net-(C1-Pad2)*%
X106944000Y-54092000D03*
%TO.P,U1,13*%
%TO.N,Net-(U1-Pad13)*%
X106944000Y-51552000D03*
%TO.P,U1,14,VCC*%
%TO.N,+5V*%
X106944000Y-49012000D03*
%TD*%
D10*
%TO.P,R1,1*%
%TO.N,Net-(C1-Pad1)*%
X112776000Y-60452000D03*
D11*
%TO.P,R1,2*%
%TO.N,GND*%
X122936000Y-60452000D03*
%TD*%
D10*
%TO.P,C2,1*%
%TO.N,Net-(C2-Pad1)*%
X115590000Y-48768000D03*
%TO.P,C2,2*%
%TO.N,GND*%
X118090000Y-48768000D03*
%TD*%
%TO.P,R2,1*%
%TO.N,Net-(D1-Pad2)*%
X98044000Y-41656000D03*
D11*
%TO.P,R2,2*%
%TO.N,Net-(C2-Pad1)*%
X108204000Y-41656000D03*
%TD*%
D22*
%TO.N,Net-(C2-Pad1)*%
X108204000Y-41656000D02*
X108204000Y-44704000D01*
X119126000Y-45232000D02*
X115590000Y-48768000D01*
X108204000Y-44704000D02*
X112268000Y-48768000D01*
X119126000Y-41656000D02*
X119126000Y-45232000D01*
X112268000Y-48768000D02*
X115590000Y-48768000D01*
%TO.N,+5V*%
X133064000Y-90456000D02*
X129032000Y-90456000D01*
X133604000Y-83820000D02*
X133604000Y-89916000D01*
X123524000Y-51896000D02*
X123524000Y-44704000D01*
X123524000Y-54944000D02*
X123524000Y-51896000D01*
X125984000Y-75692000D02*
X124968000Y-74676000D01*
X123096000Y-52324000D02*
X123524000Y-51896000D01*
X133096000Y-83312000D02*
X133604000Y-83820000D01*
X126238000Y-75438000D02*
X131572000Y-75438000D01*
X106944000Y-72380000D02*
X124968000Y-72380000D01*
X124968000Y-74676000D02*
X124968000Y-63500000D01*
X125984000Y-75692000D02*
X125984000Y-82993113D01*
X104140000Y-72644000D02*
X104140000Y-80264000D01*
X125665113Y-83312000D02*
X133096000Y-83312000D01*
X112776000Y-52324000D02*
X123096000Y-52324000D01*
X133604000Y-89916000D02*
X133064000Y-90456000D01*
X106944000Y-72380000D02*
X104404000Y-72380000D01*
X126492000Y-57912000D02*
X123524000Y-54944000D01*
X125984000Y-82993113D02*
X125665113Y-83312000D01*
X112776000Y-52324000D02*
X109464000Y-49012000D01*
X126492000Y-61976000D02*
X126492000Y-57912000D01*
X124968000Y-63500000D02*
X126492000Y-61976000D01*
X125984000Y-75692000D02*
X126238000Y-75438000D01*
X109464000Y-49012000D02*
X106944000Y-49012000D01*
X104140000Y-80264000D02*
X99324000Y-85080000D01*
X104404000Y-72380000D02*
X104140000Y-72644000D01*
%TO.N,Net-(D1-Pad2)*%
X99324000Y-49012000D02*
X88656000Y-49012000D01*
X88646000Y-81534000D02*
X92057500Y-81534000D01*
X98552000Y-38100000D02*
X110744000Y-38100000D01*
X99324000Y-49012000D02*
X99324000Y-42936000D01*
X98044000Y-38608000D02*
X98552000Y-38100000D01*
X88656000Y-49012000D02*
X87376000Y-50292000D01*
X99324000Y-42936000D02*
X98044000Y-41656000D01*
X98044000Y-41656000D02*
X98044000Y-38608000D01*
X87376000Y-80264000D02*
X88646000Y-81534000D01*
X111506000Y-38862000D02*
X111506000Y-41656000D01*
X87376000Y-50292000D02*
X87376000Y-80264000D01*
X110744000Y-38100000D02*
X111506000Y-38862000D01*
%TO.N,Net-(J1-Pad4)*%
X89408000Y-56388000D02*
X89408000Y-79248000D01*
X89408000Y-79248000D02*
X91440000Y-79248000D01*
X99324000Y-59172000D02*
X96032000Y-55880000D01*
X89916000Y-55880000D02*
X89408000Y-56388000D01*
X96012000Y-55880000D02*
X89916000Y-55880000D01*
%TO.N,Net-(J3-Pad2)*%
X122936000Y-92456000D02*
X129630000Y-92456000D01*
%TO.N,Net-(R3-Pad1)*%
X110480000Y-90160000D02*
X112776000Y-92456000D01*
X106944000Y-90160000D02*
X110480000Y-90160000D01*
%TO.N,Net-(U1-Pad13)*%
X99324000Y-51552000D02*
X106944000Y-51552000D01*
%TO.N,Net-(U1-Pad6)*%
X99324000Y-61712000D02*
X106944000Y-61712000D01*
%TO.N,Net-(U1-Pad8)*%
X102372000Y-80000000D02*
X99324000Y-80000000D01*
X103124000Y-68072000D02*
X103124000Y-79248000D01*
X99324000Y-80000000D02*
X99324000Y-82540000D01*
X103124000Y-79248000D02*
X102372000Y-80000000D01*
X106944000Y-64252000D02*
X103124000Y-68072000D01*
%TO.N,Net-(C1-Pad1)*%
X112776000Y-56622000D02*
X112776000Y-60452000D01*
X112776000Y-56622000D02*
X106954000Y-56622000D01*
X106954000Y-56622000D02*
X106944000Y-56632000D01*
%TO.N,Net-(C1-Pad2)*%
X112746000Y-54092000D02*
X112776000Y-54122000D01*
X106944000Y-54092000D02*
X112746000Y-54092000D01*
%TD*%
%TA.AperFunction,Conductor*%
%TO.N,GND*%
G36*
X135883906Y-36596502D02*
G01*
X135930399Y-36650158D01*
X135941784Y-36702104D01*
X136086554Y-82799865D01*
X136126640Y-95564000D01*
X136143499Y-100932393D01*
X136143500Y-100932789D01*
X136143500Y-100965500D01*
X136123498Y-101033621D01*
X136069842Y-101080114D01*
X136017500Y-101091500D01*
X81914000Y-101091500D01*
X81845879Y-101071498D01*
X81799386Y-101017842D01*
X81788000Y-100965500D01*
X81788000Y-94853095D01*
X128247001Y-94853095D01*
X128247338Y-94859614D01*
X128257257Y-94955206D01*
X128260149Y-94968600D01*
X128311588Y-95122784D01*
X128317761Y-95135962D01*
X128403063Y-95273807D01*
X128412099Y-95285208D01*
X128526829Y-95399739D01*
X128538240Y-95408751D01*
X128676243Y-95493816D01*
X128689424Y-95499963D01*
X128843710Y-95551138D01*
X128857086Y-95554005D01*
X128951438Y-95563672D01*
X128957854Y-95564000D01*
X129357885Y-95564000D01*
X129373124Y-95559525D01*
X129374329Y-95558135D01*
X129376000Y-95550452D01*
X129376000Y-95545884D01*
X129884000Y-95545884D01*
X129888475Y-95561123D01*
X129889865Y-95562328D01*
X129897548Y-95563999D01*
X130302095Y-95563999D01*
X130308614Y-95563662D01*
X130404206Y-95553743D01*
X130417600Y-95550851D01*
X130571784Y-95499412D01*
X130584962Y-95493239D01*
X130722807Y-95407937D01*
X130734208Y-95398901D01*
X130848739Y-95284171D01*
X130857751Y-95272760D01*
X130942816Y-95134757D01*
X130948963Y-95121576D01*
X131000138Y-94967290D01*
X131003005Y-94953914D01*
X131012672Y-94859562D01*
X131013000Y-94853146D01*
X131013000Y-94728115D01*
X131008525Y-94712876D01*
X131007135Y-94711671D01*
X130999452Y-94710000D01*
X129902115Y-94710000D01*
X129886876Y-94714475D01*
X129885671Y-94715865D01*
X129884000Y-94723548D01*
X129884000Y-95545884D01*
X129376000Y-95545884D01*
X129376000Y-94728115D01*
X129371525Y-94712876D01*
X129370135Y-94711671D01*
X129362452Y-94710000D01*
X128265116Y-94710000D01*
X128249877Y-94714475D01*
X128248672Y-94715865D01*
X128247001Y-94723548D01*
X128247001Y-94853095D01*
X81788000Y-94853095D01*
X81788000Y-90426522D01*
X98041273Y-90426522D01*
X98088764Y-90603761D01*
X98092510Y-90614053D01*
X98184586Y-90811511D01*
X98190069Y-90821007D01*
X98315028Y-90999467D01*
X98322084Y-91007875D01*
X98476125Y-91161916D01*
X98484533Y-91168972D01*
X98662993Y-91293931D01*
X98672489Y-91299414D01*
X98869947Y-91391490D01*
X98880239Y-91395236D01*
X99052503Y-91441394D01*
X99066599Y-91441058D01*
X99070000Y-91433116D01*
X99070000Y-91427967D01*
X99578000Y-91427967D01*
X99581973Y-91441498D01*
X99590522Y-91442727D01*
X99767761Y-91395236D01*
X99778053Y-91391490D01*
X99975511Y-91299414D01*
X99985007Y-91293931D01*
X100163467Y-91168972D01*
X100171875Y-91161916D01*
X100325916Y-91007875D01*
X100332972Y-90999467D01*
X100457931Y-90821007D01*
X100463414Y-90811511D01*
X100555490Y-90614053D01*
X100559236Y-90603761D01*
X100605394Y-90431497D01*
X100605058Y-90417401D01*
X100597116Y-90414000D01*
X99596115Y-90414000D01*
X99580876Y-90418475D01*
X99579671Y-90419865D01*
X99578000Y-90427548D01*
X99578000Y-91427967D01*
X99070000Y-91427967D01*
X99070000Y-90432115D01*
X99065525Y-90416876D01*
X99064135Y-90415671D01*
X99056452Y-90414000D01*
X98056033Y-90414000D01*
X98042502Y-90417973D01*
X98041273Y-90426522D01*
X81788000Y-90426522D01*
X81788000Y-90160000D01*
X105630502Y-90160000D01*
X105650457Y-90388087D01*
X105651881Y-90393400D01*
X105651881Y-90393402D01*
X105661031Y-90427548D01*
X105709716Y-90609243D01*
X105712039Y-90614224D01*
X105712039Y-90614225D01*
X105804151Y-90811762D01*
X105804154Y-90811767D01*
X105806477Y-90816749D01*
X105855944Y-90887395D01*
X105927484Y-90989564D01*
X105937802Y-91004300D01*
X106099700Y-91166198D01*
X106104208Y-91169355D01*
X106104211Y-91169357D01*
X106145529Y-91198288D01*
X106287251Y-91297523D01*
X106292233Y-91299846D01*
X106292238Y-91299849D01*
X106488765Y-91391490D01*
X106494757Y-91394284D01*
X106500065Y-91395706D01*
X106500067Y-91395707D01*
X106710598Y-91452119D01*
X106710600Y-91452119D01*
X106715913Y-91453543D01*
X106944000Y-91473498D01*
X107172087Y-91453543D01*
X107177400Y-91452119D01*
X107177402Y-91452119D01*
X107387933Y-91395707D01*
X107387935Y-91395706D01*
X107393243Y-91394284D01*
X107399235Y-91391490D01*
X107595762Y-91299849D01*
X107595767Y-91299846D01*
X107600749Y-91297523D01*
X107742471Y-91198288D01*
X107783789Y-91169357D01*
X107783792Y-91169355D01*
X107788300Y-91166198D01*
X107950198Y-91004300D01*
X107953582Y-90999467D01*
X108060181Y-90847229D01*
X108115638Y-90802901D01*
X108163394Y-90793500D01*
X110165406Y-90793500D01*
X110233527Y-90813502D01*
X110254501Y-90830405D01*
X111466848Y-92042752D01*
X111500874Y-92105064D01*
X111499459Y-92164459D01*
X111483882Y-92222591D01*
X111483881Y-92222598D01*
X111482457Y-92227913D01*
X111462502Y-92456000D01*
X111482457Y-92684087D01*
X111541716Y-92905243D01*
X111544039Y-92910224D01*
X111544039Y-92910225D01*
X111636151Y-93107762D01*
X111636154Y-93107767D01*
X111638477Y-93112749D01*
X111684671Y-93178720D01*
X111752202Y-93275164D01*
X111769802Y-93300300D01*
X111931700Y-93462198D01*
X111936208Y-93465355D01*
X111936211Y-93465357D01*
X111947592Y-93473326D01*
X112119251Y-93593523D01*
X112124233Y-93595846D01*
X112124238Y-93595849D01*
X112321775Y-93687961D01*
X112326757Y-93690284D01*
X112332065Y-93691706D01*
X112332067Y-93691707D01*
X112542598Y-93748119D01*
X112542600Y-93748119D01*
X112547913Y-93749543D01*
X112776000Y-93769498D01*
X113004087Y-93749543D01*
X113009400Y-93748119D01*
X113009402Y-93748119D01*
X113219933Y-93691707D01*
X113219935Y-93691706D01*
X113225243Y-93690284D01*
X113230225Y-93687961D01*
X113427762Y-93595849D01*
X113427767Y-93595846D01*
X113432749Y-93593523D01*
X113604408Y-93473326D01*
X113615789Y-93465357D01*
X113615792Y-93465355D01*
X113620300Y-93462198D01*
X113782198Y-93300300D01*
X113799799Y-93275164D01*
X113867329Y-93178720D01*
X113913523Y-93112749D01*
X113915846Y-93107767D01*
X113915849Y-93107762D01*
X114007961Y-92910225D01*
X114007961Y-92910224D01*
X114010284Y-92905243D01*
X114069543Y-92684087D01*
X114089498Y-92456000D01*
X114069543Y-92227913D01*
X114068117Y-92222591D01*
X114011707Y-92012067D01*
X114011706Y-92012065D01*
X114010284Y-92006757D01*
X113963472Y-91906368D01*
X113915849Y-91804238D01*
X113915846Y-91804233D01*
X113913523Y-91799251D01*
X113782198Y-91611700D01*
X113620300Y-91449802D01*
X113615792Y-91446645D01*
X113615789Y-91446643D01*
X113486790Y-91356317D01*
X113432749Y-91318477D01*
X113427767Y-91316154D01*
X113427762Y-91316151D01*
X113230225Y-91224039D01*
X113230224Y-91224039D01*
X113225243Y-91221716D01*
X113219935Y-91220294D01*
X113219933Y-91220293D01*
X113009402Y-91163881D01*
X113009400Y-91163881D01*
X113004087Y-91162457D01*
X112776000Y-91142502D01*
X112547913Y-91162457D01*
X112484458Y-91179460D01*
X112413482Y-91177770D01*
X112362753Y-91146848D01*
X110983652Y-89767747D01*
X110976112Y-89759461D01*
X110972000Y-89752982D01*
X110922348Y-89706356D01*
X110919507Y-89703602D01*
X110899770Y-89683865D01*
X110896573Y-89681385D01*
X110887551Y-89673680D01*
X110855321Y-89643414D01*
X110848375Y-89639595D01*
X110848372Y-89639593D01*
X110837566Y-89633652D01*
X110821047Y-89622801D01*
X110820583Y-89622441D01*
X110805041Y-89610386D01*
X110797772Y-89607241D01*
X110797768Y-89607238D01*
X110764463Y-89592826D01*
X110753813Y-89587609D01*
X110715060Y-89566305D01*
X110695437Y-89561267D01*
X110676734Y-89554863D01*
X110665420Y-89549967D01*
X110665419Y-89549967D01*
X110658145Y-89546819D01*
X110650322Y-89545580D01*
X110650312Y-89545577D01*
X110614476Y-89539901D01*
X110602856Y-89537495D01*
X110567711Y-89528472D01*
X110567710Y-89528472D01*
X110560030Y-89526500D01*
X110539776Y-89526500D01*
X110520065Y-89524949D01*
X110507886Y-89523020D01*
X110500057Y-89521780D01*
X110492165Y-89522526D01*
X110456039Y-89525941D01*
X110444181Y-89526500D01*
X108163394Y-89526500D01*
X108095273Y-89506498D01*
X108060181Y-89472771D01*
X107953357Y-89320211D01*
X107953355Y-89320208D01*
X107950198Y-89315700D01*
X107788300Y-89153802D01*
X107783792Y-89150645D01*
X107783789Y-89150643D01*
X107705611Y-89095902D01*
X107600749Y-89022477D01*
X107595767Y-89020154D01*
X107595762Y-89020151D01*
X107560951Y-89003919D01*
X107507666Y-88957002D01*
X107488205Y-88888725D01*
X107508747Y-88820765D01*
X107560951Y-88775529D01*
X107595511Y-88759414D01*
X107605007Y-88753931D01*
X107783467Y-88628972D01*
X107791875Y-88621916D01*
X107945916Y-88467875D01*
X107952972Y-88459467D01*
X108077931Y-88281007D01*
X108083414Y-88271511D01*
X108175490Y-88074053D01*
X108179236Y-88063761D01*
X108225394Y-87891497D01*
X108225058Y-87877401D01*
X108217116Y-87874000D01*
X105676033Y-87874000D01*
X105662502Y-87877973D01*
X105661273Y-87886522D01*
X105708764Y-88063761D01*
X105712510Y-88074053D01*
X105804586Y-88271511D01*
X105810069Y-88281007D01*
X105935028Y-88459467D01*
X105942084Y-88467875D01*
X106096125Y-88621916D01*
X106104533Y-88628972D01*
X106282993Y-88753931D01*
X106292489Y-88759414D01*
X106327049Y-88775529D01*
X106380334Y-88822446D01*
X106399795Y-88890723D01*
X106379253Y-88958683D01*
X106327049Y-89003919D01*
X106292238Y-89020151D01*
X106292233Y-89020154D01*
X106287251Y-89022477D01*
X106182389Y-89095902D01*
X106104211Y-89150643D01*
X106104208Y-89150645D01*
X106099700Y-89153802D01*
X105937802Y-89315700D01*
X105934645Y-89320208D01*
X105934643Y-89320211D01*
X105903816Y-89364237D01*
X105806477Y-89503251D01*
X105804154Y-89508233D01*
X105804151Y-89508238D01*
X105723409Y-89681392D01*
X105709716Y-89710757D01*
X105708294Y-89716065D01*
X105708293Y-89716067D01*
X105662726Y-89886125D01*
X105650457Y-89931913D01*
X105630502Y-90160000D01*
X81788000Y-90160000D01*
X81788000Y-50271943D01*
X86737780Y-50271943D01*
X86741732Y-50313745D01*
X86741941Y-50315961D01*
X86742500Y-50327819D01*
X86742500Y-80185233D01*
X86741973Y-80196416D01*
X86740298Y-80203909D01*
X86740547Y-80211835D01*
X86740547Y-80211836D01*
X86742438Y-80271986D01*
X86742500Y-80275945D01*
X86742500Y-80303856D01*
X86742997Y-80307790D01*
X86742997Y-80307791D01*
X86743005Y-80307856D01*
X86743938Y-80319693D01*
X86745327Y-80363889D01*
X86748787Y-80375797D01*
X86750978Y-80383339D01*
X86754987Y-80402700D01*
X86757526Y-80422797D01*
X86760445Y-80430168D01*
X86760445Y-80430170D01*
X86773804Y-80463912D01*
X86777649Y-80475142D01*
X86787771Y-80509983D01*
X86789982Y-80517593D01*
X86794015Y-80524412D01*
X86794017Y-80524417D01*
X86800293Y-80535028D01*
X86808988Y-80552776D01*
X86816448Y-80571617D01*
X86821110Y-80578033D01*
X86821110Y-80578034D01*
X86842436Y-80607387D01*
X86848952Y-80617307D01*
X86859684Y-80635453D01*
X86871458Y-80655362D01*
X86885779Y-80669683D01*
X86898619Y-80684716D01*
X86910528Y-80701107D01*
X86944605Y-80729298D01*
X86953384Y-80737288D01*
X88142343Y-81926247D01*
X88149887Y-81934537D01*
X88154000Y-81941018D01*
X88159777Y-81946443D01*
X88203667Y-81987658D01*
X88206509Y-81990413D01*
X88226230Y-82010134D01*
X88229425Y-82012612D01*
X88238447Y-82020318D01*
X88270679Y-82050586D01*
X88277628Y-82054406D01*
X88288432Y-82060346D01*
X88304956Y-82071199D01*
X88320959Y-82083613D01*
X88361543Y-82101176D01*
X88372173Y-82106383D01*
X88410940Y-82127695D01*
X88418617Y-82129666D01*
X88418622Y-82129668D01*
X88430558Y-82132732D01*
X88449266Y-82139137D01*
X88467855Y-82147181D01*
X88475683Y-82148421D01*
X88475690Y-82148423D01*
X88511524Y-82154099D01*
X88523144Y-82156505D01*
X88558289Y-82165528D01*
X88565970Y-82167500D01*
X88586224Y-82167500D01*
X88605934Y-82169051D01*
X88625943Y-82172220D01*
X88633835Y-82171474D01*
X88669961Y-82168059D01*
X88681819Y-82167500D01*
X90781774Y-82167500D01*
X90849895Y-82187502D01*
X90889207Y-82227665D01*
X90957487Y-82339088D01*
X91103750Y-82507938D01*
X91275626Y-82650632D01*
X91468500Y-82763338D01*
X91473325Y-82765180D01*
X91473326Y-82765181D01*
X91514435Y-82780879D01*
X91677192Y-82843030D01*
X91682260Y-82844061D01*
X91682263Y-82844062D01*
X91752526Y-82858357D01*
X91896097Y-82887567D01*
X91901272Y-82887757D01*
X91901274Y-82887757D01*
X92114173Y-82895564D01*
X92114177Y-82895564D01*
X92119337Y-82895753D01*
X92124457Y-82895097D01*
X92124459Y-82895097D01*
X92335788Y-82868025D01*
X92335789Y-82868025D01*
X92340916Y-82867368D01*
X92380134Y-82855602D01*
X92549929Y-82804661D01*
X92549934Y-82804659D01*
X92554884Y-82803174D01*
X92755494Y-82704896D01*
X92937360Y-82575173D01*
X92960113Y-82552500D01*
X93045740Y-82467171D01*
X93095596Y-82417489D01*
X93096171Y-82418066D01*
X93151891Y-82381562D01*
X93222885Y-82380939D01*
X93282946Y-82418796D01*
X93302551Y-82448691D01*
X93303633Y-82451000D01*
X93305950Y-82457946D01*
X93399022Y-82608348D01*
X93524197Y-82733305D01*
X93530427Y-82737145D01*
X93530428Y-82737146D01*
X93667590Y-82821694D01*
X93674762Y-82826115D01*
X93728871Y-82844062D01*
X93836111Y-82879632D01*
X93836113Y-82879632D01*
X93842639Y-82881797D01*
X93849475Y-82882497D01*
X93849478Y-82882498D01*
X93888872Y-82886534D01*
X93947100Y-82892500D01*
X95247900Y-82892500D01*
X95251146Y-82892163D01*
X95251150Y-82892163D01*
X95346808Y-82882238D01*
X95346812Y-82882237D01*
X95353666Y-82881526D01*
X95360202Y-82879345D01*
X95360204Y-82879345D01*
X95508872Y-82829745D01*
X95521446Y-82825550D01*
X95671848Y-82732478D01*
X95796805Y-82607303D01*
X95830586Y-82552500D01*
X95885775Y-82462968D01*
X95885776Y-82462966D01*
X95889615Y-82456738D01*
X95930097Y-82334688D01*
X95943132Y-82295389D01*
X95943132Y-82295387D01*
X95945297Y-82288861D01*
X95956000Y-82184400D01*
X95956000Y-80883600D01*
X95955663Y-80880350D01*
X95945738Y-80784692D01*
X95945737Y-80784688D01*
X95945026Y-80777834D01*
X95938966Y-80759668D01*
X95891368Y-80617002D01*
X95889050Y-80610054D01*
X95795978Y-80459652D01*
X95670803Y-80334695D01*
X95655666Y-80325364D01*
X95569280Y-80272115D01*
X95520238Y-80241885D01*
X95513285Y-80239579D01*
X95512404Y-80239168D01*
X95459118Y-80192252D01*
X95439656Y-80123975D01*
X95460196Y-80056015D01*
X95478029Y-80035844D01*
X95477360Y-80035173D01*
X95507162Y-80005475D01*
X95635596Y-79877489D01*
X95657717Y-79846705D01*
X95762935Y-79700277D01*
X95765953Y-79696077D01*
X95768877Y-79690162D01*
X95862636Y-79500453D01*
X95862637Y-79500451D01*
X95864930Y-79495811D01*
X95929870Y-79282069D01*
X95959029Y-79060590D01*
X95960656Y-78994000D01*
X95942352Y-78771361D01*
X95887931Y-78554702D01*
X95798854Y-78349840D01*
X95677514Y-78162277D01*
X95527170Y-77997051D01*
X95523119Y-77993852D01*
X95523115Y-77993848D01*
X95355914Y-77861800D01*
X95355910Y-77861798D01*
X95351859Y-77858598D01*
X95310553Y-77835796D01*
X95260584Y-77785364D01*
X95245812Y-77715921D01*
X95270928Y-77649516D01*
X95298280Y-77622909D01*
X95342103Y-77591650D01*
X95477360Y-77495173D01*
X95635596Y-77337489D01*
X95695094Y-77254689D01*
X95762935Y-77160277D01*
X95765953Y-77156077D01*
X95786820Y-77113857D01*
X95862636Y-76960453D01*
X95862637Y-76960451D01*
X95864930Y-76955811D01*
X95929870Y-76742069D01*
X95959029Y-76520590D01*
X95960656Y-76454000D01*
X95942352Y-76231361D01*
X95887931Y-76014702D01*
X95798854Y-75809840D01*
X95759406Y-75748862D01*
X95680322Y-75626617D01*
X95680320Y-75626614D01*
X95677514Y-75622277D01*
X95527170Y-75457051D01*
X95523119Y-75453852D01*
X95523115Y-75453848D01*
X95355914Y-75321800D01*
X95355910Y-75321798D01*
X95351859Y-75318598D01*
X95310553Y-75295796D01*
X95260584Y-75245364D01*
X95245812Y-75175921D01*
X95270928Y-75109516D01*
X95298280Y-75082909D01*
X95342103Y-75051650D01*
X95477360Y-74955173D01*
X95512656Y-74920000D01*
X98010502Y-74920000D01*
X98030457Y-75148087D01*
X98031881Y-75153400D01*
X98031881Y-75153402D01*
X98077004Y-75321800D01*
X98089716Y-75369243D01*
X98092039Y-75374224D01*
X98092039Y-75374225D01*
X98184151Y-75571762D01*
X98184154Y-75571767D01*
X98186477Y-75576749D01*
X98317802Y-75764300D01*
X98479700Y-75926198D01*
X98484208Y-75929355D01*
X98484211Y-75929357D01*
X98554552Y-75978610D01*
X98667251Y-76057523D01*
X98672233Y-76059846D01*
X98672238Y-76059849D01*
X98707049Y-76076081D01*
X98760334Y-76122998D01*
X98779795Y-76191275D01*
X98759253Y-76259235D01*
X98707049Y-76304471D01*
X98672489Y-76320586D01*
X98662993Y-76326069D01*
X98484533Y-76451028D01*
X98476125Y-76458084D01*
X98322084Y-76612125D01*
X98315028Y-76620533D01*
X98190069Y-76798993D01*
X98184586Y-76808489D01*
X98092510Y-77005947D01*
X98088764Y-77016239D01*
X98042606Y-77188503D01*
X98042942Y-77202599D01*
X98050884Y-77206000D01*
X100591967Y-77206000D01*
X100605498Y-77202027D01*
X100606727Y-77193478D01*
X100559236Y-77016239D01*
X100555490Y-77005947D01*
X100463414Y-76808489D01*
X100457931Y-76798993D01*
X100332972Y-76620533D01*
X100325916Y-76612125D01*
X100171875Y-76458084D01*
X100163467Y-76451028D01*
X99985007Y-76326069D01*
X99975511Y-76320586D01*
X99940951Y-76304471D01*
X99887666Y-76257554D01*
X99868205Y-76189277D01*
X99888747Y-76121317D01*
X99940951Y-76076081D01*
X99975762Y-76059849D01*
X99975767Y-76059846D01*
X99980749Y-76057523D01*
X100093448Y-75978610D01*
X100163789Y-75929357D01*
X100163792Y-75929355D01*
X100168300Y-75926198D01*
X100330198Y-75764300D01*
X100461523Y-75576749D01*
X100463846Y-75571767D01*
X100463849Y-75571762D01*
X100555961Y-75374225D01*
X100555961Y-75374224D01*
X100558284Y-75369243D01*
X100570997Y-75321800D01*
X100616119Y-75153402D01*
X100616119Y-75153400D01*
X100617543Y-75148087D01*
X100637498Y-74920000D01*
X100617543Y-74691913D01*
X100616119Y-74686598D01*
X100559707Y-74476067D01*
X100559706Y-74476065D01*
X100558284Y-74470757D01*
X100534827Y-74420453D01*
X100463849Y-74268238D01*
X100463846Y-74268233D01*
X100461523Y-74263251D01*
X100353352Y-74108767D01*
X100333357Y-74080211D01*
X100333355Y-74080208D01*
X100330198Y-74075700D01*
X100168300Y-73913802D01*
X100163789Y-73910643D01*
X100159576Y-73907108D01*
X100160527Y-73905974D01*
X100120529Y-73855929D01*
X100113224Y-73785310D01*
X100145258Y-73721951D01*
X100206462Y-73685970D01*
X100223517Y-73682918D01*
X100234316Y-73681745D01*
X100370705Y-73630615D01*
X100487261Y-73543261D01*
X100574615Y-73426705D01*
X100625745Y-73290316D01*
X100632500Y-73228134D01*
X100632500Y-71531866D01*
X100625745Y-71469684D01*
X100574615Y-71333295D01*
X100487261Y-71216739D01*
X100370705Y-71129385D01*
X100234316Y-71078255D01*
X100172134Y-71071500D01*
X98475866Y-71071500D01*
X98413684Y-71078255D01*
X98277295Y-71129385D01*
X98160739Y-71216739D01*
X98073385Y-71333295D01*
X98022255Y-71469684D01*
X98015500Y-71531866D01*
X98015500Y-73228134D01*
X98022255Y-73290316D01*
X98073385Y-73426705D01*
X98160739Y-73543261D01*
X98277295Y-73630615D01*
X98413684Y-73681745D01*
X98424474Y-73682917D01*
X98426606Y-73683803D01*
X98429222Y-73684425D01*
X98429121Y-73684848D01*
X98490035Y-73710155D01*
X98530463Y-73768517D01*
X98532922Y-73839471D01*
X98496629Y-73900490D01*
X98487969Y-73907489D01*
X98484207Y-73910646D01*
X98479700Y-73913802D01*
X98317802Y-74075700D01*
X98314645Y-74080208D01*
X98314643Y-74080211D01*
X98294648Y-74108767D01*
X98186477Y-74263251D01*
X98184154Y-74268233D01*
X98184151Y-74268238D01*
X98113173Y-74420453D01*
X98089716Y-74470757D01*
X98088294Y-74476065D01*
X98088293Y-74476067D01*
X98031881Y-74686598D01*
X98030457Y-74691913D01*
X98010502Y-74920000D01*
X95512656Y-74920000D01*
X95635596Y-74797489D01*
X95650504Y-74776743D01*
X95762935Y-74620277D01*
X95765953Y-74616077D01*
X95777013Y-74593700D01*
X95862636Y-74420453D01*
X95862637Y-74420451D01*
X95864930Y-74415811D01*
X95929870Y-74202069D01*
X95959029Y-73980590D01*
X95960656Y-73914000D01*
X95942352Y-73691361D01*
X95887931Y-73474702D01*
X95798854Y-73269840D01*
X95677514Y-73082277D01*
X95527170Y-72917051D01*
X95523119Y-72913852D01*
X95523115Y-72913848D01*
X95355914Y-72781800D01*
X95355910Y-72781798D01*
X95351859Y-72778598D01*
X95310553Y-72755796D01*
X95260584Y-72705364D01*
X95245812Y-72635921D01*
X95270928Y-72569516D01*
X95298280Y-72542909D01*
X95342103Y-72511650D01*
X95477360Y-72415173D01*
X95635596Y-72257489D01*
X95695094Y-72174689D01*
X95762935Y-72080277D01*
X95765953Y-72076077D01*
X95786820Y-72033857D01*
X95862636Y-71880453D01*
X95862637Y-71880451D01*
X95864930Y-71875811D01*
X95929870Y-71662069D01*
X95959029Y-71440590D01*
X95960656Y-71374000D01*
X95942352Y-71151361D01*
X95887931Y-70934702D01*
X95798854Y-70729840D01*
X95677514Y-70542277D01*
X95527170Y-70377051D01*
X95523119Y-70373852D01*
X95523115Y-70373848D01*
X95355914Y-70241800D01*
X95355910Y-70241798D01*
X95351859Y-70238598D01*
X95310069Y-70215529D01*
X95260098Y-70165097D01*
X95245326Y-70095654D01*
X95270442Y-70029248D01*
X95297793Y-70002642D01*
X95346747Y-69967723D01*
X95355148Y-69957023D01*
X95348160Y-69943870D01*
X94610312Y-69206022D01*
X94596368Y-69198408D01*
X94594535Y-69198539D01*
X94587920Y-69202790D01*
X93844237Y-69946473D01*
X93837477Y-69958853D01*
X93842758Y-69965907D01*
X93889469Y-69993203D01*
X93938193Y-70044841D01*
X93951264Y-70114624D01*
X93924533Y-70180396D01*
X93884084Y-70213752D01*
X93871107Y-70220507D01*
X93866974Y-70223610D01*
X93866971Y-70223612D01*
X93842747Y-70241800D01*
X93692465Y-70354635D01*
X93538129Y-70516138D01*
X93430701Y-70673621D01*
X93375793Y-70718621D01*
X93305268Y-70726792D01*
X93241521Y-70695538D01*
X93220824Y-70671054D01*
X93140322Y-70546617D01*
X93140320Y-70546614D01*
X93137514Y-70542277D01*
X92987170Y-70377051D01*
X92983119Y-70373852D01*
X92983115Y-70373848D01*
X92815914Y-70241800D01*
X92815910Y-70241798D01*
X92811859Y-70238598D01*
X92770553Y-70215796D01*
X92720584Y-70165364D01*
X92705812Y-70095921D01*
X92730928Y-70029516D01*
X92758280Y-70002909D01*
X92822610Y-69957023D01*
X92937360Y-69875173D01*
X93095596Y-69717489D01*
X93155094Y-69634689D01*
X93225953Y-69536077D01*
X93227140Y-69536930D01*
X93274460Y-69493362D01*
X93344397Y-69481145D01*
X93409838Y-69508678D01*
X93437666Y-69540512D01*
X93463959Y-69583419D01*
X93474416Y-69592880D01*
X93483194Y-69589096D01*
X94225478Y-68846812D01*
X94231856Y-68835132D01*
X94961908Y-68835132D01*
X94962039Y-68836965D01*
X94966290Y-68843580D01*
X95707974Y-69585264D01*
X95719984Y-69591823D01*
X95731723Y-69582855D01*
X95762504Y-69540019D01*
X95767815Y-69531180D01*
X95862170Y-69340267D01*
X95865969Y-69330672D01*
X95927876Y-69126915D01*
X95930055Y-69116834D01*
X95958090Y-68903887D01*
X95958609Y-68897212D01*
X95960072Y-68837364D01*
X95959878Y-68830646D01*
X95942281Y-68616604D01*
X95940596Y-68606424D01*
X95888714Y-68399875D01*
X95885394Y-68390124D01*
X95800472Y-68194814D01*
X95795605Y-68185739D01*
X95730563Y-68085197D01*
X95719877Y-68075995D01*
X95710312Y-68080398D01*
X94969522Y-68821188D01*
X94961908Y-68835132D01*
X94231856Y-68835132D01*
X94233092Y-68832868D01*
X94232961Y-68831035D01*
X94228710Y-68824420D01*
X93487349Y-68083059D01*
X93475813Y-68076759D01*
X93463531Y-68086382D01*
X93430999Y-68134072D01*
X93376087Y-68179075D01*
X93305563Y-68187246D01*
X93241816Y-68155992D01*
X93221118Y-68131508D01*
X93140322Y-68006617D01*
X93140320Y-68006614D01*
X93137514Y-68002277D01*
X92987170Y-67837051D01*
X92983119Y-67833852D01*
X92983115Y-67833848D01*
X92815914Y-67701800D01*
X92815910Y-67701798D01*
X92811859Y-67698598D01*
X92770553Y-67675796D01*
X92720584Y-67625364D01*
X92705812Y-67555921D01*
X92730928Y-67489516D01*
X92758280Y-67462909D01*
X92802103Y-67431650D01*
X92937360Y-67335173D01*
X93095596Y-67177489D01*
X93155094Y-67094689D01*
X93225953Y-66996077D01*
X93227276Y-66997028D01*
X93274145Y-66953857D01*
X93344080Y-66941625D01*
X93409526Y-66969144D01*
X93437375Y-67000994D01*
X93497487Y-67099088D01*
X93643750Y-67267938D01*
X93815626Y-67410632D01*
X93876114Y-67445978D01*
X93889455Y-67453774D01*
X93938179Y-67505412D01*
X93951250Y-67575195D01*
X93924519Y-67640967D01*
X93884062Y-67674327D01*
X93875960Y-67678544D01*
X93867234Y-67684039D01*
X93847177Y-67699099D01*
X93838723Y-67710427D01*
X93845468Y-67722758D01*
X94584688Y-68461978D01*
X94598632Y-68469592D01*
X94600465Y-68469461D01*
X94607080Y-68465210D01*
X95350889Y-67721401D01*
X95357910Y-67708544D01*
X95351111Y-67699213D01*
X95347059Y-67696521D01*
X95310102Y-67676120D01*
X95260131Y-67625687D01*
X95245359Y-67556245D01*
X95270475Y-67489839D01*
X95297827Y-67463232D01*
X95322016Y-67445978D01*
X95477360Y-67335173D01*
X95635596Y-67177489D01*
X95695094Y-67094689D01*
X95762935Y-67000277D01*
X95765953Y-66996077D01*
X95777219Y-66973283D01*
X95862636Y-66800453D01*
X95862637Y-66800451D01*
X95864930Y-66795811D01*
X95929870Y-66582069D01*
X95959029Y-66360590D01*
X95960656Y-66294000D01*
X95942352Y-66071361D01*
X95887931Y-65854702D01*
X95798854Y-65649840D01*
X95719467Y-65527126D01*
X95680322Y-65466617D01*
X95680320Y-65466614D01*
X95677514Y-65462277D01*
X95527170Y-65297051D01*
X95523119Y-65293852D01*
X95523115Y-65293848D01*
X95355914Y-65161800D01*
X95355910Y-65161798D01*
X95351859Y-65158598D01*
X95310553Y-65135796D01*
X95260584Y-65085364D01*
X95245812Y-65015921D01*
X95270928Y-64949516D01*
X95298280Y-64922909D01*
X95342103Y-64891650D01*
X95477360Y-64795173D01*
X95635596Y-64637489D01*
X95652613Y-64613808D01*
X95721082Y-64518522D01*
X98041273Y-64518522D01*
X98088764Y-64695761D01*
X98092510Y-64706053D01*
X98184586Y-64903511D01*
X98190069Y-64913007D01*
X98315028Y-65091467D01*
X98322084Y-65099875D01*
X98476125Y-65253916D01*
X98484533Y-65260972D01*
X98662993Y-65385931D01*
X98672489Y-65391414D01*
X98869947Y-65483490D01*
X98880239Y-65487236D01*
X99052503Y-65533394D01*
X99066599Y-65533058D01*
X99070000Y-65525116D01*
X99070000Y-65519967D01*
X99578000Y-65519967D01*
X99581973Y-65533498D01*
X99590522Y-65534727D01*
X99767761Y-65487236D01*
X99778053Y-65483490D01*
X99975511Y-65391414D01*
X99985007Y-65385931D01*
X100163467Y-65260972D01*
X100171875Y-65253916D01*
X100325916Y-65099875D01*
X100332972Y-65091467D01*
X100457931Y-64913007D01*
X100463414Y-64903511D01*
X100555490Y-64706053D01*
X100559236Y-64695761D01*
X100605394Y-64523497D01*
X100605058Y-64509401D01*
X100597116Y-64506000D01*
X99596115Y-64506000D01*
X99580876Y-64510475D01*
X99579671Y-64511865D01*
X99578000Y-64519548D01*
X99578000Y-65519967D01*
X99070000Y-65519967D01*
X99070000Y-64524115D01*
X99065525Y-64508876D01*
X99064135Y-64507671D01*
X99056452Y-64506000D01*
X98056033Y-64506000D01*
X98042502Y-64509973D01*
X98041273Y-64518522D01*
X95721082Y-64518522D01*
X95762935Y-64460277D01*
X95765953Y-64456077D01*
X95786820Y-64413857D01*
X95862636Y-64260453D01*
X95862637Y-64260451D01*
X95864930Y-64255811D01*
X95929870Y-64042069D01*
X95959029Y-63820590D01*
X95959582Y-63797947D01*
X95960574Y-63757365D01*
X95960574Y-63757361D01*
X95960656Y-63754000D01*
X95942352Y-63531361D01*
X95887931Y-63314702D01*
X95798854Y-63109840D01*
X95725433Y-62996348D01*
X95680322Y-62926617D01*
X95680320Y-62926614D01*
X95677514Y-62922277D01*
X95527170Y-62757051D01*
X95523119Y-62753852D01*
X95523115Y-62753848D01*
X95355914Y-62621800D01*
X95355910Y-62621798D01*
X95351859Y-62618598D01*
X95310553Y-62595796D01*
X95260584Y-62545364D01*
X95245812Y-62475921D01*
X95270928Y-62409516D01*
X95298280Y-62382909D01*
X95352307Y-62344372D01*
X95477360Y-62255173D01*
X95521628Y-62211060D01*
X95586596Y-62146318D01*
X95635596Y-62097489D01*
X95695094Y-62014689D01*
X95762935Y-61920277D01*
X95765953Y-61916077D01*
X95786820Y-61873857D01*
X95862636Y-61720453D01*
X95862637Y-61720451D01*
X95864930Y-61715811D01*
X95929870Y-61502069D01*
X95959029Y-61280590D01*
X95959465Y-61262757D01*
X95960574Y-61217365D01*
X95960574Y-61217361D01*
X95960656Y-61214000D01*
X95942352Y-60991361D01*
X95887931Y-60774702D01*
X95798854Y-60569840D01*
X95677514Y-60382277D01*
X95527170Y-60217051D01*
X95523119Y-60213852D01*
X95523115Y-60213848D01*
X95355914Y-60081800D01*
X95355910Y-60081798D01*
X95351859Y-60078598D01*
X95310553Y-60055796D01*
X95260584Y-60005364D01*
X95245812Y-59935921D01*
X95270928Y-59869516D01*
X95298280Y-59842909D01*
X95357751Y-59800489D01*
X95477360Y-59715173D01*
X95635596Y-59557489D01*
X95695094Y-59474689D01*
X95762935Y-59380277D01*
X95765953Y-59376077D01*
X95786820Y-59333857D01*
X95862636Y-59180453D01*
X95862637Y-59180451D01*
X95864930Y-59175811D01*
X95929870Y-58962069D01*
X95959029Y-58740590D01*
X95959465Y-58722757D01*
X95960574Y-58677365D01*
X95960574Y-58677361D01*
X95960656Y-58674000D01*
X95942352Y-58451361D01*
X95887931Y-58234702D01*
X95798854Y-58029840D01*
X95696836Y-57872144D01*
X95680322Y-57846617D01*
X95680320Y-57846614D01*
X95677514Y-57842277D01*
X95527170Y-57677051D01*
X95523119Y-57673852D01*
X95523115Y-57673848D01*
X95355914Y-57541800D01*
X95355910Y-57541798D01*
X95351859Y-57538598D01*
X95319325Y-57520638D01*
X95280676Y-57499303D01*
X95156289Y-57430638D01*
X95151420Y-57428914D01*
X95151416Y-57428912D01*
X94950587Y-57357795D01*
X94950583Y-57357794D01*
X94945712Y-57356069D01*
X94940619Y-57355162D01*
X94940616Y-57355161D01*
X94730873Y-57317800D01*
X94730867Y-57317799D01*
X94725784Y-57316894D01*
X94651952Y-57315992D01*
X94507581Y-57314228D01*
X94507579Y-57314228D01*
X94502411Y-57314165D01*
X94281591Y-57347955D01*
X94069256Y-57417357D01*
X94020144Y-57442923D01*
X93958731Y-57474893D01*
X93871107Y-57520507D01*
X93866974Y-57523610D01*
X93866971Y-57523612D01*
X93696600Y-57651530D01*
X93692465Y-57654635D01*
X93681583Y-57666022D01*
X93559631Y-57793638D01*
X93538129Y-57816138D01*
X93430701Y-57973621D01*
X93375793Y-58018621D01*
X93305268Y-58026792D01*
X93241521Y-57995538D01*
X93220824Y-57971054D01*
X93140322Y-57846617D01*
X93140320Y-57846614D01*
X93137514Y-57842277D01*
X92987170Y-57677051D01*
X92983119Y-57673852D01*
X92983115Y-57673848D01*
X92815914Y-57541800D01*
X92815910Y-57541798D01*
X92811859Y-57538598D01*
X92779325Y-57520638D01*
X92740676Y-57499303D01*
X92616289Y-57430638D01*
X92611420Y-57428914D01*
X92611416Y-57428912D01*
X92410587Y-57357795D01*
X92410583Y-57357794D01*
X92405712Y-57356069D01*
X92400619Y-57355162D01*
X92400616Y-57355161D01*
X92190873Y-57317800D01*
X92190867Y-57317799D01*
X92185784Y-57316894D01*
X92111952Y-57315992D01*
X91967581Y-57314228D01*
X91967579Y-57314228D01*
X91962411Y-57314165D01*
X91741591Y-57347955D01*
X91529256Y-57417357D01*
X91480144Y-57442923D01*
X91418731Y-57474893D01*
X91331107Y-57520507D01*
X91326974Y-57523610D01*
X91326971Y-57523612D01*
X91156600Y-57651530D01*
X91152465Y-57654635D01*
X91141583Y-57666022D01*
X91019631Y-57793638D01*
X90998129Y-57816138D01*
X90995220Y-57820403D01*
X90995214Y-57820411D01*
X90963922Y-57866284D01*
X90872243Y-58000680D01*
X90857635Y-58032151D01*
X90797063Y-58162643D01*
X90778188Y-58203305D01*
X90718489Y-58418570D01*
X90694751Y-58640695D01*
X90695048Y-58645848D01*
X90695048Y-58645851D01*
X90700511Y-58740590D01*
X90707610Y-58863715D01*
X90708747Y-58868761D01*
X90708748Y-58868767D01*
X90711383Y-58880459D01*
X90756722Y-59081639D01*
X90840766Y-59288616D01*
X90891519Y-59371438D01*
X90954791Y-59474688D01*
X90957487Y-59479088D01*
X91103750Y-59647938D01*
X91275626Y-59790632D01*
X91340856Y-59828749D01*
X91348945Y-59833476D01*
X91397669Y-59885114D01*
X91410740Y-59954897D01*
X91384009Y-60020669D01*
X91343555Y-60054027D01*
X91331107Y-60060507D01*
X91326974Y-60063610D01*
X91326971Y-60063612D01*
X91164661Y-60185478D01*
X91152465Y-60194635D01*
X90998129Y-60356138D01*
X90995220Y-60360403D01*
X90995214Y-60360411D01*
X90985452Y-60374722D01*
X90872243Y-60540680D01*
X90857635Y-60572151D01*
X90787096Y-60724115D01*
X90778188Y-60743305D01*
X90718489Y-60958570D01*
X90694751Y-61180695D01*
X90695048Y-61185848D01*
X90695048Y-61185851D01*
X90701623Y-61299875D01*
X90707610Y-61403715D01*
X90708747Y-61408761D01*
X90708748Y-61408767D01*
X90720600Y-61461357D01*
X90756722Y-61621639D01*
X90840766Y-61828616D01*
X90891519Y-61911438D01*
X90954791Y-62014688D01*
X90957487Y-62019088D01*
X91103750Y-62187938D01*
X91275626Y-62330632D01*
X91335299Y-62365502D01*
X91348945Y-62373476D01*
X91397669Y-62425114D01*
X91410740Y-62494897D01*
X91384009Y-62560669D01*
X91343555Y-62594027D01*
X91331107Y-62600507D01*
X91326974Y-62603610D01*
X91326971Y-62603612D01*
X91156600Y-62731530D01*
X91152465Y-62734635D01*
X90998129Y-62896138D01*
X90995220Y-62900403D01*
X90995214Y-62900411D01*
X90982904Y-62918457D01*
X90872243Y-63080680D01*
X90848594Y-63131628D01*
X90783150Y-63272616D01*
X90778188Y-63283305D01*
X90718489Y-63498570D01*
X90694751Y-63720695D01*
X90695048Y-63725848D01*
X90695048Y-63725851D01*
X90700511Y-63820590D01*
X90707610Y-63943715D01*
X90708747Y-63948761D01*
X90708748Y-63948767D01*
X90718948Y-63994027D01*
X90756722Y-64161639D01*
X90840766Y-64368616D01*
X90891519Y-64451438D01*
X90954791Y-64554688D01*
X90957487Y-64559088D01*
X91103750Y-64727938D01*
X91275626Y-64870632D01*
X91340856Y-64908749D01*
X91348945Y-64913476D01*
X91397669Y-64965114D01*
X91410740Y-65034897D01*
X91384009Y-65100669D01*
X91343555Y-65134027D01*
X91331107Y-65140507D01*
X91326974Y-65143610D01*
X91326971Y-65143612D01*
X91156600Y-65271530D01*
X91152465Y-65274635D01*
X90998129Y-65436138D01*
X90995220Y-65440403D01*
X90995214Y-65440411D01*
X90930876Y-65534727D01*
X90872243Y-65620680D01*
X90778188Y-65823305D01*
X90718489Y-66038570D01*
X90694751Y-66260695D01*
X90695048Y-66265848D01*
X90695048Y-66265851D01*
X90700511Y-66360590D01*
X90707610Y-66483715D01*
X90708747Y-66488761D01*
X90708748Y-66488767D01*
X90713421Y-66509500D01*
X90756722Y-66701639D01*
X90840766Y-66908616D01*
X90878300Y-66969866D01*
X90954791Y-67094688D01*
X90957487Y-67099088D01*
X91103750Y-67267938D01*
X91275626Y-67410632D01*
X91336114Y-67445978D01*
X91348945Y-67453476D01*
X91397669Y-67505114D01*
X91410740Y-67574897D01*
X91384009Y-67640669D01*
X91343555Y-67674027D01*
X91331107Y-67680507D01*
X91326974Y-67683610D01*
X91326971Y-67683612D01*
X91156600Y-67811530D01*
X91152465Y-67814635D01*
X90998129Y-67976138D01*
X90872243Y-68160680D01*
X90778188Y-68363305D01*
X90718489Y-68578570D01*
X90694751Y-68800695D01*
X90695048Y-68805848D01*
X90695048Y-68805851D01*
X90697410Y-68846812D01*
X90707610Y-69023715D01*
X90708747Y-69028761D01*
X90708748Y-69028767D01*
X90728626Y-69116971D01*
X90756722Y-69241639D01*
X90840766Y-69448616D01*
X90957487Y-69639088D01*
X91103750Y-69807938D01*
X91275626Y-69950632D01*
X91286563Y-69957023D01*
X91348945Y-69993476D01*
X91397669Y-70045114D01*
X91410740Y-70114897D01*
X91384009Y-70180669D01*
X91343555Y-70214027D01*
X91331107Y-70220507D01*
X91326974Y-70223610D01*
X91326971Y-70223612D01*
X91302747Y-70241800D01*
X91152465Y-70354635D01*
X90998129Y-70516138D01*
X90872243Y-70700680D01*
X90778188Y-70903305D01*
X90718489Y-71118570D01*
X90694751Y-71340695D01*
X90695048Y-71345848D01*
X90695048Y-71345851D01*
X90700511Y-71440590D01*
X90707610Y-71563715D01*
X90708747Y-71568761D01*
X90708748Y-71568767D01*
X90720407Y-71620500D01*
X90756722Y-71781639D01*
X90840766Y-71988616D01*
X90891519Y-72071438D01*
X90954791Y-72174688D01*
X90957487Y-72179088D01*
X91103750Y-72347938D01*
X91275626Y-72490632D01*
X91346095Y-72531811D01*
X91348945Y-72533476D01*
X91397669Y-72585114D01*
X91410740Y-72654897D01*
X91384009Y-72720669D01*
X91343555Y-72754027D01*
X91331107Y-72760507D01*
X91326974Y-72763610D01*
X91326971Y-72763612D01*
X91302747Y-72781800D01*
X91152465Y-72894635D01*
X91148893Y-72898373D01*
X91016658Y-73036749D01*
X90998129Y-73056138D01*
X90995220Y-73060403D01*
X90995214Y-73060411D01*
X90941263Y-73139500D01*
X90872243Y-73240680D01*
X90849203Y-73290316D01*
X90782558Y-73433891D01*
X90778188Y-73443305D01*
X90718489Y-73658570D01*
X90694751Y-73880695D01*
X90695048Y-73885848D01*
X90695048Y-73885851D01*
X90700511Y-73980590D01*
X90707610Y-74103715D01*
X90708747Y-74108761D01*
X90708748Y-74108767D01*
X90730670Y-74206039D01*
X90756722Y-74321639D01*
X90840766Y-74528616D01*
X90878261Y-74589803D01*
X90954791Y-74714688D01*
X90957487Y-74719088D01*
X91103750Y-74887938D01*
X91275626Y-75030632D01*
X91326799Y-75060535D01*
X91348945Y-75073476D01*
X91397669Y-75125114D01*
X91410740Y-75194897D01*
X91384009Y-75260669D01*
X91343555Y-75294027D01*
X91331107Y-75300507D01*
X91326974Y-75303610D01*
X91326971Y-75303612D01*
X91156600Y-75431530D01*
X91152465Y-75434635D01*
X91148893Y-75438373D01*
X91012350Y-75581257D01*
X90998129Y-75596138D01*
X90872243Y-75780680D01*
X90778188Y-75983305D01*
X90718489Y-76198570D01*
X90694751Y-76420695D01*
X90695048Y-76425848D01*
X90695048Y-76425851D01*
X90700511Y-76520590D01*
X90707610Y-76643715D01*
X90708747Y-76648761D01*
X90708748Y-76648767D01*
X90714048Y-76672284D01*
X90756722Y-76861639D01*
X90840766Y-77068616D01*
X90891519Y-77151438D01*
X90954791Y-77254688D01*
X90957487Y-77259088D01*
X91103750Y-77427938D01*
X91275626Y-77570632D01*
X91346095Y-77611811D01*
X91348945Y-77613476D01*
X91397669Y-77665114D01*
X91410740Y-77734897D01*
X91384009Y-77800669D01*
X91343555Y-77834027D01*
X91331107Y-77840507D01*
X91326974Y-77843610D01*
X91326971Y-77843612D01*
X91156600Y-77971530D01*
X91152465Y-77974635D01*
X91148893Y-77978373D01*
X91012589Y-78121007D01*
X90998129Y-78136138D01*
X90872243Y-78320680D01*
X90778188Y-78523305D01*
X90776807Y-78528285D01*
X90775437Y-78532008D01*
X90733143Y-78589032D01*
X90666733Y-78614138D01*
X90657187Y-78614500D01*
X90167500Y-78614500D01*
X90099379Y-78594498D01*
X90052886Y-78540842D01*
X90041500Y-78488500D01*
X90041500Y-56702594D01*
X90061502Y-56634473D01*
X90078405Y-56613499D01*
X90141499Y-56550405D01*
X90203811Y-56516379D01*
X90230594Y-56513500D01*
X95717406Y-56513500D01*
X95785527Y-56533502D01*
X95806501Y-56550405D01*
X98014848Y-58758752D01*
X98048874Y-58821064D01*
X98047459Y-58880459D01*
X98031882Y-58938591D01*
X98031881Y-58938598D01*
X98030457Y-58943913D01*
X98010502Y-59172000D01*
X98030457Y-59400087D01*
X98031881Y-59405400D01*
X98031881Y-59405402D01*
X98073611Y-59561137D01*
X98089716Y-59621243D01*
X98092039Y-59626224D01*
X98092039Y-59626225D01*
X98184151Y-59823762D01*
X98184154Y-59823767D01*
X98186477Y-59828749D01*
X98238705Y-59903338D01*
X98312158Y-60008239D01*
X98317802Y-60016300D01*
X98479700Y-60178198D01*
X98484208Y-60181355D01*
X98484211Y-60181357D01*
X98552814Y-60229393D01*
X98667251Y-60309523D01*
X98672233Y-60311846D01*
X98672238Y-60311849D01*
X98706457Y-60327805D01*
X98759742Y-60374722D01*
X98779203Y-60442999D01*
X98758661Y-60510959D01*
X98706457Y-60556195D01*
X98672238Y-60572151D01*
X98672233Y-60572154D01*
X98667251Y-60574477D01*
X98562389Y-60647902D01*
X98484211Y-60702643D01*
X98484208Y-60702645D01*
X98479700Y-60705802D01*
X98317802Y-60867700D01*
X98186477Y-61055251D01*
X98184154Y-61060233D01*
X98184151Y-61060238D01*
X98110882Y-61217365D01*
X98089716Y-61262757D01*
X98088294Y-61268065D01*
X98088293Y-61268067D01*
X98037347Y-61458198D01*
X98030457Y-61483913D01*
X98010502Y-61712000D01*
X98030457Y-61940087D01*
X98031881Y-61945400D01*
X98031881Y-61945402D01*
X98073611Y-62101137D01*
X98089716Y-62161243D01*
X98092039Y-62166224D01*
X98092039Y-62166225D01*
X98184151Y-62363762D01*
X98184154Y-62363767D01*
X98186477Y-62368749D01*
X98258542Y-62471668D01*
X98310145Y-62545364D01*
X98317802Y-62556300D01*
X98479700Y-62718198D01*
X98484208Y-62721355D01*
X98484211Y-62721357D01*
X98540642Y-62760870D01*
X98667251Y-62849523D01*
X98672233Y-62851846D01*
X98672238Y-62851849D01*
X98707049Y-62868081D01*
X98760334Y-62914998D01*
X98779795Y-62983275D01*
X98759253Y-63051235D01*
X98707049Y-63096471D01*
X98672489Y-63112586D01*
X98662993Y-63118069D01*
X98484533Y-63243028D01*
X98476125Y-63250084D01*
X98322084Y-63404125D01*
X98315028Y-63412533D01*
X98190069Y-63590993D01*
X98184586Y-63600489D01*
X98092510Y-63797947D01*
X98088764Y-63808239D01*
X98042606Y-63980503D01*
X98042942Y-63994599D01*
X98050884Y-63998000D01*
X100591967Y-63998000D01*
X100605498Y-63994027D01*
X100606727Y-63985478D01*
X100559236Y-63808239D01*
X100555490Y-63797947D01*
X100463414Y-63600489D01*
X100457931Y-63590993D01*
X100332972Y-63412533D01*
X100325916Y-63404125D01*
X100171875Y-63250084D01*
X100163467Y-63243028D01*
X99985007Y-63118069D01*
X99975511Y-63112586D01*
X99940951Y-63096471D01*
X99887666Y-63049554D01*
X99868205Y-62981277D01*
X99888747Y-62913317D01*
X99940951Y-62868081D01*
X99975762Y-62851849D01*
X99975767Y-62851846D01*
X99980749Y-62849523D01*
X100107358Y-62760870D01*
X100163789Y-62721357D01*
X100163792Y-62721355D01*
X100168300Y-62718198D01*
X100330198Y-62556300D01*
X100333357Y-62551789D01*
X100440181Y-62399229D01*
X100495638Y-62354901D01*
X100543394Y-62345500D01*
X105724606Y-62345500D01*
X105792727Y-62365502D01*
X105827819Y-62399229D01*
X105934643Y-62551789D01*
X105937802Y-62556300D01*
X106099700Y-62718198D01*
X106104208Y-62721355D01*
X106104211Y-62721357D01*
X106160642Y-62760870D01*
X106287251Y-62849523D01*
X106292233Y-62851846D01*
X106292238Y-62851849D01*
X106326457Y-62867805D01*
X106379742Y-62914722D01*
X106399203Y-62982999D01*
X106378661Y-63050959D01*
X106326457Y-63096195D01*
X106292238Y-63112151D01*
X106292233Y-63112154D01*
X106287251Y-63114477D01*
X106234924Y-63151117D01*
X106104211Y-63242643D01*
X106104208Y-63242645D01*
X106099700Y-63245802D01*
X105937802Y-63407700D01*
X105934645Y-63412208D01*
X105934643Y-63412211D01*
X105892699Y-63472114D01*
X105806477Y-63595251D01*
X105804154Y-63600233D01*
X105804151Y-63600238D01*
X105730882Y-63757365D01*
X105709716Y-63802757D01*
X105708294Y-63808065D01*
X105708293Y-63808067D01*
X105673331Y-63938547D01*
X105650457Y-64023913D01*
X105630502Y-64252000D01*
X105650457Y-64480087D01*
X105651880Y-64485398D01*
X105651882Y-64485409D01*
X105667459Y-64543541D01*
X105665770Y-64614517D01*
X105634848Y-64665248D01*
X102731747Y-67568348D01*
X102723461Y-67575888D01*
X102716982Y-67580000D01*
X102711557Y-67585777D01*
X102670357Y-67629651D01*
X102667602Y-67632493D01*
X102647865Y-67652230D01*
X102645385Y-67655427D01*
X102637682Y-67664447D01*
X102607414Y-67696679D01*
X102603595Y-67703625D01*
X102603593Y-67703628D01*
X102597652Y-67714434D01*
X102586801Y-67730953D01*
X102574386Y-67746959D01*
X102571241Y-67754228D01*
X102571238Y-67754232D01*
X102556826Y-67787537D01*
X102551609Y-67798187D01*
X102530305Y-67836940D01*
X102528334Y-67844615D01*
X102528334Y-67844616D01*
X102525267Y-67856562D01*
X102518863Y-67875266D01*
X102510819Y-67893855D01*
X102509580Y-67901678D01*
X102509577Y-67901688D01*
X102503901Y-67937524D01*
X102501495Y-67949144D01*
X102490500Y-67991970D01*
X102490500Y-68012224D01*
X102488949Y-68031934D01*
X102485780Y-68051943D01*
X102486526Y-68059835D01*
X102489941Y-68095961D01*
X102490500Y-68107819D01*
X102490500Y-78933405D01*
X102470498Y-79001526D01*
X102453595Y-79022501D01*
X102146499Y-79329596D01*
X102084187Y-79363621D01*
X102057404Y-79366500D01*
X100543394Y-79366500D01*
X100475273Y-79346498D01*
X100440181Y-79312771D01*
X100333357Y-79160211D01*
X100333355Y-79160208D01*
X100330198Y-79155700D01*
X100168300Y-78993802D01*
X100163792Y-78990645D01*
X100163789Y-78990643D01*
X100082044Y-78933405D01*
X99980749Y-78862477D01*
X99975767Y-78860154D01*
X99975762Y-78860151D01*
X99940951Y-78843919D01*
X99887666Y-78797002D01*
X99868205Y-78728725D01*
X99888747Y-78660765D01*
X99940951Y-78615529D01*
X99975511Y-78599414D01*
X99985007Y-78593931D01*
X100163467Y-78468972D01*
X100171875Y-78461916D01*
X100325916Y-78307875D01*
X100332972Y-78299467D01*
X100457931Y-78121007D01*
X100463414Y-78111511D01*
X100555490Y-77914053D01*
X100559236Y-77903761D01*
X100605394Y-77731497D01*
X100605058Y-77717401D01*
X100597116Y-77714000D01*
X98056033Y-77714000D01*
X98042502Y-77717973D01*
X98041273Y-77726522D01*
X98088764Y-77903761D01*
X98092510Y-77914053D01*
X98184586Y-78111511D01*
X98190069Y-78121007D01*
X98315028Y-78299467D01*
X98322084Y-78307875D01*
X98476125Y-78461916D01*
X98484533Y-78468972D01*
X98662993Y-78593931D01*
X98672489Y-78599414D01*
X98707049Y-78615529D01*
X98760334Y-78662446D01*
X98779795Y-78730723D01*
X98759253Y-78798683D01*
X98707049Y-78843919D01*
X98672238Y-78860151D01*
X98672233Y-78860154D01*
X98667251Y-78862477D01*
X98565956Y-78933405D01*
X98484211Y-78990643D01*
X98484208Y-78990645D01*
X98479700Y-78993802D01*
X98317802Y-79155700D01*
X98314645Y-79160208D01*
X98314643Y-79160211D01*
X98259902Y-79238389D01*
X98186477Y-79343251D01*
X98184154Y-79348233D01*
X98184151Y-79348238D01*
X98100873Y-79526831D01*
X98089716Y-79550757D01*
X98088294Y-79556065D01*
X98088293Y-79556067D01*
X98040756Y-79733478D01*
X98030457Y-79771913D01*
X98010502Y-80000000D01*
X98030457Y-80228087D01*
X98031881Y-80233400D01*
X98031881Y-80233402D01*
X98083710Y-80426827D01*
X98089716Y-80449243D01*
X98092039Y-80454224D01*
X98092039Y-80454225D01*
X98184151Y-80651762D01*
X98184154Y-80651767D01*
X98186477Y-80656749D01*
X98317802Y-80844300D01*
X98479700Y-81006198D01*
X98484208Y-81009355D01*
X98484211Y-81009357D01*
X98636771Y-81116181D01*
X98681099Y-81171638D01*
X98690500Y-81219394D01*
X98690500Y-81320606D01*
X98670498Y-81388727D01*
X98636771Y-81423819D01*
X98484211Y-81530643D01*
X98484208Y-81530645D01*
X98479700Y-81533802D01*
X98317802Y-81695700D01*
X98186477Y-81883251D01*
X98184154Y-81888233D01*
X98184151Y-81888238D01*
X98094494Y-82080510D01*
X98089716Y-82090757D01*
X98088294Y-82096065D01*
X98088293Y-82096067D01*
X98031881Y-82306598D01*
X98030457Y-82311913D01*
X98010502Y-82540000D01*
X98030457Y-82768087D01*
X98031881Y-82773400D01*
X98031881Y-82773402D01*
X98078556Y-82947592D01*
X98089716Y-82989243D01*
X98092039Y-82994224D01*
X98092039Y-82994225D01*
X98184151Y-83191762D01*
X98184154Y-83191767D01*
X98186477Y-83196749D01*
X98189634Y-83201257D01*
X98313279Y-83377840D01*
X98317802Y-83384300D01*
X98479700Y-83546198D01*
X98484208Y-83549355D01*
X98484211Y-83549357D01*
X98498814Y-83559582D01*
X98667251Y-83677523D01*
X98672233Y-83679846D01*
X98672238Y-83679849D01*
X98706457Y-83695805D01*
X98759742Y-83742722D01*
X98779203Y-83810999D01*
X98758661Y-83878959D01*
X98706457Y-83924195D01*
X98672238Y-83940151D01*
X98672233Y-83940154D01*
X98667251Y-83942477D01*
X98610228Y-83982405D01*
X98484211Y-84070643D01*
X98484208Y-84070645D01*
X98479700Y-84073802D01*
X98317802Y-84235700D01*
X98186477Y-84423251D01*
X98184154Y-84428233D01*
X98184151Y-84428238D01*
X98162224Y-84475261D01*
X98089716Y-84630757D01*
X98088294Y-84636065D01*
X98088293Y-84636067D01*
X98040756Y-84813478D01*
X98030457Y-84851913D01*
X98010502Y-85080000D01*
X98030457Y-85308087D01*
X98031881Y-85313400D01*
X98031881Y-85313402D01*
X98041031Y-85347548D01*
X98089716Y-85529243D01*
X98092039Y-85534224D01*
X98092039Y-85534225D01*
X98184151Y-85731762D01*
X98184154Y-85731767D01*
X98186477Y-85736749D01*
X98317802Y-85924300D01*
X98479700Y-86086198D01*
X98484208Y-86089355D01*
X98484211Y-86089357D01*
X98562389Y-86144098D01*
X98667251Y-86217523D01*
X98672233Y-86219846D01*
X98672238Y-86219849D01*
X98706457Y-86235805D01*
X98759742Y-86282722D01*
X98779203Y-86350999D01*
X98758661Y-86418959D01*
X98706457Y-86464195D01*
X98672238Y-86480151D01*
X98672233Y-86480154D01*
X98667251Y-86482477D01*
X98562389Y-86555902D01*
X98484211Y-86610643D01*
X98484208Y-86610645D01*
X98479700Y-86613802D01*
X98317802Y-86775700D01*
X98186477Y-86963251D01*
X98184154Y-86968233D01*
X98184151Y-86968238D01*
X98184034Y-86968489D01*
X98089716Y-87170757D01*
X98088294Y-87176065D01*
X98088293Y-87176067D01*
X98040756Y-87353478D01*
X98030457Y-87391913D01*
X98010502Y-87620000D01*
X98030457Y-87848087D01*
X98089716Y-88069243D01*
X98092039Y-88074224D01*
X98092039Y-88074225D01*
X98184151Y-88271762D01*
X98184154Y-88271767D01*
X98186477Y-88276749D01*
X98317802Y-88464300D01*
X98479700Y-88626198D01*
X98484208Y-88629355D01*
X98484211Y-88629357D01*
X98562389Y-88684098D01*
X98667251Y-88757523D01*
X98672233Y-88759846D01*
X98672238Y-88759849D01*
X98707049Y-88776081D01*
X98760334Y-88822998D01*
X98779795Y-88891275D01*
X98759253Y-88959235D01*
X98707049Y-89004471D01*
X98672489Y-89020586D01*
X98662993Y-89026069D01*
X98484533Y-89151028D01*
X98476125Y-89158084D01*
X98322084Y-89312125D01*
X98315028Y-89320533D01*
X98190069Y-89498993D01*
X98184586Y-89508489D01*
X98092510Y-89705947D01*
X98088764Y-89716239D01*
X98042606Y-89888503D01*
X98042942Y-89902599D01*
X98050884Y-89906000D01*
X100591967Y-89906000D01*
X100605498Y-89902027D01*
X100606727Y-89893478D01*
X100559236Y-89716239D01*
X100555490Y-89705947D01*
X100463414Y-89508489D01*
X100457931Y-89498993D01*
X100332972Y-89320533D01*
X100325916Y-89312125D01*
X100171875Y-89158084D01*
X100163467Y-89151028D01*
X99985007Y-89026069D01*
X99975511Y-89020586D01*
X99940951Y-89004471D01*
X99887666Y-88957554D01*
X99868205Y-88889277D01*
X99888747Y-88821317D01*
X99940951Y-88776081D01*
X99975762Y-88759849D01*
X99975767Y-88759846D01*
X99980749Y-88757523D01*
X100085611Y-88684098D01*
X100163789Y-88629357D01*
X100163792Y-88629355D01*
X100168300Y-88626198D01*
X100330198Y-88464300D01*
X100461523Y-88276749D01*
X100463846Y-88271767D01*
X100463849Y-88271762D01*
X100555961Y-88074225D01*
X100555961Y-88074224D01*
X100558284Y-88069243D01*
X100617543Y-87848087D01*
X100637498Y-87620000D01*
X100617543Y-87391913D01*
X100607244Y-87353478D01*
X100559707Y-87176067D01*
X100559706Y-87176065D01*
X100558284Y-87170757D01*
X100463966Y-86968489D01*
X100463849Y-86968238D01*
X100463846Y-86968233D01*
X100461523Y-86963251D01*
X100330198Y-86775700D01*
X100168300Y-86613802D01*
X100163792Y-86610645D01*
X100163789Y-86610643D01*
X100085611Y-86555902D01*
X99980749Y-86482477D01*
X99975767Y-86480154D01*
X99975762Y-86480151D01*
X99941543Y-86464195D01*
X99888258Y-86417278D01*
X99868797Y-86349001D01*
X99889339Y-86281041D01*
X99941543Y-86235805D01*
X99975762Y-86219849D01*
X99975767Y-86219846D01*
X99980749Y-86217523D01*
X100085611Y-86144098D01*
X100163789Y-86089357D01*
X100163792Y-86089355D01*
X100168300Y-86086198D01*
X100330198Y-85924300D01*
X100461523Y-85736749D01*
X100463846Y-85731767D01*
X100463849Y-85731762D01*
X100555961Y-85534225D01*
X100555961Y-85534224D01*
X100558284Y-85529243D01*
X100606970Y-85347548D01*
X100607245Y-85346522D01*
X105661273Y-85346522D01*
X105708764Y-85523761D01*
X105712510Y-85534053D01*
X105804586Y-85731511D01*
X105810069Y-85741007D01*
X105935028Y-85919467D01*
X105942084Y-85927875D01*
X106096125Y-86081916D01*
X106104533Y-86088972D01*
X106282993Y-86213931D01*
X106292489Y-86219414D01*
X106327641Y-86235805D01*
X106380926Y-86282722D01*
X106400387Y-86350999D01*
X106379845Y-86418959D01*
X106327641Y-86464195D01*
X106292489Y-86480586D01*
X106282993Y-86486069D01*
X106104533Y-86611028D01*
X106096125Y-86618084D01*
X105942084Y-86772125D01*
X105935028Y-86780533D01*
X105810069Y-86958993D01*
X105804586Y-86968489D01*
X105712510Y-87165947D01*
X105708764Y-87176239D01*
X105662606Y-87348503D01*
X105662942Y-87362599D01*
X105670884Y-87366000D01*
X106671885Y-87366000D01*
X106687124Y-87361525D01*
X106688329Y-87360135D01*
X106690000Y-87352452D01*
X106690000Y-87347885D01*
X107198000Y-87347885D01*
X107202475Y-87363124D01*
X107203865Y-87364329D01*
X107211548Y-87366000D01*
X108211967Y-87366000D01*
X108225498Y-87362027D01*
X108226727Y-87353478D01*
X108179236Y-87176239D01*
X108175490Y-87165947D01*
X108083414Y-86968489D01*
X108077931Y-86958993D01*
X107952972Y-86780533D01*
X107945916Y-86772125D01*
X107791875Y-86618084D01*
X107783467Y-86611028D01*
X107605007Y-86486069D01*
X107595511Y-86480586D01*
X107560359Y-86464195D01*
X107507074Y-86417278D01*
X107487613Y-86349001D01*
X107508155Y-86281041D01*
X107560359Y-86235805D01*
X107595511Y-86219414D01*
X107605007Y-86213931D01*
X107783467Y-86088972D01*
X107791875Y-86081916D01*
X107945916Y-85927875D01*
X107952972Y-85919467D01*
X108077931Y-85741007D01*
X108083414Y-85731511D01*
X108175490Y-85534053D01*
X108179236Y-85523761D01*
X108225394Y-85351497D01*
X108225058Y-85337401D01*
X108217116Y-85334000D01*
X107216115Y-85334000D01*
X107200876Y-85338475D01*
X107199671Y-85339865D01*
X107198000Y-85347548D01*
X107198000Y-87347885D01*
X106690000Y-87347885D01*
X106690000Y-85352115D01*
X106685525Y-85336876D01*
X106684135Y-85335671D01*
X106676452Y-85334000D01*
X105676033Y-85334000D01*
X105662502Y-85337973D01*
X105661273Y-85346522D01*
X100607245Y-85346522D01*
X100616119Y-85313402D01*
X100616119Y-85313400D01*
X100617543Y-85308087D01*
X100637498Y-85080000D01*
X100617543Y-84851913D01*
X100616119Y-84846598D01*
X100616118Y-84846591D01*
X100600541Y-84788459D01*
X100602230Y-84717483D01*
X100633152Y-84666752D01*
X102493382Y-82806522D01*
X105661273Y-82806522D01*
X105708764Y-82983761D01*
X105712510Y-82994053D01*
X105804586Y-83191511D01*
X105810069Y-83201007D01*
X105935028Y-83379467D01*
X105942084Y-83387875D01*
X106096125Y-83541916D01*
X106104532Y-83548971D01*
X106282993Y-83673931D01*
X106292489Y-83679414D01*
X106327641Y-83695805D01*
X106380926Y-83742722D01*
X106400387Y-83810999D01*
X106379845Y-83878959D01*
X106327641Y-83924195D01*
X106292489Y-83940586D01*
X106282993Y-83946069D01*
X106104533Y-84071028D01*
X106096125Y-84078084D01*
X105942084Y-84232125D01*
X105935028Y-84240533D01*
X105810069Y-84418993D01*
X105804586Y-84428489D01*
X105712510Y-84625947D01*
X105708764Y-84636239D01*
X105662606Y-84808503D01*
X105662942Y-84822599D01*
X105670884Y-84826000D01*
X106671885Y-84826000D01*
X106687124Y-84821525D01*
X106688329Y-84820135D01*
X106690000Y-84812452D01*
X106690000Y-84807885D01*
X107198000Y-84807885D01*
X107202475Y-84823124D01*
X107203865Y-84824329D01*
X107211548Y-84826000D01*
X108211967Y-84826000D01*
X108225498Y-84822027D01*
X108226727Y-84813478D01*
X108179236Y-84636239D01*
X108175490Y-84625947D01*
X108083414Y-84428489D01*
X108077931Y-84418993D01*
X108063275Y-84398062D01*
X122443606Y-84398062D01*
X122452902Y-84410077D01*
X122504107Y-84445931D01*
X122513602Y-84451414D01*
X122711060Y-84543490D01*
X122721352Y-84547236D01*
X122931801Y-84603625D01*
X122942594Y-84605528D01*
X123159638Y-84624517D01*
X123170588Y-84624517D01*
X123387632Y-84605528D01*
X123398425Y-84603625D01*
X123608874Y-84547236D01*
X123619166Y-84543490D01*
X123816624Y-84451414D01*
X123826119Y-84445931D01*
X123878161Y-84409491D01*
X123886537Y-84399012D01*
X123879469Y-84385566D01*
X123177925Y-83684022D01*
X123163981Y-83676408D01*
X123162148Y-83676539D01*
X123155533Y-83680790D01*
X122450036Y-84386287D01*
X122443606Y-84398062D01*
X108063275Y-84398062D01*
X107952972Y-84240533D01*
X107945916Y-84232125D01*
X107791875Y-84078084D01*
X107783467Y-84071028D01*
X107605007Y-83946069D01*
X107595511Y-83940586D01*
X107560359Y-83924195D01*
X107507074Y-83877278D01*
X107487613Y-83809001D01*
X107508155Y-83741041D01*
X107560359Y-83695805D01*
X107595511Y-83679414D01*
X107605007Y-83673931D01*
X107783468Y-83548971D01*
X107791875Y-83541916D01*
X107945916Y-83387875D01*
X107952972Y-83379467D01*
X107996379Y-83317475D01*
X121852596Y-83317475D01*
X121871585Y-83534519D01*
X121873488Y-83545312D01*
X121929877Y-83755761D01*
X121933623Y-83766053D01*
X122025699Y-83963511D01*
X122031182Y-83973006D01*
X122067622Y-84025048D01*
X122078101Y-84033424D01*
X122091547Y-84026356D01*
X122793091Y-83324812D01*
X122800705Y-83310868D01*
X122800574Y-83309035D01*
X122796323Y-83302420D01*
X122090826Y-82596923D01*
X122079051Y-82590493D01*
X122067036Y-82599789D01*
X122031182Y-82650994D01*
X122025699Y-82660489D01*
X121933623Y-82857947D01*
X121929877Y-82868239D01*
X121873488Y-83078688D01*
X121871585Y-83089481D01*
X121852596Y-83306525D01*
X121852596Y-83317475D01*
X107996379Y-83317475D01*
X108077931Y-83201007D01*
X108083414Y-83191511D01*
X108175490Y-82994053D01*
X108179236Y-82983761D01*
X108225394Y-82811497D01*
X108225058Y-82797401D01*
X108217116Y-82794000D01*
X107216115Y-82794000D01*
X107200876Y-82798475D01*
X107199671Y-82799865D01*
X107198000Y-82807548D01*
X107198000Y-84807885D01*
X106690000Y-84807885D01*
X106690000Y-82812115D01*
X106685525Y-82796876D01*
X106684135Y-82795671D01*
X106676452Y-82794000D01*
X105676033Y-82794000D01*
X105662502Y-82797973D01*
X105661273Y-82806522D01*
X102493382Y-82806522D01*
X104532247Y-80767657D01*
X104540537Y-80760113D01*
X104547018Y-80756000D01*
X104593659Y-80706332D01*
X104596413Y-80703491D01*
X104616135Y-80683769D01*
X104618612Y-80680576D01*
X104626317Y-80671555D01*
X104641523Y-80655362D01*
X104656586Y-80639321D01*
X104660577Y-80632062D01*
X104666346Y-80621568D01*
X104677202Y-80605041D01*
X104684757Y-80595302D01*
X104684758Y-80595300D01*
X104689614Y-80589040D01*
X104707174Y-80548460D01*
X104712391Y-80537812D01*
X104729875Y-80506009D01*
X104729876Y-80506007D01*
X104733695Y-80499060D01*
X104738733Y-80479437D01*
X104745137Y-80460734D01*
X104750033Y-80449420D01*
X104750033Y-80449419D01*
X104753181Y-80442145D01*
X104754420Y-80434322D01*
X104754423Y-80434312D01*
X104760099Y-80398476D01*
X104762505Y-80386856D01*
X104771528Y-80351711D01*
X104771528Y-80351710D01*
X104773500Y-80344030D01*
X104773500Y-80323776D01*
X104775051Y-80304065D01*
X104776980Y-80291886D01*
X104778220Y-80284057D01*
X104776562Y-80266522D01*
X105661273Y-80266522D01*
X105708764Y-80443761D01*
X105712510Y-80454053D01*
X105804586Y-80651511D01*
X105810069Y-80661007D01*
X105935028Y-80839467D01*
X105942084Y-80847875D01*
X106096125Y-81001916D01*
X106104533Y-81008972D01*
X106282993Y-81133931D01*
X106292489Y-81139414D01*
X106327641Y-81155805D01*
X106380926Y-81202722D01*
X106400387Y-81270999D01*
X106379845Y-81338959D01*
X106327641Y-81384195D01*
X106292489Y-81400586D01*
X106282993Y-81406069D01*
X106104533Y-81531028D01*
X106096125Y-81538084D01*
X105942084Y-81692125D01*
X105935028Y-81700533D01*
X105810069Y-81878993D01*
X105804586Y-81888489D01*
X105712510Y-82085947D01*
X105708764Y-82096239D01*
X105662606Y-82268503D01*
X105662942Y-82282599D01*
X105670884Y-82286000D01*
X106671885Y-82286000D01*
X106687124Y-82281525D01*
X106688329Y-82280135D01*
X106690000Y-82272452D01*
X106690000Y-82267885D01*
X107198000Y-82267885D01*
X107202475Y-82283124D01*
X107203865Y-82284329D01*
X107211548Y-82286000D01*
X108211967Y-82286000D01*
X108225498Y-82282027D01*
X108226727Y-82273478D01*
X108213734Y-82224988D01*
X122443689Y-82224988D01*
X122450757Y-82238434D01*
X123152301Y-82939978D01*
X123166245Y-82947592D01*
X123168078Y-82947461D01*
X123174693Y-82943210D01*
X123880190Y-82237713D01*
X123886620Y-82225938D01*
X123877324Y-82213923D01*
X123826119Y-82178069D01*
X123816624Y-82172586D01*
X123619166Y-82080510D01*
X123608874Y-82076764D01*
X123398425Y-82020375D01*
X123387632Y-82018472D01*
X123170588Y-81999483D01*
X123159638Y-81999483D01*
X122942594Y-82018472D01*
X122931801Y-82020375D01*
X122721352Y-82076764D01*
X122711060Y-82080510D01*
X122513602Y-82172586D01*
X122504107Y-82178069D01*
X122452065Y-82214509D01*
X122443689Y-82224988D01*
X108213734Y-82224988D01*
X108179236Y-82096239D01*
X108175490Y-82085947D01*
X108083414Y-81888489D01*
X108077931Y-81878993D01*
X107952972Y-81700533D01*
X107945916Y-81692125D01*
X107791875Y-81538084D01*
X107783467Y-81531028D01*
X107605007Y-81406069D01*
X107595511Y-81400586D01*
X107560359Y-81384195D01*
X107507074Y-81337278D01*
X107487613Y-81269001D01*
X107508155Y-81201041D01*
X107560359Y-81155805D01*
X107595511Y-81139414D01*
X107605007Y-81133931D01*
X107783467Y-81008972D01*
X107791875Y-81001916D01*
X107945916Y-80847875D01*
X107952972Y-80839467D01*
X108077931Y-80661007D01*
X108083414Y-80651511D01*
X108175490Y-80454053D01*
X108179236Y-80443761D01*
X108225394Y-80271497D01*
X108225058Y-80257401D01*
X108217116Y-80254000D01*
X107216115Y-80254000D01*
X107200876Y-80258475D01*
X107199671Y-80259865D01*
X107198000Y-80267548D01*
X107198000Y-82267885D01*
X106690000Y-82267885D01*
X106690000Y-80272115D01*
X106685525Y-80256876D01*
X106684135Y-80255671D01*
X106676452Y-80254000D01*
X105676033Y-80254000D01*
X105662502Y-80257973D01*
X105661273Y-80266522D01*
X104776562Y-80266522D01*
X104774059Y-80240038D01*
X104773500Y-80228181D01*
X104773500Y-77726522D01*
X105661273Y-77726522D01*
X105708764Y-77903761D01*
X105712510Y-77914053D01*
X105804586Y-78111511D01*
X105810069Y-78121007D01*
X105935028Y-78299467D01*
X105942084Y-78307875D01*
X106096125Y-78461916D01*
X106104533Y-78468972D01*
X106282993Y-78593931D01*
X106292489Y-78599414D01*
X106327641Y-78615805D01*
X106380926Y-78662722D01*
X106400387Y-78730999D01*
X106379845Y-78798959D01*
X106327641Y-78844195D01*
X106292489Y-78860586D01*
X106282993Y-78866069D01*
X106104533Y-78991028D01*
X106096125Y-78998084D01*
X105942084Y-79152125D01*
X105935028Y-79160533D01*
X105810069Y-79338993D01*
X105804586Y-79348489D01*
X105712510Y-79545947D01*
X105708764Y-79556239D01*
X105662606Y-79728503D01*
X105662942Y-79742599D01*
X105670884Y-79746000D01*
X106671885Y-79746000D01*
X106687124Y-79741525D01*
X106688329Y-79740135D01*
X106690000Y-79732452D01*
X106690000Y-79727885D01*
X107198000Y-79727885D01*
X107202475Y-79743124D01*
X107203865Y-79744329D01*
X107211548Y-79746000D01*
X108211967Y-79746000D01*
X108225498Y-79742027D01*
X108226727Y-79733478D01*
X108179236Y-79556239D01*
X108175490Y-79545947D01*
X108083414Y-79348489D01*
X108077931Y-79338993D01*
X107952972Y-79160533D01*
X107945916Y-79152125D01*
X107791875Y-78998084D01*
X107783467Y-78991028D01*
X107605007Y-78866069D01*
X107595511Y-78860586D01*
X107560359Y-78844195D01*
X107507074Y-78797278D01*
X107487613Y-78729001D01*
X107508155Y-78661041D01*
X107560359Y-78615805D01*
X107595511Y-78599414D01*
X107605007Y-78593931D01*
X107783467Y-78468972D01*
X107791875Y-78461916D01*
X107945916Y-78307875D01*
X107952972Y-78299467D01*
X108077931Y-78121007D01*
X108083414Y-78111511D01*
X108175490Y-77914053D01*
X108179236Y-77903761D01*
X108225394Y-77731497D01*
X108225058Y-77717401D01*
X108217116Y-77714000D01*
X107216115Y-77714000D01*
X107200876Y-77718475D01*
X107199671Y-77719865D01*
X107198000Y-77727548D01*
X107198000Y-79727885D01*
X106690000Y-79727885D01*
X106690000Y-77732115D01*
X106685525Y-77716876D01*
X106684135Y-77715671D01*
X106676452Y-77714000D01*
X105676033Y-77714000D01*
X105662502Y-77717973D01*
X105661273Y-77726522D01*
X104773500Y-77726522D01*
X104773500Y-73139500D01*
X104793502Y-73071379D01*
X104847158Y-73024886D01*
X104899500Y-73013500D01*
X105724606Y-73013500D01*
X105792727Y-73033502D01*
X105827819Y-73067229D01*
X105878424Y-73139500D01*
X105937802Y-73224300D01*
X106099700Y-73386198D01*
X106104208Y-73389355D01*
X106104211Y-73389357D01*
X106157550Y-73426705D01*
X106287251Y-73517523D01*
X106292233Y-73519846D01*
X106292238Y-73519849D01*
X106326457Y-73535805D01*
X106379742Y-73582722D01*
X106399203Y-73650999D01*
X106378661Y-73718959D01*
X106326457Y-73764195D01*
X106292238Y-73780151D01*
X106292233Y-73780154D01*
X106287251Y-73782477D01*
X106182389Y-73855902D01*
X106104211Y-73910643D01*
X106104208Y-73910645D01*
X106099700Y-73913802D01*
X105937802Y-74075700D01*
X105934645Y-74080208D01*
X105934643Y-74080211D01*
X105914648Y-74108767D01*
X105806477Y-74263251D01*
X105804154Y-74268233D01*
X105804151Y-74268238D01*
X105733173Y-74420453D01*
X105709716Y-74470757D01*
X105708294Y-74476065D01*
X105708293Y-74476067D01*
X105651881Y-74686598D01*
X105650457Y-74691913D01*
X105630502Y-74920000D01*
X105650457Y-75148087D01*
X105651881Y-75153400D01*
X105651881Y-75153402D01*
X105697004Y-75321800D01*
X105709716Y-75369243D01*
X105712039Y-75374224D01*
X105712039Y-75374225D01*
X105804151Y-75571762D01*
X105804154Y-75571767D01*
X105806477Y-75576749D01*
X105937802Y-75764300D01*
X106099700Y-75926198D01*
X106104208Y-75929355D01*
X106104211Y-75929357D01*
X106174552Y-75978610D01*
X106287251Y-76057523D01*
X106292233Y-76059846D01*
X106292238Y-76059849D01*
X106327049Y-76076081D01*
X106380334Y-76122998D01*
X106399795Y-76191275D01*
X106379253Y-76259235D01*
X106327049Y-76304471D01*
X106292489Y-76320586D01*
X106282993Y-76326069D01*
X106104533Y-76451028D01*
X106096125Y-76458084D01*
X105942084Y-76612125D01*
X105935028Y-76620533D01*
X105810069Y-76798993D01*
X105804586Y-76808489D01*
X105712510Y-77005947D01*
X105708764Y-77016239D01*
X105662606Y-77188503D01*
X105662942Y-77202599D01*
X105670884Y-77206000D01*
X108211967Y-77206000D01*
X108225498Y-77202027D01*
X108226727Y-77193478D01*
X108179236Y-77016239D01*
X108175490Y-77005947D01*
X108083414Y-76808489D01*
X108077931Y-76798993D01*
X107952972Y-76620533D01*
X107945916Y-76612125D01*
X107791875Y-76458084D01*
X107783467Y-76451028D01*
X107605007Y-76326069D01*
X107595511Y-76320586D01*
X107560951Y-76304471D01*
X107507666Y-76257554D01*
X107488205Y-76189277D01*
X107508747Y-76121317D01*
X107560951Y-76076081D01*
X107595762Y-76059849D01*
X107595767Y-76059846D01*
X107600749Y-76057523D01*
X107713448Y-75978610D01*
X107783789Y-75929357D01*
X107783792Y-75929355D01*
X107788300Y-75926198D01*
X107950198Y-75764300D01*
X108081523Y-75576749D01*
X108083846Y-75571767D01*
X108083849Y-75571762D01*
X108146223Y-75438000D01*
X115018502Y-75438000D01*
X115038457Y-75666087D01*
X115039881Y-75671400D01*
X115039881Y-75671402D01*
X115078249Y-75814590D01*
X115097716Y-75887243D01*
X115100039Y-75892224D01*
X115100039Y-75892225D01*
X115192151Y-76089762D01*
X115192154Y-76089767D01*
X115194477Y-76094749D01*
X115236164Y-76154284D01*
X115309652Y-76259235D01*
X115325802Y-76282300D01*
X115487700Y-76444198D01*
X115492208Y-76447355D01*
X115492211Y-76447357D01*
X115506504Y-76457365D01*
X115675251Y-76575523D01*
X115680233Y-76577846D01*
X115680238Y-76577849D01*
X115810407Y-76638547D01*
X115882757Y-76672284D01*
X115888065Y-76673706D01*
X115888067Y-76673707D01*
X116098598Y-76730119D01*
X116098600Y-76730119D01*
X116103913Y-76731543D01*
X116332000Y-76751498D01*
X116560087Y-76731543D01*
X116565400Y-76730119D01*
X116565402Y-76730119D01*
X116775933Y-76673707D01*
X116775935Y-76673706D01*
X116781243Y-76672284D01*
X116853593Y-76638547D01*
X116983762Y-76577849D01*
X116983767Y-76577846D01*
X116988749Y-76575523D01*
X117157496Y-76457365D01*
X117171789Y-76447357D01*
X117171792Y-76447355D01*
X117176300Y-76444198D01*
X117338198Y-76282300D01*
X117354349Y-76259235D01*
X117427836Y-76154284D01*
X117469523Y-76094749D01*
X117471846Y-76089767D01*
X117471849Y-76089762D01*
X117563961Y-75892225D01*
X117563961Y-75892224D01*
X117566284Y-75887243D01*
X117585752Y-75814590D01*
X117624119Y-75671402D01*
X117624119Y-75671400D01*
X117625543Y-75666087D01*
X117645498Y-75438000D01*
X118828502Y-75438000D01*
X118848457Y-75666087D01*
X118849881Y-75671400D01*
X118849881Y-75671402D01*
X118888249Y-75814590D01*
X118907716Y-75887243D01*
X118910039Y-75892224D01*
X118910039Y-75892225D01*
X119002151Y-76089762D01*
X119002154Y-76089767D01*
X119004477Y-76094749D01*
X119046164Y-76154284D01*
X119119652Y-76259235D01*
X119135802Y-76282300D01*
X119297700Y-76444198D01*
X119302208Y-76447355D01*
X119302211Y-76447357D01*
X119316504Y-76457365D01*
X119485251Y-76575523D01*
X119490233Y-76577846D01*
X119490238Y-76577849D01*
X119620407Y-76638547D01*
X119692757Y-76672284D01*
X119698065Y-76673706D01*
X119698067Y-76673707D01*
X119908598Y-76730119D01*
X119908600Y-76730119D01*
X119913913Y-76731543D01*
X120142000Y-76751498D01*
X120370087Y-76731543D01*
X120375400Y-76730119D01*
X120375402Y-76730119D01*
X120585933Y-76673707D01*
X120585935Y-76673706D01*
X120591243Y-76672284D01*
X120663593Y-76638547D01*
X120793762Y-76577849D01*
X120793767Y-76577846D01*
X120798749Y-76575523D01*
X120967496Y-76457365D01*
X120981789Y-76447357D01*
X120981792Y-76447355D01*
X120986300Y-76444198D01*
X121148198Y-76282300D01*
X121164349Y-76259235D01*
X121237836Y-76154284D01*
X121279523Y-76094749D01*
X121281846Y-76089767D01*
X121281849Y-76089762D01*
X121373961Y-75892225D01*
X121373961Y-75892224D01*
X121376284Y-75887243D01*
X121395752Y-75814590D01*
X121434119Y-75671402D01*
X121434119Y-75671400D01*
X121435543Y-75666087D01*
X121455498Y-75438000D01*
X121435543Y-75209913D01*
X121432179Y-75197357D01*
X121377707Y-74994067D01*
X121377706Y-74994065D01*
X121376284Y-74988757D01*
X121362022Y-74958171D01*
X121281849Y-74786238D01*
X121281846Y-74786233D01*
X121279523Y-74781251D01*
X121167310Y-74620994D01*
X121151357Y-74598211D01*
X121151355Y-74598208D01*
X121148198Y-74593700D01*
X120986300Y-74431802D01*
X120981792Y-74428645D01*
X120981789Y-74428643D01*
X120821769Y-74316596D01*
X120798749Y-74300477D01*
X120793767Y-74298154D01*
X120793762Y-74298151D01*
X120596225Y-74206039D01*
X120596224Y-74206039D01*
X120591243Y-74203716D01*
X120585935Y-74202294D01*
X120585933Y-74202293D01*
X120375402Y-74145881D01*
X120375400Y-74145881D01*
X120370087Y-74144457D01*
X120142000Y-74124502D01*
X119913913Y-74144457D01*
X119908600Y-74145881D01*
X119908598Y-74145881D01*
X119698067Y-74202293D01*
X119698065Y-74202294D01*
X119692757Y-74203716D01*
X119687776Y-74206039D01*
X119687775Y-74206039D01*
X119490238Y-74298151D01*
X119490233Y-74298154D01*
X119485251Y-74300477D01*
X119462231Y-74316596D01*
X119302211Y-74428643D01*
X119302208Y-74428645D01*
X119297700Y-74431802D01*
X119135802Y-74593700D01*
X119132645Y-74598208D01*
X119132643Y-74598211D01*
X119116690Y-74620994D01*
X119004477Y-74781251D01*
X119002154Y-74786233D01*
X119002151Y-74786238D01*
X118921978Y-74958171D01*
X118907716Y-74988757D01*
X118906294Y-74994065D01*
X118906293Y-74994067D01*
X118851821Y-75197357D01*
X118848457Y-75209913D01*
X118828502Y-75438000D01*
X117645498Y-75438000D01*
X117625543Y-75209913D01*
X117622179Y-75197357D01*
X117567707Y-74994067D01*
X117567706Y-74994065D01*
X117566284Y-74988757D01*
X117552022Y-74958171D01*
X117471849Y-74786238D01*
X117471846Y-74786233D01*
X117469523Y-74781251D01*
X117357310Y-74620994D01*
X117341357Y-74598211D01*
X117341355Y-74598208D01*
X117338198Y-74593700D01*
X117176300Y-74431802D01*
X117171792Y-74428645D01*
X117171789Y-74428643D01*
X117011769Y-74316596D01*
X116988749Y-74300477D01*
X116983767Y-74298154D01*
X116983762Y-74298151D01*
X116786225Y-74206039D01*
X116786224Y-74206039D01*
X116781243Y-74203716D01*
X116775935Y-74202294D01*
X116775933Y-74202293D01*
X116565402Y-74145881D01*
X116565400Y-74145881D01*
X116560087Y-74144457D01*
X116332000Y-74124502D01*
X116103913Y-74144457D01*
X116098600Y-74145881D01*
X116098598Y-74145881D01*
X115888067Y-74202293D01*
X115888065Y-74202294D01*
X115882757Y-74203716D01*
X115877776Y-74206039D01*
X115877775Y-74206039D01*
X115680238Y-74298151D01*
X115680233Y-74298154D01*
X115675251Y-74300477D01*
X115652231Y-74316596D01*
X115492211Y-74428643D01*
X115492208Y-74428645D01*
X115487700Y-74431802D01*
X115325802Y-74593700D01*
X115322645Y-74598208D01*
X115322643Y-74598211D01*
X115306690Y-74620994D01*
X115194477Y-74781251D01*
X115192154Y-74786233D01*
X115192151Y-74786238D01*
X115111978Y-74958171D01*
X115097716Y-74988757D01*
X115096294Y-74994065D01*
X115096293Y-74994067D01*
X115041821Y-75197357D01*
X115038457Y-75209913D01*
X115018502Y-75438000D01*
X108146223Y-75438000D01*
X108175961Y-75374225D01*
X108175961Y-75374224D01*
X108178284Y-75369243D01*
X108190997Y-75321800D01*
X108236119Y-75153402D01*
X108236119Y-75153400D01*
X108237543Y-75148087D01*
X108257498Y-74920000D01*
X108237543Y-74691913D01*
X108236119Y-74686598D01*
X108179707Y-74476067D01*
X108179706Y-74476065D01*
X108178284Y-74470757D01*
X108154827Y-74420453D01*
X108083849Y-74268238D01*
X108083846Y-74268233D01*
X108081523Y-74263251D01*
X107973352Y-74108767D01*
X107953357Y-74080211D01*
X107953355Y-74080208D01*
X107950198Y-74075700D01*
X107788300Y-73913802D01*
X107783792Y-73910645D01*
X107783789Y-73910643D01*
X107705611Y-73855902D01*
X107600749Y-73782477D01*
X107595767Y-73780154D01*
X107595762Y-73780151D01*
X107561543Y-73764195D01*
X107508258Y-73717278D01*
X107488797Y-73649001D01*
X107509339Y-73581041D01*
X107561543Y-73535805D01*
X107595762Y-73519849D01*
X107595767Y-73519846D01*
X107600749Y-73517523D01*
X107730450Y-73426705D01*
X107783789Y-73389357D01*
X107783792Y-73389355D01*
X107788300Y-73386198D01*
X107950198Y-73224300D01*
X108009576Y-73139500D01*
X108060181Y-73067229D01*
X108115638Y-73022901D01*
X108163394Y-73013500D01*
X124208500Y-73013500D01*
X124276621Y-73033502D01*
X124323114Y-73087158D01*
X124334500Y-73139500D01*
X124334500Y-74597233D01*
X124333973Y-74608416D01*
X124332298Y-74615909D01*
X124332547Y-74623835D01*
X124332547Y-74623836D01*
X124334438Y-74683986D01*
X124334500Y-74687945D01*
X124334500Y-74715856D01*
X124334997Y-74719790D01*
X124334997Y-74719791D01*
X124335005Y-74719856D01*
X124335938Y-74731693D01*
X124337327Y-74775889D01*
X124340334Y-74786238D01*
X124342978Y-74795339D01*
X124346987Y-74814700D01*
X124349526Y-74834797D01*
X124352445Y-74842168D01*
X124352445Y-74842170D01*
X124365804Y-74875912D01*
X124369649Y-74887142D01*
X124381982Y-74929593D01*
X124386015Y-74936412D01*
X124386017Y-74936417D01*
X124392293Y-74947028D01*
X124400988Y-74964776D01*
X124408448Y-74983617D01*
X124413110Y-74990033D01*
X124413110Y-74990034D01*
X124434436Y-75019387D01*
X124440952Y-75029307D01*
X124463458Y-75067362D01*
X124477779Y-75081683D01*
X124490619Y-75096716D01*
X124502528Y-75113107D01*
X124508632Y-75118157D01*
X124508637Y-75118162D01*
X124536598Y-75141293D01*
X124545379Y-75149283D01*
X125313596Y-75917501D01*
X125347621Y-75979813D01*
X125350500Y-76006596D01*
X125350500Y-81877500D01*
X125330498Y-81945621D01*
X125276842Y-81992114D01*
X125224500Y-82003500D01*
X124816979Y-82003500D01*
X124754797Y-82010255D01*
X124618408Y-82061385D01*
X124501852Y-82148739D01*
X124414498Y-82265295D01*
X124363368Y-82401684D01*
X124361255Y-82421136D01*
X124358262Y-82448691D01*
X124356613Y-82463866D01*
X124356613Y-82467185D01*
X124332960Y-82534110D01*
X124286957Y-82569804D01*
X124287972Y-82571734D01*
X124277113Y-82577442D01*
X124276868Y-82577632D01*
X124276710Y-82577653D01*
X124238679Y-82597644D01*
X123537135Y-83299188D01*
X123529521Y-83313132D01*
X123529652Y-83314965D01*
X123533903Y-83321580D01*
X124239400Y-84027077D01*
X124281142Y-84049871D01*
X124291142Y-84052047D01*
X124341340Y-84102253D01*
X124356564Y-84155814D01*
X124356613Y-84156717D01*
X124356613Y-84160134D01*
X124363368Y-84222316D01*
X124414498Y-84358705D01*
X124501852Y-84475261D01*
X124618408Y-84562615D01*
X124754797Y-84613745D01*
X124816979Y-84620500D01*
X126513247Y-84620500D01*
X126575429Y-84613745D01*
X126711818Y-84562615D01*
X126828374Y-84475261D01*
X126915728Y-84358705D01*
X126966858Y-84222316D01*
X126973613Y-84160134D01*
X126973613Y-84071500D01*
X126993615Y-84003379D01*
X127047271Y-83956886D01*
X127099613Y-83945500D01*
X132781406Y-83945500D01*
X132849527Y-83965502D01*
X132870501Y-83982405D01*
X132933595Y-84045499D01*
X132967621Y-84107811D01*
X132970500Y-84134594D01*
X132970500Y-89601405D01*
X132950498Y-89669526D01*
X132933595Y-89690500D01*
X132838500Y-89785595D01*
X132776188Y-89819621D01*
X132749405Y-89822500D01*
X130879807Y-89822500D01*
X130811686Y-89802498D01*
X130777037Y-89769399D01*
X130751416Y-89733280D01*
X130751413Y-89733276D01*
X130747946Y-89728389D01*
X130621390Y-89607238D01*
X130599480Y-89586264D01*
X130595150Y-89582119D01*
X130417452Y-89467380D01*
X130357354Y-89443160D01*
X130226832Y-89390558D01*
X130226829Y-89390557D01*
X130221263Y-89388314D01*
X130013663Y-89347772D01*
X130008101Y-89347500D01*
X129302154Y-89347500D01*
X129144434Y-89362548D01*
X128941466Y-89422092D01*
X128936139Y-89424836D01*
X128936138Y-89424836D01*
X128758751Y-89516196D01*
X128758748Y-89516198D01*
X128753420Y-89518942D01*
X128587080Y-89649604D01*
X128583148Y-89654135D01*
X128583145Y-89654138D01*
X128483127Y-89769399D01*
X128448448Y-89809363D01*
X128445448Y-89814549D01*
X128445445Y-89814553D01*
X128374381Y-89937393D01*
X128342527Y-89992454D01*
X128273139Y-90192271D01*
X128272278Y-90198206D01*
X128272278Y-90198208D01*
X128252333Y-90335770D01*
X128242787Y-90401604D01*
X128252567Y-90612899D01*
X128302125Y-90818534D01*
X128389674Y-91011087D01*
X128441723Y-91084462D01*
X128498059Y-91163881D01*
X128512054Y-91183611D01*
X128664850Y-91329881D01*
X128669888Y-91333134D01*
X128697163Y-91350746D01*
X128743540Y-91404501D01*
X128753493Y-91474797D01*
X128723861Y-91539314D01*
X128706649Y-91555681D01*
X128587080Y-91649604D01*
X128474725Y-91779082D01*
X128414973Y-91817421D01*
X128379561Y-91822500D01*
X124155394Y-91822500D01*
X124087273Y-91802498D01*
X124052181Y-91768771D01*
X123945357Y-91616211D01*
X123945355Y-91616208D01*
X123942198Y-91611700D01*
X123780300Y-91449802D01*
X123775792Y-91446645D01*
X123775789Y-91446643D01*
X123646790Y-91356317D01*
X123592749Y-91318477D01*
X123587767Y-91316154D01*
X123587762Y-91316151D01*
X123390225Y-91224039D01*
X123390224Y-91224039D01*
X123385243Y-91221716D01*
X123379935Y-91220294D01*
X123379933Y-91220293D01*
X123169402Y-91163881D01*
X123169400Y-91163881D01*
X123164087Y-91162457D01*
X122936000Y-91142502D01*
X122707913Y-91162457D01*
X122702600Y-91163881D01*
X122702598Y-91163881D01*
X122492067Y-91220293D01*
X122492065Y-91220294D01*
X122486757Y-91221716D01*
X122481776Y-91224039D01*
X122481775Y-91224039D01*
X122284238Y-91316151D01*
X122284233Y-91316154D01*
X122279251Y-91318477D01*
X122225210Y-91356317D01*
X122096211Y-91446643D01*
X122096208Y-91446645D01*
X122091700Y-91449802D01*
X121929802Y-91611700D01*
X121798477Y-91799251D01*
X121796154Y-91804233D01*
X121796151Y-91804238D01*
X121748528Y-91906368D01*
X121701716Y-92006757D01*
X121700294Y-92012065D01*
X121700293Y-92012067D01*
X121643883Y-92222591D01*
X121642457Y-92227913D01*
X121622502Y-92456000D01*
X121642457Y-92684087D01*
X121701716Y-92905243D01*
X121704039Y-92910224D01*
X121704039Y-92910225D01*
X121796151Y-93107762D01*
X121796154Y-93107767D01*
X121798477Y-93112749D01*
X121844671Y-93178720D01*
X121912202Y-93275164D01*
X121929802Y-93300300D01*
X122091700Y-93462198D01*
X122096208Y-93465355D01*
X122096211Y-93465357D01*
X122107592Y-93473326D01*
X122279251Y-93593523D01*
X122284233Y-93595846D01*
X122284238Y-93595849D01*
X122481775Y-93687961D01*
X122486757Y-93690284D01*
X122492065Y-93691706D01*
X122492067Y-93691707D01*
X122702598Y-93748119D01*
X122702600Y-93748119D01*
X122707913Y-93749543D01*
X122936000Y-93769498D01*
X123164087Y-93749543D01*
X123169400Y-93748119D01*
X123169402Y-93748119D01*
X123379933Y-93691707D01*
X123379935Y-93691706D01*
X123385243Y-93690284D01*
X123390225Y-93687961D01*
X123587762Y-93595849D01*
X123587767Y-93595846D01*
X123592749Y-93593523D01*
X123764408Y-93473326D01*
X123775789Y-93465357D01*
X123775792Y-93465355D01*
X123780300Y-93462198D01*
X123942198Y-93300300D01*
X123951310Y-93287287D01*
X124052181Y-93143229D01*
X124107638Y-93098901D01*
X124155394Y-93089500D01*
X128380193Y-93089500D01*
X128448314Y-93109502D01*
X128482963Y-93142601D01*
X128508584Y-93178720D01*
X128508587Y-93178724D01*
X128512054Y-93183611D01*
X128516377Y-93187749D01*
X128516381Y-93187754D01*
X128607691Y-93275164D01*
X128643067Y-93336720D01*
X128639548Y-93407629D01*
X128598251Y-93465379D01*
X128586863Y-93473326D01*
X128537193Y-93504063D01*
X128525792Y-93513099D01*
X128411261Y-93627829D01*
X128402249Y-93639240D01*
X128317184Y-93777243D01*
X128311037Y-93790424D01*
X128259862Y-93944710D01*
X128256995Y-93958086D01*
X128247328Y-94052438D01*
X128247000Y-94058855D01*
X128247000Y-94183885D01*
X128251475Y-94199124D01*
X128252865Y-94200329D01*
X128260548Y-94202000D01*
X130994884Y-94202000D01*
X131010123Y-94197525D01*
X131011328Y-94196135D01*
X131012999Y-94188452D01*
X131012999Y-94058905D01*
X131012662Y-94052386D01*
X131002743Y-93956794D01*
X130999851Y-93943400D01*
X130948412Y-93789216D01*
X130942239Y-93776038D01*
X130856937Y-93638193D01*
X130847901Y-93626792D01*
X130733171Y-93512261D01*
X130721760Y-93503249D01*
X130676345Y-93475255D01*
X130628852Y-93422483D01*
X130617428Y-93352411D01*
X130645702Y-93287287D01*
X130664625Y-93268912D01*
X130672920Y-93262396D01*
X130676852Y-93257865D01*
X130676855Y-93257862D01*
X130807621Y-93107167D01*
X130811552Y-93102637D01*
X130814552Y-93097451D01*
X130814555Y-93097447D01*
X130914467Y-92924742D01*
X130917473Y-92919546D01*
X130986861Y-92719729D01*
X130992029Y-92684087D01*
X131016352Y-92516336D01*
X131016352Y-92516333D01*
X131017213Y-92510396D01*
X131007433Y-92299101D01*
X130957875Y-92093466D01*
X130916186Y-92001775D01*
X130872806Y-91906368D01*
X130870326Y-91900913D01*
X130747946Y-91728389D01*
X130595150Y-91582119D01*
X130589255Y-91578312D01*
X130562837Y-91561254D01*
X130516460Y-91507499D01*
X130506507Y-91437203D01*
X130536139Y-91372686D01*
X130553353Y-91356317D01*
X130560446Y-91350746D01*
X130672920Y-91262396D01*
X130785275Y-91132918D01*
X130845027Y-91094579D01*
X130880439Y-91089500D01*
X132985233Y-91089500D01*
X132996416Y-91090027D01*
X133003909Y-91091702D01*
X133011835Y-91091453D01*
X133011836Y-91091453D01*
X133071986Y-91089562D01*
X133075945Y-91089500D01*
X133103856Y-91089500D01*
X133107791Y-91089003D01*
X133107856Y-91088995D01*
X133119693Y-91088062D01*
X133151951Y-91087048D01*
X133155970Y-91086922D01*
X133163889Y-91086673D01*
X133183343Y-91081021D01*
X133202700Y-91077013D01*
X133214930Y-91075468D01*
X133214931Y-91075468D01*
X133222797Y-91074474D01*
X133230168Y-91071555D01*
X133230170Y-91071555D01*
X133263912Y-91058196D01*
X133275142Y-91054351D01*
X133309983Y-91044229D01*
X133309984Y-91044229D01*
X133317593Y-91042018D01*
X133324412Y-91037985D01*
X133324417Y-91037983D01*
X133335028Y-91031707D01*
X133352776Y-91023012D01*
X133371617Y-91015552D01*
X133381741Y-91008197D01*
X133407387Y-90989564D01*
X133417307Y-90983048D01*
X133448535Y-90964580D01*
X133448538Y-90964578D01*
X133455362Y-90960542D01*
X133469683Y-90946221D01*
X133484717Y-90933380D01*
X133494694Y-90926131D01*
X133501107Y-90921472D01*
X133529298Y-90887395D01*
X133537288Y-90878616D01*
X133996247Y-90419657D01*
X134004537Y-90412113D01*
X134011018Y-90408000D01*
X134057659Y-90358332D01*
X134060413Y-90355491D01*
X134080134Y-90335770D01*
X134082612Y-90332575D01*
X134090318Y-90323553D01*
X134115158Y-90297101D01*
X134120586Y-90291321D01*
X134130346Y-90273568D01*
X134141199Y-90257045D01*
X134148753Y-90247306D01*
X134153613Y-90241041D01*
X134171176Y-90200457D01*
X134176383Y-90189827D01*
X134197695Y-90151060D01*
X134199666Y-90143383D01*
X134199668Y-90143378D01*
X134202732Y-90131442D01*
X134209138Y-90112730D01*
X134214033Y-90101419D01*
X134217181Y-90094145D01*
X134218421Y-90086317D01*
X134218423Y-90086310D01*
X134224099Y-90050476D01*
X134226505Y-90038856D01*
X134235528Y-90003711D01*
X134235528Y-90003710D01*
X134237500Y-89996030D01*
X134237500Y-89975776D01*
X134239051Y-89956065D01*
X134240980Y-89943886D01*
X134242220Y-89936057D01*
X134238059Y-89892038D01*
X134237500Y-89880181D01*
X134237500Y-83898763D01*
X134238027Y-83887579D01*
X134239701Y-83880091D01*
X134237562Y-83812032D01*
X134237500Y-83808075D01*
X134237500Y-83780144D01*
X134236994Y-83776138D01*
X134236061Y-83764292D01*
X134234922Y-83728037D01*
X134234673Y-83720110D01*
X134229022Y-83700658D01*
X134225014Y-83681306D01*
X134223468Y-83669068D01*
X134223467Y-83669066D01*
X134222474Y-83661203D01*
X134206194Y-83620086D01*
X134202359Y-83608885D01*
X134190018Y-83566406D01*
X134185985Y-83559587D01*
X134185983Y-83559582D01*
X134179707Y-83548971D01*
X134171010Y-83531221D01*
X134163552Y-83512383D01*
X134137571Y-83476623D01*
X134131053Y-83466701D01*
X134112578Y-83435460D01*
X134112574Y-83435455D01*
X134108542Y-83428637D01*
X134094218Y-83414313D01*
X134081376Y-83399278D01*
X134069472Y-83382893D01*
X134035406Y-83354711D01*
X134026627Y-83346722D01*
X133599652Y-82919747D01*
X133592112Y-82911461D01*
X133588000Y-82904982D01*
X133577474Y-82895097D01*
X133538349Y-82858357D01*
X133535507Y-82855602D01*
X133515770Y-82835865D01*
X133512573Y-82833385D01*
X133503551Y-82825680D01*
X133499925Y-82822275D01*
X133471321Y-82795414D01*
X133464375Y-82791595D01*
X133464372Y-82791593D01*
X133453566Y-82785652D01*
X133437047Y-82774801D01*
X133435243Y-82773402D01*
X133421041Y-82762386D01*
X133413772Y-82759241D01*
X133413768Y-82759238D01*
X133380463Y-82744826D01*
X133369813Y-82739609D01*
X133331060Y-82718305D01*
X133311437Y-82713267D01*
X133292734Y-82706863D01*
X133281420Y-82701967D01*
X133281419Y-82701967D01*
X133274145Y-82698819D01*
X133266322Y-82697580D01*
X133266312Y-82697577D01*
X133230476Y-82691901D01*
X133218856Y-82689495D01*
X133183711Y-82680472D01*
X133183710Y-82680472D01*
X133176030Y-82678500D01*
X133155776Y-82678500D01*
X133136065Y-82676949D01*
X133123886Y-82675020D01*
X133116057Y-82673780D01*
X133108165Y-82674526D01*
X133072039Y-82677941D01*
X133060181Y-82678500D01*
X127099613Y-82678500D01*
X127031492Y-82658498D01*
X126984999Y-82604842D01*
X126973613Y-82552500D01*
X126973613Y-82463866D01*
X126966858Y-82401684D01*
X126915728Y-82265295D01*
X126828374Y-82148739D01*
X126800295Y-82127695D01*
X126719000Y-82066767D01*
X126718997Y-82066765D01*
X126711818Y-82061385D01*
X126703417Y-82058236D01*
X126703414Y-82058234D01*
X126699268Y-82056680D01*
X126695757Y-82054042D01*
X126695539Y-82053923D01*
X126695556Y-82053892D01*
X126642504Y-82014037D01*
X126617806Y-81947475D01*
X126617500Y-81938699D01*
X126617500Y-76448188D01*
X126637502Y-76380067D01*
X126691158Y-76333574D01*
X126761432Y-76323470D01*
X126826012Y-76352964D01*
X126832595Y-76359093D01*
X126917700Y-76444198D01*
X126922208Y-76447355D01*
X126922211Y-76447357D01*
X126936504Y-76457365D01*
X127105251Y-76575523D01*
X127110233Y-76577846D01*
X127110238Y-76577849D01*
X127240407Y-76638547D01*
X127312757Y-76672284D01*
X127318065Y-76673706D01*
X127318067Y-76673707D01*
X127528598Y-76730119D01*
X127528600Y-76730119D01*
X127533913Y-76731543D01*
X127762000Y-76751498D01*
X127990087Y-76731543D01*
X127995400Y-76730119D01*
X127995402Y-76730119D01*
X128205933Y-76673707D01*
X128205935Y-76673706D01*
X128211243Y-76672284D01*
X128283593Y-76638547D01*
X128413762Y-76577849D01*
X128413767Y-76577846D01*
X128418749Y-76575523D01*
X128587496Y-76457365D01*
X128601789Y-76447357D01*
X128601792Y-76447355D01*
X128606300Y-76444198D01*
X128768198Y-76282300D01*
X128771357Y-76277789D01*
X128878181Y-76125229D01*
X128933638Y-76080901D01*
X128981394Y-76071500D01*
X130352606Y-76071500D01*
X130420727Y-76091502D01*
X130455819Y-76125229D01*
X130562643Y-76277789D01*
X130565802Y-76282300D01*
X130727700Y-76444198D01*
X130732208Y-76447355D01*
X130732211Y-76447357D01*
X130746504Y-76457365D01*
X130915251Y-76575523D01*
X130920233Y-76577846D01*
X130920238Y-76577849D01*
X131050407Y-76638547D01*
X131122757Y-76672284D01*
X131128065Y-76673706D01*
X131128067Y-76673707D01*
X131338598Y-76730119D01*
X131338600Y-76730119D01*
X131343913Y-76731543D01*
X131572000Y-76751498D01*
X131800087Y-76731543D01*
X131805400Y-76730119D01*
X131805402Y-76730119D01*
X132015933Y-76673707D01*
X132015935Y-76673706D01*
X132021243Y-76672284D01*
X132093593Y-76638547D01*
X132223762Y-76577849D01*
X132223767Y-76577846D01*
X132228749Y-76575523D01*
X132397496Y-76457365D01*
X132411789Y-76447357D01*
X132411792Y-76447355D01*
X132416300Y-76444198D01*
X132578198Y-76282300D01*
X132594349Y-76259235D01*
X132667836Y-76154284D01*
X132709523Y-76094749D01*
X132711846Y-76089767D01*
X132711849Y-76089762D01*
X132803961Y-75892225D01*
X132803961Y-75892224D01*
X132806284Y-75887243D01*
X132825752Y-75814590D01*
X132864119Y-75671402D01*
X132864119Y-75671400D01*
X132865543Y-75666087D01*
X132885498Y-75438000D01*
X132865543Y-75209913D01*
X132862179Y-75197357D01*
X132807707Y-74994067D01*
X132807706Y-74994065D01*
X132806284Y-74988757D01*
X132792022Y-74958171D01*
X132711849Y-74786238D01*
X132711846Y-74786233D01*
X132709523Y-74781251D01*
X132597310Y-74620994D01*
X132581357Y-74598211D01*
X132581355Y-74598208D01*
X132578198Y-74593700D01*
X132416300Y-74431802D01*
X132411792Y-74428645D01*
X132411789Y-74428643D01*
X132251769Y-74316596D01*
X132228749Y-74300477D01*
X132223767Y-74298154D01*
X132223762Y-74298151D01*
X132026225Y-74206039D01*
X132026224Y-74206039D01*
X132021243Y-74203716D01*
X132015935Y-74202294D01*
X132015933Y-74202293D01*
X131805402Y-74145881D01*
X131805400Y-74145881D01*
X131800087Y-74144457D01*
X131572000Y-74124502D01*
X131343913Y-74144457D01*
X131338600Y-74145881D01*
X131338598Y-74145881D01*
X131128067Y-74202293D01*
X131128065Y-74202294D01*
X131122757Y-74203716D01*
X131117776Y-74206039D01*
X131117775Y-74206039D01*
X130920238Y-74298151D01*
X130920233Y-74298154D01*
X130915251Y-74300477D01*
X130892231Y-74316596D01*
X130732211Y-74428643D01*
X130732208Y-74428645D01*
X130727700Y-74431802D01*
X130565802Y-74593700D01*
X130562645Y-74598208D01*
X130562643Y-74598211D01*
X130455819Y-74750771D01*
X130400362Y-74795099D01*
X130352606Y-74804500D01*
X128981394Y-74804500D01*
X128913273Y-74784498D01*
X128878181Y-74750771D01*
X128771357Y-74598211D01*
X128771355Y-74598208D01*
X128768198Y-74593700D01*
X128606300Y-74431802D01*
X128601792Y-74428645D01*
X128601789Y-74428643D01*
X128441769Y-74316596D01*
X128418749Y-74300477D01*
X128413767Y-74298154D01*
X128413762Y-74298151D01*
X128216225Y-74206039D01*
X128216224Y-74206039D01*
X128211243Y-74203716D01*
X128205935Y-74202294D01*
X128205933Y-74202293D01*
X127995402Y-74145881D01*
X127995400Y-74145881D01*
X127990087Y-74144457D01*
X127762000Y-74124502D01*
X127533913Y-74144457D01*
X127528600Y-74145881D01*
X127528598Y-74145881D01*
X127318067Y-74202293D01*
X127318065Y-74202294D01*
X127312757Y-74203716D01*
X127307776Y-74206039D01*
X127307775Y-74206039D01*
X127110238Y-74298151D01*
X127110233Y-74298154D01*
X127105251Y-74300477D01*
X127082231Y-74316596D01*
X126922211Y-74428643D01*
X126922208Y-74428645D01*
X126917700Y-74431802D01*
X126755802Y-74593700D01*
X126752645Y-74598208D01*
X126752643Y-74598211D01*
X126645819Y-74750771D01*
X126590362Y-74795099D01*
X126542606Y-74804500D01*
X126316767Y-74804500D01*
X126305584Y-74803973D01*
X126298091Y-74802298D01*
X126290165Y-74802547D01*
X126290164Y-74802547D01*
X126230014Y-74804438D01*
X126226055Y-74804500D01*
X126198144Y-74804500D01*
X126194210Y-74804997D01*
X126194209Y-74804997D01*
X126194144Y-74805005D01*
X126182307Y-74805938D01*
X126150490Y-74806938D01*
X126146029Y-74807078D01*
X126138110Y-74807327D01*
X126120454Y-74812456D01*
X126118658Y-74812978D01*
X126099306Y-74816986D01*
X126095312Y-74817491D01*
X126079206Y-74819526D01*
X126078844Y-74816661D01*
X126021578Y-74814704D01*
X125972091Y-74784186D01*
X125638405Y-74450500D01*
X125604379Y-74388188D01*
X125601500Y-74361405D01*
X125601500Y-72451793D01*
X125603732Y-72428184D01*
X125603790Y-72427881D01*
X125603790Y-72427877D01*
X125605275Y-72420094D01*
X125601749Y-72364049D01*
X125601500Y-72356138D01*
X125601500Y-68666134D01*
X126453500Y-68666134D01*
X126460255Y-68728316D01*
X126511385Y-68864705D01*
X126598739Y-68981261D01*
X126715295Y-69068615D01*
X126851684Y-69119745D01*
X126913866Y-69126500D01*
X128610134Y-69126500D01*
X128672316Y-69119745D01*
X128808705Y-69068615D01*
X128925261Y-68981261D01*
X129012615Y-68864705D01*
X129063745Y-68728316D01*
X129070500Y-68666134D01*
X130263500Y-68666134D01*
X130270255Y-68728316D01*
X130321385Y-68864705D01*
X130408739Y-68981261D01*
X130525295Y-69068615D01*
X130661684Y-69119745D01*
X130723866Y-69126500D01*
X132420134Y-69126500D01*
X132482316Y-69119745D01*
X132618705Y-69068615D01*
X132735261Y-68981261D01*
X132822615Y-68864705D01*
X132873745Y-68728316D01*
X132880500Y-68666134D01*
X132880500Y-66969866D01*
X132873745Y-66907684D01*
X132822615Y-66771295D01*
X132735261Y-66654739D01*
X132618705Y-66567385D01*
X132482316Y-66516255D01*
X132420134Y-66509500D01*
X130723866Y-66509500D01*
X130661684Y-66516255D01*
X130525295Y-66567385D01*
X130408739Y-66654739D01*
X130321385Y-66771295D01*
X130270255Y-66907684D01*
X130263500Y-66969866D01*
X130263500Y-68666134D01*
X129070500Y-68666134D01*
X129070500Y-66969866D01*
X129063745Y-66907684D01*
X129012615Y-66771295D01*
X128925261Y-66654739D01*
X128808705Y-66567385D01*
X128672316Y-66516255D01*
X128610134Y-66509500D01*
X126913866Y-66509500D01*
X126851684Y-66516255D01*
X126715295Y-66567385D01*
X126598739Y-66654739D01*
X126511385Y-66771295D01*
X126460255Y-66907684D01*
X126453500Y-66969866D01*
X126453500Y-68666134D01*
X125601500Y-68666134D01*
X125601500Y-63814594D01*
X125621502Y-63746473D01*
X125638405Y-63725499D01*
X126884247Y-62479657D01*
X126892537Y-62472113D01*
X126899018Y-62468000D01*
X126945659Y-62418332D01*
X126948413Y-62415491D01*
X126968134Y-62395770D01*
X126970612Y-62392575D01*
X126978318Y-62383553D01*
X127003158Y-62357101D01*
X127008586Y-62351321D01*
X127018346Y-62333568D01*
X127029199Y-62317045D01*
X127036753Y-62307306D01*
X127041613Y-62301041D01*
X127059176Y-62260457D01*
X127064383Y-62249827D01*
X127085695Y-62211060D01*
X127087666Y-62203383D01*
X127087668Y-62203378D01*
X127090732Y-62191442D01*
X127097138Y-62172730D01*
X127102034Y-62161417D01*
X127105181Y-62154145D01*
X127112097Y-62110481D01*
X127114504Y-62098860D01*
X127123528Y-62063711D01*
X127123528Y-62063710D01*
X127125500Y-62056030D01*
X127125500Y-62035769D01*
X127127051Y-62016058D01*
X127128979Y-62003885D01*
X127130219Y-61996057D01*
X127126059Y-61952046D01*
X127125500Y-61940189D01*
X127125500Y-57990767D01*
X127126027Y-57979584D01*
X127127702Y-57972091D01*
X127125562Y-57904000D01*
X127125500Y-57900043D01*
X127125500Y-57872144D01*
X127124996Y-57868153D01*
X127124063Y-57856311D01*
X127123759Y-57846617D01*
X127122674Y-57812111D01*
X127120462Y-57804497D01*
X127120461Y-57804492D01*
X127117023Y-57792659D01*
X127113012Y-57773295D01*
X127111467Y-57761064D01*
X127110474Y-57753203D01*
X127107557Y-57745836D01*
X127107556Y-57745831D01*
X127094198Y-57712092D01*
X127090354Y-57700865D01*
X127080230Y-57666022D01*
X127078018Y-57658407D01*
X127073697Y-57651100D01*
X127067707Y-57640972D01*
X127059012Y-57623224D01*
X127051552Y-57604383D01*
X127025564Y-57568613D01*
X127019048Y-57558693D01*
X127000580Y-57527465D01*
X127000578Y-57527462D01*
X126996542Y-57520638D01*
X126982221Y-57506317D01*
X126969380Y-57491283D01*
X126962131Y-57481306D01*
X126957472Y-57474893D01*
X126923395Y-57446702D01*
X126914616Y-57438712D01*
X124194405Y-54718500D01*
X124160379Y-54656188D01*
X124157500Y-54629405D01*
X124157500Y-51955769D01*
X124159051Y-51936058D01*
X124160979Y-51923885D01*
X124162219Y-51916057D01*
X124158059Y-51872046D01*
X124157500Y-51860189D01*
X124157500Y-47338500D01*
X124177502Y-47270379D01*
X124231158Y-47223886D01*
X124283500Y-47212500D01*
X125572134Y-47212500D01*
X125634316Y-47205745D01*
X125770705Y-47154615D01*
X125887261Y-47067261D01*
X125974615Y-46950705D01*
X126025745Y-46814316D01*
X126032500Y-46752134D01*
X126032500Y-46400144D01*
X128193128Y-46400144D01*
X128200182Y-46410114D01*
X128249298Y-46451182D01*
X128256240Y-46456225D01*
X128498212Y-46608014D01*
X128505763Y-46612063D01*
X128766112Y-46729614D01*
X128774143Y-46732601D01*
X129048034Y-46813732D01*
X129056386Y-46815599D01*
X129338760Y-46858808D01*
X129347293Y-46859524D01*
X129630161Y-46863968D01*
X129697959Y-46885037D01*
X129743604Y-46939416D01*
X129752602Y-47009840D01*
X129722099Y-47073950D01*
X129668687Y-47109264D01*
X129657855Y-47112941D01*
X129573349Y-47154615D01*
X129396031Y-47242058D01*
X129396026Y-47242061D01*
X129392327Y-47243885D01*
X129388894Y-47246179D01*
X129149593Y-47406074D01*
X129149588Y-47406078D01*
X129146162Y-47408367D01*
X129143068Y-47411081D01*
X129143062Y-47411085D01*
X129004852Y-47532293D01*
X128923573Y-47603573D01*
X128920864Y-47606662D01*
X128731085Y-47823062D01*
X128731081Y-47823068D01*
X128728367Y-47826162D01*
X128726078Y-47829588D01*
X128726074Y-47829593D01*
X128665798Y-47919803D01*
X128563885Y-48072327D01*
X128562061Y-48076026D01*
X128562058Y-48076031D01*
X128520418Y-48160469D01*
X128432941Y-48337855D01*
X128431616Y-48341760D01*
X128431615Y-48341761D01*
X128339372Y-48613502D01*
X128337776Y-48618203D01*
X128336972Y-48622247D01*
X128336970Y-48622253D01*
X128303724Y-48789393D01*
X128280017Y-48908574D01*
X128279748Y-48912679D01*
X128279747Y-48912686D01*
X128273597Y-49006525D01*
X128260654Y-49204000D01*
X128260924Y-49208119D01*
X128279367Y-49489507D01*
X128280017Y-49499426D01*
X128280819Y-49503459D01*
X128280820Y-49503465D01*
X128336970Y-49785747D01*
X128337776Y-49789797D01*
X128339103Y-49793706D01*
X128339104Y-49793710D01*
X128429058Y-50058705D01*
X128432941Y-50070145D01*
X128458359Y-50121688D01*
X128560012Y-50327819D01*
X128563885Y-50335673D01*
X128566179Y-50339106D01*
X128704289Y-50545802D01*
X128728367Y-50581838D01*
X128731081Y-50584932D01*
X128731085Y-50584938D01*
X128835328Y-50703803D01*
X128923573Y-50804427D01*
X128926662Y-50807136D01*
X129143062Y-50996915D01*
X129143068Y-50996919D01*
X129146162Y-50999633D01*
X129149588Y-51001922D01*
X129149593Y-51001926D01*
X129293042Y-51097775D01*
X129392327Y-51164115D01*
X129396026Y-51165939D01*
X129396031Y-51165942D01*
X129532313Y-51233148D01*
X129657855Y-51295059D01*
X129661760Y-51296384D01*
X129661761Y-51296385D01*
X129934290Y-51388896D01*
X129934294Y-51388897D01*
X129938203Y-51390224D01*
X129942247Y-51391028D01*
X129942253Y-51391030D01*
X130224535Y-51447180D01*
X130224541Y-51447181D01*
X130228574Y-51447983D01*
X130232679Y-51448252D01*
X130232686Y-51448253D01*
X130519881Y-51467076D01*
X130524000Y-51467346D01*
X130528119Y-51467076D01*
X130815314Y-51448253D01*
X130815321Y-51448252D01*
X130819426Y-51447983D01*
X130823459Y-51447181D01*
X130823465Y-51447180D01*
X131105747Y-51391030D01*
X131105753Y-51391028D01*
X131109797Y-51390224D01*
X131113706Y-51388897D01*
X131113710Y-51388896D01*
X131386239Y-51296385D01*
X131386240Y-51296384D01*
X131390145Y-51295059D01*
X131515687Y-51233148D01*
X131651969Y-51165942D01*
X131651974Y-51165939D01*
X131655673Y-51164115D01*
X131754958Y-51097775D01*
X131898407Y-51001926D01*
X131898412Y-51001922D01*
X131901838Y-50999633D01*
X131904932Y-50996919D01*
X131904938Y-50996915D01*
X132121338Y-50807136D01*
X132124427Y-50804427D01*
X132212672Y-50703803D01*
X132316915Y-50584938D01*
X132316919Y-50584932D01*
X132319633Y-50581838D01*
X132343712Y-50545802D01*
X132481821Y-50339106D01*
X132484115Y-50335673D01*
X132487989Y-50327819D01*
X132589641Y-50121688D01*
X132615059Y-50070145D01*
X132618942Y-50058705D01*
X132708896Y-49793710D01*
X132708897Y-49793706D01*
X132710224Y-49789797D01*
X132711030Y-49785747D01*
X132767180Y-49503465D01*
X132767181Y-49503459D01*
X132767983Y-49499426D01*
X132768634Y-49489507D01*
X132787076Y-49208119D01*
X132787346Y-49204000D01*
X132774403Y-49006525D01*
X132768253Y-48912686D01*
X132768252Y-48912679D01*
X132767983Y-48908574D01*
X132744277Y-48789393D01*
X132711030Y-48622253D01*
X132711028Y-48622247D01*
X132710224Y-48618203D01*
X132708629Y-48613502D01*
X132616385Y-48341761D01*
X132616384Y-48341760D01*
X132615059Y-48337855D01*
X132527582Y-48160469D01*
X132485942Y-48076031D01*
X132485939Y-48076026D01*
X132484115Y-48072327D01*
X132382202Y-47919803D01*
X132321926Y-47829593D01*
X132321922Y-47829588D01*
X132319633Y-47826162D01*
X132316919Y-47823068D01*
X132316915Y-47823062D01*
X132127136Y-47606662D01*
X132124427Y-47603573D01*
X132043148Y-47532293D01*
X131904938Y-47411085D01*
X131904932Y-47411081D01*
X131901838Y-47408367D01*
X131898412Y-47406078D01*
X131898407Y-47406074D01*
X131659106Y-47246179D01*
X131655673Y-47243885D01*
X131651974Y-47242061D01*
X131651969Y-47242058D01*
X131474651Y-47154615D01*
X131390145Y-47112941D01*
X131255576Y-47067261D01*
X131113710Y-47019104D01*
X131113706Y-47019103D01*
X131109797Y-47017776D01*
X131105753Y-47016972D01*
X131105747Y-47016970D01*
X130823465Y-46960820D01*
X130823459Y-46960819D01*
X130819426Y-46960017D01*
X130815321Y-46959748D01*
X130815314Y-46959747D01*
X130528119Y-46940924D01*
X130524000Y-46940654D01*
X130382021Y-46949960D01*
X130312740Y-46934456D01*
X130262837Y-46883957D01*
X130248159Y-46814494D01*
X130273365Y-46748122D01*
X130325564Y-46707821D01*
X130481805Y-46643103D01*
X130489467Y-46639300D01*
X130736103Y-46495177D01*
X130743190Y-46490361D01*
X130845497Y-46410143D01*
X130853968Y-46398283D01*
X130847452Y-46386662D01*
X129536812Y-45076022D01*
X129522868Y-45068408D01*
X129521035Y-45068539D01*
X129514420Y-45072790D01*
X128200421Y-46386789D01*
X128193128Y-46400144D01*
X126032500Y-46400144D01*
X126032500Y-44685629D01*
X127361323Y-44685629D01*
X127377766Y-44970814D01*
X127378839Y-44979313D01*
X127433837Y-45259636D01*
X127436048Y-45267888D01*
X127528581Y-45538157D01*
X127531896Y-45546042D01*
X127660251Y-45801247D01*
X127664608Y-45808613D01*
X127815474Y-46028124D01*
X127825727Y-46036468D01*
X127839468Y-46029322D01*
X129151978Y-44716812D01*
X129158356Y-44705132D01*
X129888408Y-44705132D01*
X129888539Y-44706965D01*
X129892790Y-44713580D01*
X131207033Y-46027823D01*
X131219242Y-46034490D01*
X131230742Y-46025800D01*
X131347777Y-45866475D01*
X131352364Y-45859247D01*
X131439488Y-45698785D01*
X131489571Y-45648464D01*
X131558909Y-45633207D01*
X131625488Y-45657859D01*
X131639314Y-45669812D01*
X131679700Y-45710198D01*
X131684208Y-45713355D01*
X131684211Y-45713357D01*
X131707136Y-45729409D01*
X131867251Y-45841523D01*
X131872233Y-45843846D01*
X131872238Y-45843849D01*
X132069775Y-45935961D01*
X132074757Y-45938284D01*
X132080065Y-45939706D01*
X132080067Y-45939707D01*
X132290598Y-45996119D01*
X132290600Y-45996119D01*
X132295913Y-45997543D01*
X132395480Y-46006254D01*
X132464149Y-46012262D01*
X132464156Y-46012262D01*
X132466873Y-46012500D01*
X132581127Y-46012500D01*
X132583844Y-46012262D01*
X132583851Y-46012262D01*
X132652520Y-46006254D01*
X132752087Y-45997543D01*
X132757400Y-45996119D01*
X132757402Y-45996119D01*
X132967933Y-45939707D01*
X132967935Y-45939706D01*
X132973243Y-45938284D01*
X132978225Y-45935961D01*
X133175762Y-45843849D01*
X133175767Y-45843846D01*
X133180749Y-45841523D01*
X133340864Y-45729409D01*
X133363789Y-45713357D01*
X133363792Y-45713355D01*
X133368300Y-45710198D01*
X133530198Y-45548300D01*
X133537301Y-45538157D01*
X133626935Y-45410145D01*
X133661523Y-45360749D01*
X133663846Y-45355767D01*
X133663849Y-45355762D01*
X133755961Y-45158225D01*
X133755961Y-45158224D01*
X133758284Y-45153243D01*
X133760183Y-45146158D01*
X133816119Y-44937402D01*
X133816119Y-44937400D01*
X133817543Y-44932087D01*
X133837498Y-44704000D01*
X133817543Y-44475913D01*
X133816119Y-44470598D01*
X133759707Y-44260067D01*
X133759706Y-44260065D01*
X133758284Y-44254757D01*
X133684488Y-44096499D01*
X133663849Y-44052238D01*
X133663846Y-44052233D01*
X133661523Y-44047251D01*
X133530198Y-43859700D01*
X133368300Y-43697802D01*
X133363792Y-43694645D01*
X133363789Y-43694643D01*
X133285611Y-43639902D01*
X133180749Y-43566477D01*
X133175767Y-43564154D01*
X133175762Y-43564151D01*
X132978225Y-43472039D01*
X132978224Y-43472039D01*
X132973243Y-43469716D01*
X132967935Y-43468294D01*
X132967933Y-43468293D01*
X132757402Y-43411881D01*
X132757400Y-43411881D01*
X132752087Y-43410457D01*
X132652520Y-43401746D01*
X132583851Y-43395738D01*
X132583844Y-43395738D01*
X132581127Y-43395500D01*
X132466873Y-43395500D01*
X132464156Y-43395738D01*
X132464149Y-43395738D01*
X132395480Y-43401746D01*
X132295913Y-43410457D01*
X132290600Y-43411881D01*
X132290598Y-43411881D01*
X132080067Y-43468293D01*
X132080065Y-43468294D01*
X132074757Y-43469716D01*
X132069776Y-43472039D01*
X132069775Y-43472039D01*
X131872238Y-43564151D01*
X131872233Y-43564154D01*
X131867251Y-43566477D01*
X131762389Y-43639902D01*
X131684211Y-43694643D01*
X131684208Y-43694645D01*
X131679700Y-43697802D01*
X131639068Y-43738434D01*
X131576756Y-43772460D01*
X131505941Y-43767395D01*
X131449105Y-43724848D01*
X131438007Y-43707129D01*
X131376155Y-43587292D01*
X131371727Y-43579980D01*
X131231701Y-43380746D01*
X131221180Y-43372366D01*
X131207792Y-43379418D01*
X129896022Y-44691188D01*
X129888408Y-44705132D01*
X129158356Y-44705132D01*
X129159592Y-44702868D01*
X129159461Y-44701035D01*
X129155210Y-44694420D01*
X127840334Y-43379544D01*
X127828323Y-43372985D01*
X127816585Y-43381953D01*
X127688151Y-43560687D01*
X127683636Y-43567968D01*
X127549973Y-43820414D01*
X127546487Y-43828242D01*
X127448318Y-44096499D01*
X127445929Y-44104722D01*
X127385074Y-44383830D01*
X127383825Y-44392285D01*
X127361412Y-44677078D01*
X127361323Y-44685629D01*
X126032500Y-44685629D01*
X126032500Y-43009789D01*
X128193872Y-43009789D01*
X128200267Y-43021057D01*
X129511188Y-44331978D01*
X129525132Y-44339592D01*
X129526965Y-44339461D01*
X129533580Y-44335210D01*
X130847199Y-43021591D01*
X130854390Y-43008422D01*
X130847068Y-42998185D01*
X130780328Y-42943560D01*
X130773356Y-42938605D01*
X130529791Y-42789348D01*
X130522193Y-42785376D01*
X130326210Y-42699345D01*
X130271875Y-42653649D01*
X130250870Y-42585831D01*
X130269865Y-42517422D01*
X130322829Y-42470143D01*
X130385097Y-42458242D01*
X130479305Y-42464417D01*
X130517623Y-42466928D01*
X130519881Y-42467076D01*
X130524000Y-42467346D01*
X130528119Y-42467076D01*
X130530378Y-42466928D01*
X130549068Y-42465703D01*
X130815314Y-42448253D01*
X130815321Y-42448252D01*
X130819426Y-42447983D01*
X130823459Y-42447181D01*
X130823465Y-42447180D01*
X131105747Y-42391030D01*
X131105753Y-42391028D01*
X131109797Y-42390224D01*
X131113706Y-42388897D01*
X131113710Y-42388896D01*
X131386239Y-42296385D01*
X131386240Y-42296384D01*
X131390145Y-42295059D01*
X131578333Y-42202255D01*
X131651969Y-42165942D01*
X131651974Y-42165939D01*
X131655673Y-42164115D01*
X131783593Y-42078642D01*
X131898407Y-42001926D01*
X131898412Y-42001922D01*
X131901838Y-41999633D01*
X131904932Y-41996919D01*
X131904938Y-41996915D01*
X132121338Y-41807136D01*
X132124427Y-41804427D01*
X132249793Y-41661475D01*
X132316915Y-41584938D01*
X132316919Y-41584932D01*
X132319633Y-41581838D01*
X132484115Y-41335673D01*
X132615059Y-41070145D01*
X132639124Y-40999251D01*
X132708896Y-40793710D01*
X132708897Y-40793706D01*
X132710224Y-40789797D01*
X132737296Y-40653699D01*
X132767180Y-40503465D01*
X132767181Y-40503459D01*
X132767983Y-40499426D01*
X132768971Y-40484362D01*
X132787076Y-40208119D01*
X132787346Y-40204000D01*
X132767983Y-39908574D01*
X132710224Y-39618203D01*
X132615059Y-39337855D01*
X132484115Y-39072327D01*
X132384067Y-38922594D01*
X132321926Y-38829593D01*
X132321922Y-38829588D01*
X132319633Y-38826162D01*
X132316919Y-38823068D01*
X132316915Y-38823062D01*
X132127136Y-38606662D01*
X132124427Y-38603573D01*
X132110058Y-38590972D01*
X131904938Y-38411085D01*
X131904932Y-38411081D01*
X131901838Y-38408367D01*
X131898412Y-38406078D01*
X131898407Y-38406074D01*
X131659106Y-38246179D01*
X131655673Y-38243885D01*
X131651974Y-38242061D01*
X131651969Y-38242058D01*
X131497030Y-38165651D01*
X131390145Y-38112941D01*
X131364831Y-38104348D01*
X131113710Y-38019104D01*
X131113706Y-38019103D01*
X131109797Y-38017776D01*
X131105753Y-38016972D01*
X131105747Y-38016970D01*
X130823465Y-37960820D01*
X130823459Y-37960819D01*
X130819426Y-37960017D01*
X130815321Y-37959748D01*
X130815314Y-37959747D01*
X130528119Y-37940924D01*
X130524000Y-37940654D01*
X130519881Y-37940924D01*
X130232686Y-37959747D01*
X130232679Y-37959748D01*
X130228574Y-37960017D01*
X130224541Y-37960819D01*
X130224535Y-37960820D01*
X129942253Y-38016970D01*
X129942247Y-38016972D01*
X129938203Y-38017776D01*
X129934294Y-38019103D01*
X129934290Y-38019104D01*
X129683169Y-38104348D01*
X129657855Y-38112941D01*
X129550970Y-38165651D01*
X129396031Y-38242058D01*
X129396026Y-38242061D01*
X129392327Y-38243885D01*
X129388894Y-38246179D01*
X129149593Y-38406074D01*
X129149588Y-38406078D01*
X129146162Y-38408367D01*
X129143068Y-38411081D01*
X129143062Y-38411085D01*
X128937942Y-38590972D01*
X128923573Y-38603573D01*
X128920864Y-38606662D01*
X128731085Y-38823062D01*
X128731081Y-38823068D01*
X128728367Y-38826162D01*
X128726078Y-38829588D01*
X128726074Y-38829593D01*
X128663933Y-38922594D01*
X128563885Y-39072327D01*
X128432941Y-39337855D01*
X128337776Y-39618203D01*
X128280017Y-39908574D01*
X128260654Y-40204000D01*
X128260924Y-40208119D01*
X128279030Y-40484362D01*
X128280017Y-40499426D01*
X128280819Y-40503459D01*
X128280820Y-40503465D01*
X128310704Y-40653699D01*
X128337776Y-40789797D01*
X128339103Y-40793706D01*
X128339104Y-40793710D01*
X128408876Y-40999251D01*
X128432941Y-41070145D01*
X128563885Y-41335673D01*
X128728367Y-41581838D01*
X128731081Y-41584932D01*
X128731085Y-41584938D01*
X128798207Y-41661475D01*
X128923573Y-41804427D01*
X128926662Y-41807136D01*
X129143062Y-41996915D01*
X129143068Y-41996919D01*
X129146162Y-41999633D01*
X129149588Y-42001922D01*
X129149593Y-42001926D01*
X129264407Y-42078642D01*
X129392327Y-42164115D01*
X129396026Y-42165939D01*
X129396031Y-42165942D01*
X129469667Y-42202255D01*
X129657855Y-42295059D01*
X129665461Y-42297641D01*
X129675965Y-42301207D01*
X129734040Y-42342045D01*
X129760817Y-42407799D01*
X129747794Y-42477591D01*
X129699106Y-42529263D01*
X129634801Y-42546517D01*
X129392467Y-42545247D01*
X129383933Y-42545784D01*
X129100715Y-42583071D01*
X129092317Y-42584764D01*
X128816786Y-42660141D01*
X128808699Y-42662957D01*
X128545952Y-42775029D01*
X128538312Y-42778922D01*
X128293204Y-42925615D01*
X128286175Y-42930500D01*
X128202341Y-42997664D01*
X128193872Y-43009789D01*
X126032500Y-43009789D01*
X126032500Y-42655866D01*
X126025745Y-42593684D01*
X125974615Y-42457295D01*
X125887261Y-42340739D01*
X125770705Y-42253385D01*
X125634316Y-42202255D01*
X125572134Y-42195500D01*
X121475866Y-42195500D01*
X121413684Y-42202255D01*
X121277295Y-42253385D01*
X121160739Y-42340739D01*
X121073385Y-42457295D01*
X121022255Y-42593684D01*
X121015500Y-42655866D01*
X121015500Y-46752134D01*
X121022255Y-46814316D01*
X121073385Y-46950705D01*
X121160739Y-47067261D01*
X121277295Y-47154615D01*
X121413684Y-47205745D01*
X121475866Y-47212500D01*
X122764500Y-47212500D01*
X122832621Y-47232502D01*
X122879114Y-47286158D01*
X122890500Y-47338500D01*
X122890500Y-51564500D01*
X122870498Y-51632621D01*
X122816842Y-51679114D01*
X122764500Y-51690500D01*
X113090595Y-51690500D01*
X113022474Y-51670498D01*
X113001500Y-51653595D01*
X109967652Y-48619747D01*
X109960112Y-48611461D01*
X109956000Y-48604982D01*
X109906348Y-48558356D01*
X109903507Y-48555602D01*
X109883770Y-48535865D01*
X109880573Y-48533385D01*
X109871551Y-48525680D01*
X109858116Y-48513064D01*
X109839321Y-48495414D01*
X109832375Y-48491595D01*
X109832372Y-48491593D01*
X109821566Y-48485652D01*
X109805047Y-48474801D01*
X109804583Y-48474441D01*
X109789041Y-48462386D01*
X109781772Y-48459241D01*
X109781768Y-48459238D01*
X109748463Y-48444826D01*
X109737813Y-48439609D01*
X109699060Y-48418305D01*
X109679437Y-48413267D01*
X109660734Y-48406863D01*
X109649420Y-48401967D01*
X109649419Y-48401967D01*
X109642145Y-48398819D01*
X109634322Y-48397580D01*
X109634312Y-48397577D01*
X109598476Y-48391901D01*
X109586856Y-48389495D01*
X109551711Y-48380472D01*
X109551710Y-48380472D01*
X109544030Y-48378500D01*
X109523776Y-48378500D01*
X109504065Y-48376949D01*
X109501534Y-48376548D01*
X109484057Y-48373780D01*
X109476165Y-48374526D01*
X109440039Y-48377941D01*
X109428181Y-48378500D01*
X108163394Y-48378500D01*
X108095273Y-48358498D01*
X108060181Y-48324771D01*
X107953357Y-48172211D01*
X107953355Y-48172208D01*
X107950198Y-48167700D01*
X107788300Y-48005802D01*
X107783792Y-48002645D01*
X107783789Y-48002643D01*
X107677489Y-47928211D01*
X107600749Y-47874477D01*
X107595767Y-47872154D01*
X107595762Y-47872151D01*
X107398225Y-47780039D01*
X107398224Y-47780039D01*
X107393243Y-47777716D01*
X107387935Y-47776294D01*
X107387933Y-47776293D01*
X107177402Y-47719881D01*
X107177400Y-47719881D01*
X107172087Y-47718457D01*
X106944000Y-47698502D01*
X106715913Y-47718457D01*
X106710600Y-47719881D01*
X106710598Y-47719881D01*
X106500067Y-47776293D01*
X106500065Y-47776294D01*
X106494757Y-47777716D01*
X106489776Y-47780039D01*
X106489775Y-47780039D01*
X106292238Y-47872151D01*
X106292233Y-47872154D01*
X106287251Y-47874477D01*
X106210511Y-47928211D01*
X106104211Y-48002643D01*
X106104208Y-48002645D01*
X106099700Y-48005802D01*
X105937802Y-48167700D01*
X105806477Y-48355251D01*
X105804154Y-48360233D01*
X105804151Y-48360238D01*
X105722805Y-48534688D01*
X105709716Y-48562757D01*
X105708294Y-48568065D01*
X105708293Y-48568067D01*
X105653926Y-48770965D01*
X105650457Y-48783913D01*
X105630502Y-49012000D01*
X105650457Y-49240087D01*
X105651881Y-49245400D01*
X105651881Y-49245402D01*
X105708105Y-49455229D01*
X105709716Y-49461243D01*
X105712039Y-49466224D01*
X105712039Y-49466225D01*
X105804151Y-49663762D01*
X105804154Y-49663767D01*
X105806477Y-49668749D01*
X105937802Y-49856300D01*
X106099700Y-50018198D01*
X106104208Y-50021355D01*
X106104211Y-50021357D01*
X106167812Y-50065891D01*
X106287251Y-50149523D01*
X106292233Y-50151846D01*
X106292238Y-50151849D01*
X106326457Y-50167805D01*
X106379742Y-50214722D01*
X106399203Y-50282999D01*
X106378661Y-50350959D01*
X106326457Y-50396195D01*
X106292238Y-50412151D01*
X106292233Y-50412154D01*
X106287251Y-50414477D01*
X106182389Y-50487902D01*
X106104211Y-50542643D01*
X106104208Y-50542645D01*
X106099700Y-50545802D01*
X105937802Y-50707700D01*
X105934645Y-50712208D01*
X105934643Y-50712211D01*
X105827819Y-50864771D01*
X105772362Y-50909099D01*
X105724606Y-50918500D01*
X100543394Y-50918500D01*
X100475273Y-50898498D01*
X100440181Y-50864771D01*
X100333357Y-50712211D01*
X100333355Y-50712208D01*
X100330198Y-50707700D01*
X100168300Y-50545802D01*
X100163789Y-50542643D01*
X100159576Y-50539108D01*
X100160527Y-50537974D01*
X100120529Y-50487929D01*
X100113224Y-50417310D01*
X100145258Y-50353951D01*
X100206462Y-50317970D01*
X100223517Y-50314918D01*
X100234316Y-50313745D01*
X100370705Y-50262615D01*
X100487261Y-50175261D01*
X100574615Y-50058705D01*
X100625745Y-49922316D01*
X100632500Y-49860134D01*
X100632500Y-48163866D01*
X100625745Y-48101684D01*
X100574615Y-47965295D01*
X100487261Y-47848739D01*
X100370705Y-47761385D01*
X100234316Y-47710255D01*
X100172134Y-47703500D01*
X100083500Y-47703500D01*
X100015379Y-47683498D01*
X99968886Y-47629842D01*
X99957500Y-47577500D01*
X99957500Y-43014763D01*
X99958027Y-43003579D01*
X99959701Y-42996091D01*
X99957562Y-42928032D01*
X99957500Y-42924075D01*
X99957500Y-42896144D01*
X99956994Y-42892138D01*
X99956061Y-42880292D01*
X99955738Y-42869991D01*
X99954673Y-42836110D01*
X99949022Y-42816658D01*
X99945014Y-42797306D01*
X99943467Y-42785063D01*
X99942474Y-42777203D01*
X99939556Y-42769832D01*
X99926200Y-42736097D01*
X99922355Y-42724870D01*
X99914939Y-42699345D01*
X99910018Y-42682407D01*
X99905984Y-42675585D01*
X99905981Y-42675579D01*
X99899706Y-42664968D01*
X99891010Y-42647218D01*
X99886472Y-42635756D01*
X99886469Y-42635751D01*
X99883552Y-42628383D01*
X99857573Y-42592625D01*
X99851057Y-42582707D01*
X99832575Y-42551457D01*
X99828542Y-42544637D01*
X99814218Y-42530313D01*
X99801376Y-42515278D01*
X99789472Y-42498893D01*
X99755406Y-42470711D01*
X99746627Y-42462722D01*
X99353152Y-42069247D01*
X99319126Y-42006935D01*
X99320540Y-41947541D01*
X99337543Y-41884087D01*
X99357498Y-41656000D01*
X106890502Y-41656000D01*
X106910457Y-41884087D01*
X106911880Y-41889398D01*
X106911881Y-41889402D01*
X106963871Y-42083428D01*
X106969716Y-42105243D01*
X106972039Y-42110224D01*
X106972039Y-42110225D01*
X107064151Y-42307762D01*
X107064154Y-42307767D01*
X107066477Y-42312749D01*
X107113061Y-42379278D01*
X107193279Y-42493840D01*
X107197802Y-42500300D01*
X107359700Y-42662198D01*
X107364208Y-42665355D01*
X107364211Y-42665357D01*
X107516771Y-42772181D01*
X107561099Y-42827638D01*
X107570500Y-42875394D01*
X107570500Y-44625233D01*
X107569973Y-44636416D01*
X107568298Y-44643909D01*
X107568547Y-44651835D01*
X107568547Y-44651836D01*
X107570438Y-44711986D01*
X107570500Y-44715945D01*
X107570500Y-44743856D01*
X107570997Y-44747790D01*
X107570997Y-44747791D01*
X107571005Y-44747856D01*
X107571938Y-44759693D01*
X107573327Y-44803889D01*
X107578978Y-44823339D01*
X107582987Y-44842700D01*
X107585526Y-44862797D01*
X107588445Y-44870168D01*
X107588445Y-44870170D01*
X107601804Y-44903912D01*
X107605649Y-44915142D01*
X107608980Y-44926607D01*
X107617982Y-44957593D01*
X107622015Y-44964412D01*
X107622017Y-44964417D01*
X107628293Y-44975028D01*
X107636988Y-44992776D01*
X107644448Y-45011617D01*
X107649110Y-45018033D01*
X107649110Y-45018034D01*
X107670436Y-45047387D01*
X107676952Y-45057307D01*
X107699458Y-45095362D01*
X107713779Y-45109683D01*
X107726619Y-45124716D01*
X107738528Y-45141107D01*
X107753198Y-45153243D01*
X107772605Y-45169298D01*
X107781384Y-45177288D01*
X111764348Y-49160253D01*
X111771888Y-49168539D01*
X111776000Y-49175018D01*
X111781777Y-49180443D01*
X111825651Y-49221643D01*
X111828493Y-49224398D01*
X111848230Y-49244135D01*
X111851427Y-49246615D01*
X111860447Y-49254318D01*
X111892679Y-49284586D01*
X111899625Y-49288405D01*
X111899628Y-49288407D01*
X111910434Y-49294348D01*
X111926953Y-49305199D01*
X111942959Y-49317614D01*
X111950228Y-49320759D01*
X111950232Y-49320762D01*
X111983537Y-49335174D01*
X111994187Y-49340391D01*
X112032940Y-49361695D01*
X112040615Y-49363666D01*
X112040616Y-49363666D01*
X112052562Y-49366733D01*
X112071267Y-49373137D01*
X112089855Y-49381181D01*
X112097678Y-49382420D01*
X112097688Y-49382423D01*
X112133524Y-49388099D01*
X112145144Y-49390505D01*
X112180289Y-49399528D01*
X112187970Y-49401500D01*
X112208224Y-49401500D01*
X112227934Y-49403051D01*
X112247943Y-49406220D01*
X112255835Y-49405474D01*
X112291961Y-49402059D01*
X112303819Y-49401500D01*
X114370606Y-49401500D01*
X114438727Y-49421502D01*
X114473819Y-49455229D01*
X114580643Y-49607789D01*
X114583802Y-49612300D01*
X114745700Y-49774198D01*
X114750208Y-49777355D01*
X114750211Y-49777357D01*
X114782549Y-49800000D01*
X114933251Y-49905523D01*
X114938233Y-49907846D01*
X114938238Y-49907849D01*
X115134765Y-49999490D01*
X115140757Y-50002284D01*
X115146065Y-50003706D01*
X115146067Y-50003707D01*
X115356598Y-50060119D01*
X115356600Y-50060119D01*
X115361913Y-50061543D01*
X115590000Y-50081498D01*
X115818087Y-50061543D01*
X115823400Y-50060119D01*
X115823402Y-50060119D01*
X116033933Y-50003707D01*
X116033935Y-50003706D01*
X116039243Y-50002284D01*
X116045235Y-49999490D01*
X116241762Y-49907849D01*
X116241767Y-49907846D01*
X116246749Y-49905523D01*
X116320243Y-49854062D01*
X117368493Y-49854062D01*
X117377789Y-49866077D01*
X117428994Y-49901931D01*
X117438489Y-49907414D01*
X117635947Y-49999490D01*
X117646239Y-50003236D01*
X117856688Y-50059625D01*
X117867481Y-50061528D01*
X118084525Y-50080517D01*
X118095475Y-50080517D01*
X118312519Y-50061528D01*
X118323312Y-50059625D01*
X118533761Y-50003236D01*
X118544053Y-49999490D01*
X118741511Y-49907414D01*
X118751006Y-49901931D01*
X118803048Y-49865491D01*
X118811424Y-49855012D01*
X118804356Y-49841566D01*
X118102812Y-49140022D01*
X118088868Y-49132408D01*
X118087035Y-49132539D01*
X118080420Y-49136790D01*
X117374923Y-49842287D01*
X117368493Y-49854062D01*
X116320243Y-49854062D01*
X116397451Y-49800000D01*
X116429789Y-49777357D01*
X116429792Y-49777355D01*
X116434300Y-49774198D01*
X116596198Y-49612300D01*
X116727523Y-49424749D01*
X116729847Y-49419765D01*
X116731171Y-49417472D01*
X116782553Y-49368479D01*
X116852267Y-49355043D01*
X116918178Y-49381429D01*
X116949409Y-49417472D01*
X116956066Y-49429002D01*
X116992509Y-49481048D01*
X117002988Y-49489424D01*
X117016434Y-49482356D01*
X117729658Y-48769132D01*
X118454408Y-48769132D01*
X118454539Y-48770965D01*
X118458790Y-48777580D01*
X119164287Y-49483077D01*
X119176062Y-49489507D01*
X119188077Y-49480211D01*
X119223931Y-49429006D01*
X119229414Y-49419511D01*
X119321490Y-49222053D01*
X119325236Y-49211761D01*
X119381625Y-49001312D01*
X119383528Y-48990519D01*
X119402517Y-48773475D01*
X119402517Y-48762525D01*
X119383528Y-48545481D01*
X119381625Y-48534688D01*
X119325236Y-48324239D01*
X119321490Y-48313947D01*
X119229414Y-48116489D01*
X119223931Y-48106994D01*
X119187491Y-48054952D01*
X119177012Y-48046576D01*
X119163566Y-48053644D01*
X118462022Y-48755188D01*
X118454408Y-48769132D01*
X117729658Y-48769132D01*
X118805077Y-47693713D01*
X118811507Y-47681938D01*
X118802211Y-47669923D01*
X118751006Y-47634069D01*
X118741511Y-47628586D01*
X118544053Y-47536510D01*
X118533761Y-47532764D01*
X118323312Y-47476375D01*
X118312520Y-47474472D01*
X118091498Y-47455135D01*
X118025380Y-47429272D01*
X117983741Y-47371768D01*
X117979800Y-47300881D01*
X118013385Y-47240519D01*
X119518247Y-45735657D01*
X119526537Y-45728113D01*
X119533018Y-45724000D01*
X119579659Y-45674332D01*
X119582413Y-45671491D01*
X119602134Y-45651770D01*
X119604612Y-45648575D01*
X119612318Y-45639553D01*
X119637158Y-45613101D01*
X119642586Y-45607321D01*
X119652346Y-45589568D01*
X119663199Y-45573045D01*
X119670753Y-45563306D01*
X119675613Y-45557041D01*
X119693176Y-45516457D01*
X119698383Y-45505827D01*
X119719695Y-45467060D01*
X119721666Y-45459383D01*
X119721668Y-45459378D01*
X119724732Y-45447442D01*
X119731138Y-45428730D01*
X119736033Y-45417419D01*
X119739181Y-45410145D01*
X119740421Y-45402317D01*
X119740423Y-45402310D01*
X119746099Y-45366476D01*
X119748505Y-45354856D01*
X119757528Y-45319711D01*
X119757528Y-45319710D01*
X119759500Y-45312030D01*
X119759500Y-45291776D01*
X119761051Y-45272065D01*
X119762980Y-45259886D01*
X119764220Y-45252057D01*
X119760059Y-45208038D01*
X119759500Y-45196181D01*
X119759500Y-43190500D01*
X119779502Y-43122379D01*
X119833158Y-43075886D01*
X119885500Y-43064500D01*
X120074134Y-43064500D01*
X120136316Y-43057745D01*
X120272705Y-43006615D01*
X120389261Y-42919261D01*
X120476615Y-42802705D01*
X120527745Y-42666316D01*
X120534500Y-42604134D01*
X120534500Y-40707866D01*
X120527745Y-40645684D01*
X120476615Y-40509295D01*
X120389261Y-40392739D01*
X120272705Y-40305385D01*
X120136316Y-40254255D01*
X120074134Y-40247500D01*
X118177866Y-40247500D01*
X118115684Y-40254255D01*
X117979295Y-40305385D01*
X117862739Y-40392739D01*
X117775385Y-40509295D01*
X117724255Y-40645684D01*
X117717500Y-40707866D01*
X117717500Y-42604134D01*
X117724255Y-42666316D01*
X117775385Y-42802705D01*
X117862739Y-42919261D01*
X117979295Y-43006615D01*
X118115684Y-43057745D01*
X118177866Y-43064500D01*
X118366500Y-43064500D01*
X118434621Y-43084502D01*
X118481114Y-43138158D01*
X118492500Y-43190500D01*
X118492500Y-44917405D01*
X118472498Y-44985526D01*
X118455595Y-45006500D01*
X116003247Y-47458848D01*
X115940935Y-47492874D01*
X115881542Y-47491460D01*
X115818087Y-47474457D01*
X115590000Y-47454502D01*
X115361913Y-47474457D01*
X115356600Y-47475881D01*
X115356598Y-47475881D01*
X115146067Y-47532293D01*
X115146065Y-47532294D01*
X115140757Y-47533716D01*
X115135776Y-47536039D01*
X115135775Y-47536039D01*
X114938238Y-47628151D01*
X114938233Y-47628154D01*
X114933251Y-47630477D01*
X114842941Y-47693713D01*
X114750211Y-47758643D01*
X114750208Y-47758645D01*
X114745700Y-47761802D01*
X114583802Y-47923700D01*
X114580645Y-47928208D01*
X114580643Y-47928211D01*
X114473819Y-48080771D01*
X114418362Y-48125099D01*
X114370606Y-48134500D01*
X112582594Y-48134500D01*
X112514473Y-48114498D01*
X112493499Y-48097595D01*
X108874405Y-44478500D01*
X108840379Y-44416188D01*
X108837500Y-44389405D01*
X108837500Y-42875394D01*
X108857502Y-42807273D01*
X108891229Y-42772181D01*
X109043789Y-42665357D01*
X109043792Y-42665355D01*
X109048300Y-42662198D01*
X109210198Y-42500300D01*
X109214722Y-42493840D01*
X109294939Y-42379278D01*
X109341523Y-42312749D01*
X109343846Y-42307767D01*
X109343849Y-42307762D01*
X109435961Y-42110225D01*
X109435961Y-42110224D01*
X109438284Y-42105243D01*
X109444130Y-42083428D01*
X109496119Y-41889402D01*
X109496120Y-41889398D01*
X109497543Y-41884087D01*
X109517498Y-41656000D01*
X109497543Y-41427913D01*
X109489073Y-41396301D01*
X109439707Y-41212067D01*
X109439706Y-41212065D01*
X109438284Y-41206757D01*
X109376306Y-41073843D01*
X109343849Y-41004238D01*
X109343846Y-41004233D01*
X109341523Y-40999251D01*
X109210198Y-40811700D01*
X109048300Y-40649802D01*
X109043792Y-40646645D01*
X109043789Y-40646643D01*
X108891228Y-40539819D01*
X108860749Y-40518477D01*
X108855767Y-40516154D01*
X108855762Y-40516151D01*
X108658225Y-40424039D01*
X108658224Y-40424039D01*
X108653243Y-40421716D01*
X108647935Y-40420294D01*
X108647933Y-40420293D01*
X108437402Y-40363881D01*
X108437400Y-40363881D01*
X108432087Y-40362457D01*
X108204000Y-40342502D01*
X107975913Y-40362457D01*
X107970600Y-40363881D01*
X107970598Y-40363881D01*
X107760067Y-40420293D01*
X107760065Y-40420294D01*
X107754757Y-40421716D01*
X107749776Y-40424039D01*
X107749775Y-40424039D01*
X107552238Y-40516151D01*
X107552233Y-40516154D01*
X107547251Y-40518477D01*
X107516772Y-40539819D01*
X107364211Y-40646643D01*
X107364208Y-40646645D01*
X107359700Y-40649802D01*
X107197802Y-40811700D01*
X107066477Y-40999251D01*
X107064154Y-41004233D01*
X107064151Y-41004238D01*
X107031694Y-41073843D01*
X106969716Y-41206757D01*
X106968294Y-41212065D01*
X106968293Y-41212067D01*
X106918927Y-41396301D01*
X106910457Y-41427913D01*
X106890502Y-41656000D01*
X99357498Y-41656000D01*
X99337543Y-41427913D01*
X99329073Y-41396301D01*
X99279707Y-41212067D01*
X99279706Y-41212065D01*
X99278284Y-41206757D01*
X99216306Y-41073843D01*
X99183849Y-41004238D01*
X99183846Y-41004233D01*
X99181523Y-40999251D01*
X99050198Y-40811700D01*
X98888300Y-40649802D01*
X98883792Y-40646645D01*
X98883789Y-40646643D01*
X98731229Y-40539819D01*
X98686901Y-40484362D01*
X98677500Y-40436606D01*
X98677500Y-38922594D01*
X98697502Y-38854473D01*
X98714405Y-38833499D01*
X98777499Y-38770405D01*
X98839811Y-38736379D01*
X98866594Y-38733500D01*
X110429405Y-38733500D01*
X110497526Y-38753502D01*
X110518501Y-38770405D01*
X110835596Y-39087501D01*
X110869621Y-39149813D01*
X110872500Y-39176596D01*
X110872500Y-40321319D01*
X110852498Y-40389440D01*
X110804679Y-40433083D01*
X110757463Y-40457662D01*
X110752872Y-40460052D01*
X110748734Y-40463159D01*
X110670853Y-40521634D01*
X110567655Y-40599117D01*
X110407639Y-40766564D01*
X110404725Y-40770836D01*
X110404724Y-40770837D01*
X110389152Y-40793665D01*
X110277119Y-40957899D01*
X110179602Y-41167981D01*
X110117707Y-41391169D01*
X110093095Y-41621469D01*
X110093392Y-41626622D01*
X110093392Y-41626625D01*
X110099067Y-41725041D01*
X110106427Y-41852697D01*
X110107564Y-41857743D01*
X110107565Y-41857749D01*
X110138928Y-41996915D01*
X110157346Y-42078642D01*
X110159288Y-42083424D01*
X110159289Y-42083428D01*
X110207540Y-42202255D01*
X110244484Y-42293237D01*
X110365501Y-42490719D01*
X110517147Y-42665784D01*
X110695349Y-42813730D01*
X110895322Y-42930584D01*
X110900147Y-42932426D01*
X110900148Y-42932427D01*
X110941239Y-42948118D01*
X111111694Y-43013209D01*
X111116760Y-43014240D01*
X111116761Y-43014240D01*
X111119332Y-43014763D01*
X111338656Y-43059385D01*
X111468089Y-43064131D01*
X111564949Y-43067683D01*
X111564953Y-43067683D01*
X111570113Y-43067872D01*
X111575233Y-43067216D01*
X111575235Y-43067216D01*
X111649166Y-43057745D01*
X111799847Y-43038442D01*
X111804795Y-43036957D01*
X111804802Y-43036956D01*
X112016747Y-42973369D01*
X112021690Y-42971886D01*
X112026565Y-42969498D01*
X112225049Y-42872262D01*
X112225052Y-42872260D01*
X112229684Y-42869991D01*
X112418243Y-42735494D01*
X112582303Y-42572005D01*
X112717458Y-42383917D01*
X112738153Y-42342045D01*
X112817784Y-42180922D01*
X112817785Y-42180920D01*
X112820078Y-42176280D01*
X112887408Y-41954671D01*
X112917640Y-41725041D01*
X112919327Y-41656000D01*
X112912948Y-41578407D01*
X112900773Y-41430318D01*
X112900772Y-41430312D01*
X112900349Y-41425167D01*
X112846822Y-41212067D01*
X112845184Y-41205544D01*
X112845183Y-41205540D01*
X112843925Y-41200533D01*
X112841866Y-41195797D01*
X112753630Y-40992868D01*
X112753628Y-40992865D01*
X112751570Y-40988131D01*
X112625764Y-40793665D01*
X112622245Y-40789797D01*
X112494859Y-40649802D01*
X112469887Y-40622358D01*
X112465836Y-40619159D01*
X112465832Y-40619155D01*
X112292178Y-40482012D01*
X112292175Y-40482010D01*
X112288123Y-40478810D01*
X112204607Y-40432707D01*
X112154636Y-40382274D01*
X112139500Y-40322398D01*
X112139500Y-38940768D01*
X112140027Y-38929585D01*
X112141702Y-38922092D01*
X112139562Y-38854001D01*
X112139500Y-38850044D01*
X112139500Y-38822144D01*
X112138996Y-38818153D01*
X112138063Y-38806311D01*
X112136923Y-38770036D01*
X112136674Y-38762111D01*
X112134462Y-38754497D01*
X112134461Y-38754492D01*
X112131023Y-38742659D01*
X112127012Y-38723295D01*
X112125467Y-38711064D01*
X112124474Y-38703203D01*
X112121557Y-38695836D01*
X112121556Y-38695831D01*
X112108198Y-38662092D01*
X112104354Y-38650865D01*
X112094230Y-38616022D01*
X112092018Y-38608407D01*
X112081707Y-38590972D01*
X112073012Y-38573224D01*
X112065552Y-38554383D01*
X112039564Y-38518613D01*
X112033048Y-38508693D01*
X112014580Y-38477465D01*
X112014578Y-38477462D01*
X112010542Y-38470638D01*
X111996221Y-38456317D01*
X111983380Y-38441283D01*
X111976132Y-38431307D01*
X111971472Y-38424893D01*
X111937407Y-38396712D01*
X111928626Y-38388722D01*
X111247647Y-37707742D01*
X111240113Y-37699463D01*
X111236000Y-37692982D01*
X111186348Y-37646356D01*
X111183507Y-37643602D01*
X111163770Y-37623865D01*
X111160573Y-37621385D01*
X111151551Y-37613680D01*
X111138116Y-37601064D01*
X111119321Y-37583414D01*
X111112375Y-37579595D01*
X111112372Y-37579593D01*
X111101566Y-37573652D01*
X111085047Y-37562801D01*
X111084583Y-37562441D01*
X111069041Y-37550386D01*
X111061772Y-37547241D01*
X111061768Y-37547238D01*
X111028463Y-37532826D01*
X111017813Y-37527609D01*
X110979060Y-37506305D01*
X110959437Y-37501267D01*
X110940734Y-37494863D01*
X110929420Y-37489967D01*
X110929419Y-37489967D01*
X110922145Y-37486819D01*
X110914322Y-37485580D01*
X110914312Y-37485577D01*
X110878476Y-37479901D01*
X110866856Y-37477495D01*
X110831711Y-37468472D01*
X110831710Y-37468472D01*
X110824030Y-37466500D01*
X110803776Y-37466500D01*
X110784065Y-37464949D01*
X110781534Y-37464548D01*
X110764057Y-37461780D01*
X110756165Y-37462526D01*
X110720039Y-37465941D01*
X110708181Y-37466500D01*
X98630763Y-37466500D01*
X98619579Y-37465973D01*
X98612091Y-37464299D01*
X98604168Y-37464548D01*
X98544033Y-37466438D01*
X98540075Y-37466500D01*
X98512144Y-37466500D01*
X98508229Y-37466995D01*
X98508225Y-37466995D01*
X98508167Y-37467003D01*
X98508138Y-37467006D01*
X98496296Y-37467939D01*
X98452110Y-37469327D01*
X98434744Y-37474372D01*
X98432658Y-37474978D01*
X98413306Y-37478986D01*
X98401068Y-37480532D01*
X98401066Y-37480533D01*
X98393203Y-37481526D01*
X98352086Y-37497806D01*
X98340885Y-37501641D01*
X98298406Y-37513982D01*
X98291587Y-37518015D01*
X98291582Y-37518017D01*
X98280971Y-37524293D01*
X98263221Y-37532990D01*
X98244383Y-37540448D01*
X98237967Y-37545109D01*
X98237966Y-37545110D01*
X98208625Y-37566428D01*
X98198701Y-37572947D01*
X98167460Y-37591422D01*
X98167455Y-37591426D01*
X98160637Y-37595458D01*
X98146313Y-37609782D01*
X98131281Y-37622621D01*
X98114893Y-37634528D01*
X98086712Y-37668593D01*
X98078722Y-37677373D01*
X97651747Y-38104348D01*
X97643461Y-38111888D01*
X97636982Y-38116000D01*
X97631557Y-38121777D01*
X97590357Y-38165651D01*
X97587602Y-38168493D01*
X97567865Y-38188230D01*
X97565385Y-38191427D01*
X97557682Y-38200447D01*
X97527414Y-38232679D01*
X97523595Y-38239625D01*
X97523593Y-38239628D01*
X97517652Y-38250434D01*
X97506801Y-38266953D01*
X97494386Y-38282959D01*
X97491241Y-38290228D01*
X97491238Y-38290232D01*
X97476826Y-38323537D01*
X97471609Y-38334187D01*
X97450305Y-38372940D01*
X97448334Y-38380615D01*
X97448334Y-38380616D01*
X97445267Y-38392562D01*
X97438863Y-38411266D01*
X97430819Y-38429855D01*
X97429580Y-38437678D01*
X97429577Y-38437688D01*
X97423901Y-38473524D01*
X97421495Y-38485144D01*
X97410500Y-38527970D01*
X97410500Y-38548224D01*
X97408949Y-38567934D01*
X97405780Y-38587943D01*
X97406526Y-38595835D01*
X97409941Y-38631961D01*
X97410500Y-38643819D01*
X97410500Y-40436606D01*
X97390498Y-40504727D01*
X97356771Y-40539819D01*
X97204211Y-40646643D01*
X97204208Y-40646645D01*
X97199700Y-40649802D01*
X97037802Y-40811700D01*
X96906477Y-40999251D01*
X96904154Y-41004233D01*
X96904151Y-41004238D01*
X96871694Y-41073843D01*
X96809716Y-41206757D01*
X96808294Y-41212065D01*
X96808293Y-41212067D01*
X96758927Y-41396301D01*
X96750457Y-41427913D01*
X96730502Y-41656000D01*
X96750457Y-41884087D01*
X96751880Y-41889398D01*
X96751881Y-41889402D01*
X96803871Y-42083428D01*
X96809716Y-42105243D01*
X96812039Y-42110224D01*
X96812039Y-42110225D01*
X96904151Y-42307762D01*
X96904154Y-42307767D01*
X96906477Y-42312749D01*
X96953061Y-42379278D01*
X97033279Y-42493840D01*
X97037802Y-42500300D01*
X97199700Y-42662198D01*
X97204208Y-42665355D01*
X97204211Y-42665357D01*
X97204821Y-42665784D01*
X97387251Y-42793523D01*
X97392233Y-42795846D01*
X97392238Y-42795849D01*
X97551238Y-42869991D01*
X97594757Y-42890284D01*
X97600065Y-42891706D01*
X97600067Y-42891707D01*
X97810598Y-42948119D01*
X97810600Y-42948119D01*
X97815913Y-42949543D01*
X98044000Y-42969498D01*
X98272087Y-42949543D01*
X98277398Y-42948120D01*
X98277409Y-42948118D01*
X98335541Y-42932541D01*
X98406517Y-42934230D01*
X98457248Y-42965152D01*
X98653595Y-43161499D01*
X98687621Y-43223811D01*
X98690500Y-43250594D01*
X98690500Y-47577500D01*
X98670498Y-47645621D01*
X98616842Y-47692114D01*
X98564500Y-47703500D01*
X98475866Y-47703500D01*
X98413684Y-47710255D01*
X98277295Y-47761385D01*
X98160739Y-47848739D01*
X98073385Y-47965295D01*
X98022255Y-48101684D01*
X98015500Y-48163866D01*
X98015500Y-48252500D01*
X97995498Y-48320621D01*
X97941842Y-48367114D01*
X97889500Y-48378500D01*
X88734763Y-48378500D01*
X88723579Y-48377973D01*
X88716091Y-48376299D01*
X88708168Y-48376548D01*
X88648033Y-48378438D01*
X88644075Y-48378500D01*
X88616144Y-48378500D01*
X88612229Y-48378995D01*
X88612225Y-48378995D01*
X88612167Y-48379003D01*
X88612138Y-48379006D01*
X88600296Y-48379939D01*
X88556110Y-48381327D01*
X88538744Y-48386372D01*
X88536658Y-48386978D01*
X88517306Y-48390986D01*
X88510235Y-48391880D01*
X88497203Y-48393526D01*
X88489834Y-48396443D01*
X88489832Y-48396444D01*
X88456097Y-48409800D01*
X88444869Y-48413645D01*
X88402407Y-48425982D01*
X88395585Y-48430016D01*
X88395579Y-48430019D01*
X88384968Y-48436294D01*
X88367218Y-48444990D01*
X88355756Y-48449528D01*
X88355751Y-48449531D01*
X88348383Y-48452448D01*
X88330970Y-48465099D01*
X88312625Y-48478427D01*
X88302707Y-48484943D01*
X88291463Y-48491593D01*
X88264637Y-48507458D01*
X88250313Y-48521782D01*
X88235281Y-48534621D01*
X88218893Y-48546528D01*
X88190712Y-48580593D01*
X88182722Y-48589373D01*
X86983747Y-49788348D01*
X86975461Y-49795888D01*
X86968982Y-49800000D01*
X86963557Y-49805777D01*
X86922357Y-49849651D01*
X86919602Y-49852493D01*
X86899865Y-49872230D01*
X86897385Y-49875427D01*
X86889682Y-49884447D01*
X86859414Y-49916679D01*
X86855595Y-49923625D01*
X86855593Y-49923628D01*
X86849652Y-49934434D01*
X86838801Y-49950953D01*
X86826386Y-49966959D01*
X86823241Y-49974228D01*
X86823238Y-49974232D01*
X86808826Y-50007537D01*
X86803609Y-50018187D01*
X86782305Y-50056940D01*
X86780334Y-50064615D01*
X86780334Y-50064616D01*
X86777267Y-50076562D01*
X86770863Y-50095266D01*
X86762819Y-50113855D01*
X86761580Y-50121678D01*
X86761577Y-50121688D01*
X86755901Y-50157524D01*
X86753495Y-50169144D01*
X86742500Y-50211970D01*
X86742500Y-50232224D01*
X86740949Y-50251934D01*
X86737780Y-50271943D01*
X81788000Y-50271943D01*
X81788000Y-36702500D01*
X81808002Y-36634379D01*
X81861658Y-36587886D01*
X81914000Y-36576500D01*
X135815785Y-36576500D01*
X135883906Y-36596502D01*
G37*
%TD.AperFunction*%
%TA.AperFunction,Conductor*%
G36*
X97957621Y-49665502D02*
G01*
X98004114Y-49719158D01*
X98015500Y-49771500D01*
X98015500Y-49860134D01*
X98022255Y-49922316D01*
X98073385Y-50058705D01*
X98160739Y-50175261D01*
X98277295Y-50262615D01*
X98413684Y-50313745D01*
X98424474Y-50314917D01*
X98426606Y-50315803D01*
X98429222Y-50316425D01*
X98429121Y-50316848D01*
X98490035Y-50342155D01*
X98530463Y-50400517D01*
X98532922Y-50471471D01*
X98496629Y-50532490D01*
X98487969Y-50539489D01*
X98484207Y-50542646D01*
X98479700Y-50545802D01*
X98317802Y-50707700D01*
X98186477Y-50895251D01*
X98184154Y-50900233D01*
X98184151Y-50900238D01*
X98137803Y-50999633D01*
X98089716Y-51102757D01*
X98088294Y-51108065D01*
X98088293Y-51108067D01*
X98038677Y-51293235D01*
X98030457Y-51323913D01*
X98010502Y-51552000D01*
X98030457Y-51780087D01*
X98031881Y-51785400D01*
X98031881Y-51785402D01*
X98072250Y-51936058D01*
X98089716Y-52001243D01*
X98092039Y-52006224D01*
X98092039Y-52006225D01*
X98184151Y-52203762D01*
X98184154Y-52203767D01*
X98186477Y-52208749D01*
X98317802Y-52396300D01*
X98479700Y-52558198D01*
X98484208Y-52561355D01*
X98484211Y-52561357D01*
X98562389Y-52616098D01*
X98667251Y-52689523D01*
X98672233Y-52691846D01*
X98672238Y-52691849D01*
X98707049Y-52708081D01*
X98760334Y-52754998D01*
X98779795Y-52823275D01*
X98759253Y-52891235D01*
X98707049Y-52936471D01*
X98672489Y-52952586D01*
X98662993Y-52958069D01*
X98484533Y-53083028D01*
X98476125Y-53090084D01*
X98322084Y-53244125D01*
X98315028Y-53252533D01*
X98190069Y-53430993D01*
X98184586Y-53440489D01*
X98092510Y-53637947D01*
X98088764Y-53648239D01*
X98042606Y-53820503D01*
X98042942Y-53834599D01*
X98050884Y-53838000D01*
X100591967Y-53838000D01*
X100605498Y-53834027D01*
X100606727Y-53825478D01*
X100559236Y-53648239D01*
X100555490Y-53637947D01*
X100463414Y-53440489D01*
X100457931Y-53430993D01*
X100332972Y-53252533D01*
X100325916Y-53244125D01*
X100171875Y-53090084D01*
X100163467Y-53083028D01*
X99985007Y-52958069D01*
X99975511Y-52952586D01*
X99940951Y-52936471D01*
X99887666Y-52889554D01*
X99868205Y-52821277D01*
X99888747Y-52753317D01*
X99940951Y-52708081D01*
X99975762Y-52691849D01*
X99975767Y-52691846D01*
X99980749Y-52689523D01*
X100085611Y-52616098D01*
X100163789Y-52561357D01*
X100163792Y-52561355D01*
X100168300Y-52558198D01*
X100330198Y-52396300D01*
X100440181Y-52239229D01*
X100495638Y-52194901D01*
X100543394Y-52185500D01*
X105724606Y-52185500D01*
X105792727Y-52205502D01*
X105827819Y-52239229D01*
X105937802Y-52396300D01*
X106099700Y-52558198D01*
X106104208Y-52561355D01*
X106104211Y-52561357D01*
X106182389Y-52616098D01*
X106287251Y-52689523D01*
X106292233Y-52691846D01*
X106292238Y-52691849D01*
X106326457Y-52707805D01*
X106379742Y-52754722D01*
X106399203Y-52822999D01*
X106378661Y-52890959D01*
X106326457Y-52936195D01*
X106292238Y-52952151D01*
X106292233Y-52952154D01*
X106287251Y-52954477D01*
X106254368Y-52977502D01*
X106104211Y-53082643D01*
X106104208Y-53082645D01*
X106099700Y-53085802D01*
X105937802Y-53247700D01*
X105934645Y-53252208D01*
X105934643Y-53252211D01*
X105913637Y-53282211D01*
X105806477Y-53435251D01*
X105804154Y-53440233D01*
X105804151Y-53440238D01*
X105790162Y-53470238D01*
X105709716Y-53642757D01*
X105708294Y-53648065D01*
X105708293Y-53648067D01*
X105662089Y-53820503D01*
X105650457Y-53863913D01*
X105630502Y-54092000D01*
X105650457Y-54320087D01*
X105651881Y-54325400D01*
X105651881Y-54325402D01*
X105658496Y-54350087D01*
X105709716Y-54541243D01*
X105712039Y-54546224D01*
X105712039Y-54546225D01*
X105804151Y-54743762D01*
X105804154Y-54743767D01*
X105806477Y-54748749D01*
X105830640Y-54783257D01*
X105894220Y-54874058D01*
X105937802Y-54936300D01*
X106099700Y-55098198D01*
X106104208Y-55101355D01*
X106104211Y-55101357D01*
X106136979Y-55124301D01*
X106287251Y-55229523D01*
X106292233Y-55231846D01*
X106292238Y-55231849D01*
X106326457Y-55247805D01*
X106379742Y-55294722D01*
X106399203Y-55362999D01*
X106378661Y-55430959D01*
X106326457Y-55476195D01*
X106292238Y-55492151D01*
X106292233Y-55492154D01*
X106287251Y-55494477D01*
X106182389Y-55567902D01*
X106104211Y-55622643D01*
X106104208Y-55622645D01*
X106099700Y-55625802D01*
X105937802Y-55787700D01*
X105806477Y-55975251D01*
X105804154Y-55980233D01*
X105804151Y-55980238D01*
X105744114Y-56108989D01*
X105709716Y-56182757D01*
X105708294Y-56188065D01*
X105708293Y-56188067D01*
X105651881Y-56398598D01*
X105650457Y-56403913D01*
X105630502Y-56632000D01*
X105650457Y-56860087D01*
X105651881Y-56865400D01*
X105651881Y-56865402D01*
X105705614Y-57065933D01*
X105709716Y-57081243D01*
X105712039Y-57086224D01*
X105712039Y-57086225D01*
X105804151Y-57283762D01*
X105804154Y-57283767D01*
X105806477Y-57288749D01*
X105826819Y-57317800D01*
X105933529Y-57470197D01*
X105937802Y-57476300D01*
X106099700Y-57638198D01*
X106104208Y-57641355D01*
X106104211Y-57641357D01*
X106160642Y-57680870D01*
X106287251Y-57769523D01*
X106292233Y-57771846D01*
X106292238Y-57771849D01*
X106326457Y-57787805D01*
X106379742Y-57834722D01*
X106399203Y-57902999D01*
X106378661Y-57970959D01*
X106326457Y-58016195D01*
X106292238Y-58032151D01*
X106292233Y-58032154D01*
X106287251Y-58034477D01*
X106182389Y-58107902D01*
X106104211Y-58162643D01*
X106104208Y-58162645D01*
X106099700Y-58165802D01*
X105937802Y-58327700D01*
X105806477Y-58515251D01*
X105804154Y-58520233D01*
X105804151Y-58520238D01*
X105730882Y-58677365D01*
X105709716Y-58722757D01*
X105708294Y-58728065D01*
X105708293Y-58728067D01*
X105651883Y-58938591D01*
X105650457Y-58943913D01*
X105630502Y-59172000D01*
X105650457Y-59400087D01*
X105651881Y-59405400D01*
X105651881Y-59405402D01*
X105693611Y-59561137D01*
X105709716Y-59621243D01*
X105712039Y-59626224D01*
X105712039Y-59626225D01*
X105804151Y-59823762D01*
X105804154Y-59823767D01*
X105806477Y-59828749D01*
X105858705Y-59903338D01*
X105932158Y-60008239D01*
X105937802Y-60016300D01*
X106099700Y-60178198D01*
X106104208Y-60181355D01*
X106104211Y-60181357D01*
X106172814Y-60229393D01*
X106287251Y-60309523D01*
X106292233Y-60311846D01*
X106292238Y-60311849D01*
X106326457Y-60327805D01*
X106379742Y-60374722D01*
X106399203Y-60442999D01*
X106378661Y-60510959D01*
X106326457Y-60556195D01*
X106292238Y-60572151D01*
X106292233Y-60572154D01*
X106287251Y-60574477D01*
X106182389Y-60647902D01*
X106104211Y-60702643D01*
X106104208Y-60702645D01*
X106099700Y-60705802D01*
X105937802Y-60867700D01*
X105934645Y-60872208D01*
X105934643Y-60872211D01*
X105827819Y-61024771D01*
X105772362Y-61069099D01*
X105724606Y-61078500D01*
X100543394Y-61078500D01*
X100475273Y-61058498D01*
X100440181Y-61024771D01*
X100333357Y-60872211D01*
X100333355Y-60872208D01*
X100330198Y-60867700D01*
X100168300Y-60705802D01*
X100163792Y-60702645D01*
X100163789Y-60702643D01*
X100085611Y-60647902D01*
X99980749Y-60574477D01*
X99975767Y-60572154D01*
X99975762Y-60572151D01*
X99941543Y-60556195D01*
X99888258Y-60509278D01*
X99868797Y-60441001D01*
X99889339Y-60373041D01*
X99941543Y-60327805D01*
X99975762Y-60311849D01*
X99975767Y-60311846D01*
X99980749Y-60309523D01*
X100095186Y-60229393D01*
X100163789Y-60181357D01*
X100163792Y-60181355D01*
X100168300Y-60178198D01*
X100330198Y-60016300D01*
X100335843Y-60008239D01*
X100409295Y-59903338D01*
X100461523Y-59828749D01*
X100463846Y-59823767D01*
X100463849Y-59823762D01*
X100555961Y-59626225D01*
X100555961Y-59626224D01*
X100558284Y-59621243D01*
X100574390Y-59561137D01*
X100616119Y-59405402D01*
X100616119Y-59405400D01*
X100617543Y-59400087D01*
X100637498Y-59172000D01*
X100617543Y-58943913D01*
X100616117Y-58938591D01*
X100559707Y-58728067D01*
X100559706Y-58728065D01*
X100558284Y-58722757D01*
X100537118Y-58677365D01*
X100463849Y-58520238D01*
X100463846Y-58520233D01*
X100461523Y-58515251D01*
X100330198Y-58327700D01*
X100168300Y-58165802D01*
X100163792Y-58162645D01*
X100163789Y-58162643D01*
X100085611Y-58107902D01*
X99980749Y-58034477D01*
X99975767Y-58032154D01*
X99975762Y-58032151D01*
X99941543Y-58016195D01*
X99888258Y-57969278D01*
X99868797Y-57901001D01*
X99889339Y-57833041D01*
X99941543Y-57787805D01*
X99975762Y-57771849D01*
X99975767Y-57771846D01*
X99980749Y-57769523D01*
X100107358Y-57680870D01*
X100163789Y-57641357D01*
X100163792Y-57641355D01*
X100168300Y-57638198D01*
X100330198Y-57476300D01*
X100334472Y-57470197D01*
X100441181Y-57317800D01*
X100461523Y-57288749D01*
X100463846Y-57283767D01*
X100463849Y-57283762D01*
X100555961Y-57086225D01*
X100555961Y-57086224D01*
X100558284Y-57081243D01*
X100562387Y-57065933D01*
X100616119Y-56865402D01*
X100616119Y-56865400D01*
X100617543Y-56860087D01*
X100637498Y-56632000D01*
X100617543Y-56403913D01*
X100616119Y-56398598D01*
X100559707Y-56188067D01*
X100559706Y-56188065D01*
X100558284Y-56182757D01*
X100523886Y-56108989D01*
X100463849Y-55980238D01*
X100463846Y-55980233D01*
X100461523Y-55975251D01*
X100330198Y-55787700D01*
X100168300Y-55625802D01*
X100163792Y-55622645D01*
X100163789Y-55622643D01*
X100085611Y-55567902D01*
X99980749Y-55494477D01*
X99975767Y-55492154D01*
X99975762Y-55492151D01*
X99940951Y-55475919D01*
X99887666Y-55429002D01*
X99868205Y-55360725D01*
X99888747Y-55292765D01*
X99940951Y-55247529D01*
X99975511Y-55231414D01*
X99985007Y-55225931D01*
X100163467Y-55100972D01*
X100171875Y-55093916D01*
X100325916Y-54939875D01*
X100332972Y-54931467D01*
X100457931Y-54753007D01*
X100463414Y-54743511D01*
X100555490Y-54546053D01*
X100559236Y-54535761D01*
X100605394Y-54363497D01*
X100605058Y-54349401D01*
X100597116Y-54346000D01*
X98056033Y-54346000D01*
X98042502Y-54349973D01*
X98041273Y-54358522D01*
X98088764Y-54535761D01*
X98092510Y-54546053D01*
X98184586Y-54743511D01*
X98190069Y-54753007D01*
X98315028Y-54931467D01*
X98322084Y-54939875D01*
X98476125Y-55093916D01*
X98484533Y-55100972D01*
X98662993Y-55225931D01*
X98672489Y-55231414D01*
X98707049Y-55247529D01*
X98760334Y-55294446D01*
X98779795Y-55362723D01*
X98759253Y-55430683D01*
X98707049Y-55475919D01*
X98672238Y-55492151D01*
X98672233Y-55492154D01*
X98667251Y-55494477D01*
X98562389Y-55567902D01*
X98484211Y-55622643D01*
X98484208Y-55622645D01*
X98479700Y-55625802D01*
X98317802Y-55787700D01*
X98186477Y-55975251D01*
X98184154Y-55980233D01*
X98184151Y-55980238D01*
X98124114Y-56108989D01*
X98089716Y-56182757D01*
X98088294Y-56188065D01*
X98088293Y-56188067D01*
X98031881Y-56398598D01*
X98030457Y-56403913D01*
X98010502Y-56632000D01*
X98010981Y-56637475D01*
X98010981Y-56637485D01*
X98012026Y-56649428D01*
X97998038Y-56719033D01*
X97948639Y-56770026D01*
X97879514Y-56786217D01*
X97812608Y-56762465D01*
X97797411Y-56749506D01*
X96451770Y-55403865D01*
X96357041Y-55330386D01*
X96210145Y-55266819D01*
X96144169Y-55256369D01*
X96114270Y-55251633D01*
X96102660Y-55249229D01*
X96092030Y-55246500D01*
X96084099Y-55246500D01*
X96076239Y-55245507D01*
X96076268Y-55245280D01*
X96072065Y-55244949D01*
X96069534Y-55244548D01*
X96052057Y-55241780D01*
X96044165Y-55242526D01*
X96008039Y-55245941D01*
X95996181Y-55246500D01*
X89994763Y-55246500D01*
X89983579Y-55245973D01*
X89976091Y-55244299D01*
X89968168Y-55244548D01*
X89908033Y-55246438D01*
X89904075Y-55246500D01*
X89876144Y-55246500D01*
X89872229Y-55246995D01*
X89872225Y-55246995D01*
X89872167Y-55247003D01*
X89872138Y-55247006D01*
X89860296Y-55247939D01*
X89816110Y-55249327D01*
X89798744Y-55254372D01*
X89796658Y-55254978D01*
X89777306Y-55258986D01*
X89765068Y-55260532D01*
X89765066Y-55260533D01*
X89757203Y-55261526D01*
X89716086Y-55277806D01*
X89704885Y-55281641D01*
X89662406Y-55293982D01*
X89655587Y-55298015D01*
X89655582Y-55298017D01*
X89644971Y-55304293D01*
X89627221Y-55312990D01*
X89608383Y-55320448D01*
X89601967Y-55325109D01*
X89601966Y-55325110D01*
X89572625Y-55346428D01*
X89562701Y-55352947D01*
X89531460Y-55371422D01*
X89531455Y-55371426D01*
X89524637Y-55375458D01*
X89510313Y-55389782D01*
X89495281Y-55402621D01*
X89478893Y-55414528D01*
X89450712Y-55448593D01*
X89442722Y-55457373D01*
X89015747Y-55884348D01*
X89007461Y-55891888D01*
X89000982Y-55896000D01*
X88995557Y-55901777D01*
X88954357Y-55945651D01*
X88951602Y-55948493D01*
X88931865Y-55968230D01*
X88929385Y-55971427D01*
X88921682Y-55980447D01*
X88891414Y-56012679D01*
X88887595Y-56019625D01*
X88887593Y-56019628D01*
X88881652Y-56030434D01*
X88870801Y-56046953D01*
X88858386Y-56062959D01*
X88855241Y-56070228D01*
X88855238Y-56070232D01*
X88840826Y-56103537D01*
X88835609Y-56114187D01*
X88814305Y-56152940D01*
X88812334Y-56160615D01*
X88812334Y-56160616D01*
X88809267Y-56172562D01*
X88802863Y-56191266D01*
X88794819Y-56209855D01*
X88793580Y-56217678D01*
X88793577Y-56217688D01*
X88787901Y-56253524D01*
X88785495Y-56265144D01*
X88774500Y-56307970D01*
X88774500Y-56328224D01*
X88772949Y-56347934D01*
X88769780Y-56367943D01*
X88770526Y-56375835D01*
X88773941Y-56411961D01*
X88774500Y-56423819D01*
X88774500Y-79176207D01*
X88772268Y-79199816D01*
X88770725Y-79207906D01*
X88771223Y-79215817D01*
X88774251Y-79263951D01*
X88774500Y-79271862D01*
X88774500Y-79287856D01*
X88776506Y-79303730D01*
X88777249Y-79311598D01*
X88779570Y-79348489D01*
X88780775Y-79367650D01*
X88783225Y-79375191D01*
X88783321Y-79375487D01*
X88788494Y-79398631D01*
X88788532Y-79398935D01*
X88788533Y-79398940D01*
X88789526Y-79406797D01*
X88792442Y-79414162D01*
X88792443Y-79414166D01*
X88810199Y-79459011D01*
X88812871Y-79466430D01*
X88830236Y-79519875D01*
X88834486Y-79526571D01*
X88834486Y-79526572D01*
X88834650Y-79526831D01*
X88845415Y-79547958D01*
X88845529Y-79548246D01*
X88845532Y-79548251D01*
X88848448Y-79555617D01*
X88853104Y-79562025D01*
X88853107Y-79562031D01*
X88881458Y-79601052D01*
X88885901Y-79607589D01*
X88916000Y-79655018D01*
X88921778Y-79660444D01*
X88921779Y-79660445D01*
X88922007Y-79660659D01*
X88937688Y-79678446D01*
X88942528Y-79685107D01*
X88948637Y-79690161D01*
X88948638Y-79690162D01*
X88985796Y-79720903D01*
X88991730Y-79726134D01*
X89026898Y-79759158D01*
X89026901Y-79759160D01*
X89032679Y-79764586D01*
X89039903Y-79768558D01*
X89059506Y-79781881D01*
X89059746Y-79782080D01*
X89059753Y-79782084D01*
X89065856Y-79787133D01*
X89091262Y-79799088D01*
X89116676Y-79811047D01*
X89123708Y-79814629D01*
X89172940Y-79841695D01*
X89180615Y-79843665D01*
X89180621Y-79843668D01*
X89180919Y-79843744D01*
X89203228Y-79851776D01*
X89203503Y-79851906D01*
X89203511Y-79851909D01*
X89210682Y-79855283D01*
X89265849Y-79865806D01*
X89273558Y-79867529D01*
X89296003Y-79873292D01*
X89320293Y-79879529D01*
X89320294Y-79879529D01*
X89327970Y-79881500D01*
X89336207Y-79881500D01*
X89359816Y-79883732D01*
X89360119Y-79883790D01*
X89360123Y-79883790D01*
X89367906Y-79885275D01*
X89423951Y-79881749D01*
X89431862Y-79881500D01*
X90971321Y-79881500D01*
X91039442Y-79901502D01*
X91066557Y-79925001D01*
X91103750Y-79967938D01*
X91275626Y-80110632D01*
X91298460Y-80123975D01*
X91348945Y-80153476D01*
X91397669Y-80205114D01*
X91410740Y-80274897D01*
X91384009Y-80340669D01*
X91343555Y-80374027D01*
X91331107Y-80380507D01*
X91326974Y-80383610D01*
X91326971Y-80383612D01*
X91156600Y-80511530D01*
X91152465Y-80514635D01*
X91125345Y-80543014D01*
X91002509Y-80671555D01*
X90998129Y-80676138D01*
X90995215Y-80680410D01*
X90995214Y-80680411D01*
X90882595Y-80845504D01*
X90827684Y-80890507D01*
X90778507Y-80900500D01*
X88960595Y-80900500D01*
X88892474Y-80880498D01*
X88871500Y-80863595D01*
X88046405Y-80038500D01*
X88012379Y-79976188D01*
X88009500Y-79949405D01*
X88009500Y-50606594D01*
X88029502Y-50538473D01*
X88046405Y-50517499D01*
X88881499Y-49682405D01*
X88943811Y-49648379D01*
X88970594Y-49645500D01*
X97889500Y-49645500D01*
X97957621Y-49665502D01*
G37*
%TD.AperFunction*%
%TA.AperFunction,Conductor*%
G36*
X122832621Y-52977502D02*
G01*
X122879114Y-53031158D01*
X122890500Y-53083500D01*
X122890500Y-54865233D01*
X122889973Y-54876416D01*
X122888298Y-54883909D01*
X122888547Y-54891835D01*
X122888547Y-54891836D01*
X122890438Y-54951986D01*
X122890500Y-54955945D01*
X122890500Y-54983856D01*
X122890997Y-54987790D01*
X122890997Y-54987791D01*
X122891005Y-54987856D01*
X122891938Y-54999693D01*
X122893327Y-55043889D01*
X122898978Y-55063339D01*
X122902987Y-55082700D01*
X122905526Y-55102797D01*
X122908445Y-55110168D01*
X122908445Y-55110170D01*
X122921804Y-55143912D01*
X122925649Y-55155142D01*
X122937982Y-55197593D01*
X122942015Y-55204412D01*
X122942017Y-55204417D01*
X122948293Y-55215028D01*
X122956988Y-55232776D01*
X122964448Y-55251617D01*
X122969110Y-55258033D01*
X122969110Y-55258034D01*
X122990436Y-55287387D01*
X122996952Y-55297307D01*
X123014653Y-55327237D01*
X123019458Y-55335362D01*
X123033779Y-55349683D01*
X123046619Y-55364716D01*
X123058528Y-55381107D01*
X123092605Y-55409298D01*
X123101384Y-55417288D01*
X125821595Y-58137500D01*
X125855621Y-58199812D01*
X125858500Y-58226595D01*
X125858500Y-61661405D01*
X125838498Y-61729526D01*
X125821595Y-61750500D01*
X124575747Y-62996348D01*
X124567461Y-63003888D01*
X124560982Y-63008000D01*
X124555557Y-63013777D01*
X124514357Y-63057651D01*
X124511602Y-63060493D01*
X124491865Y-63080230D01*
X124489385Y-63083427D01*
X124481682Y-63092447D01*
X124451414Y-63124679D01*
X124447595Y-63131625D01*
X124447593Y-63131628D01*
X124441652Y-63142434D01*
X124430801Y-63158953D01*
X124418386Y-63174959D01*
X124415241Y-63182228D01*
X124415238Y-63182232D01*
X124400826Y-63215537D01*
X124395609Y-63226187D01*
X124374305Y-63264940D01*
X124372334Y-63272615D01*
X124372334Y-63272616D01*
X124369267Y-63284562D01*
X124362863Y-63303266D01*
X124354819Y-63321855D01*
X124353580Y-63329678D01*
X124353577Y-63329688D01*
X124347901Y-63365524D01*
X124345495Y-63377144D01*
X124334500Y-63419970D01*
X124334500Y-63440224D01*
X124332949Y-63459934D01*
X124329780Y-63479943D01*
X124330526Y-63487835D01*
X124333941Y-63523961D01*
X124334500Y-63535819D01*
X124334500Y-71620500D01*
X124314498Y-71688621D01*
X124260842Y-71735114D01*
X124208500Y-71746500D01*
X108163394Y-71746500D01*
X108095273Y-71726498D01*
X108060181Y-71692771D01*
X107953357Y-71540211D01*
X107953355Y-71540208D01*
X107950198Y-71535700D01*
X107788300Y-71373802D01*
X107783792Y-71370645D01*
X107783789Y-71370643D01*
X107705611Y-71315902D01*
X107600749Y-71242477D01*
X107595767Y-71240154D01*
X107595762Y-71240151D01*
X107398225Y-71148039D01*
X107398224Y-71148039D01*
X107393243Y-71145716D01*
X107387935Y-71144294D01*
X107387933Y-71144293D01*
X107177402Y-71087881D01*
X107177400Y-71087881D01*
X107172087Y-71086457D01*
X106944000Y-71066502D01*
X106715913Y-71086457D01*
X106710600Y-71087881D01*
X106710598Y-71087881D01*
X106500067Y-71144293D01*
X106500065Y-71144294D01*
X106494757Y-71145716D01*
X106489776Y-71148039D01*
X106489775Y-71148039D01*
X106292238Y-71240151D01*
X106292233Y-71240154D01*
X106287251Y-71242477D01*
X106182389Y-71315902D01*
X106104211Y-71370643D01*
X106104208Y-71370645D01*
X106099700Y-71373802D01*
X105937802Y-71535700D01*
X105934645Y-71540208D01*
X105934643Y-71540211D01*
X105827819Y-71692771D01*
X105772362Y-71737099D01*
X105724606Y-71746500D01*
X104482763Y-71746500D01*
X104471579Y-71745973D01*
X104464091Y-71744299D01*
X104456168Y-71744548D01*
X104396033Y-71746438D01*
X104392075Y-71746500D01*
X104364144Y-71746500D01*
X104360229Y-71746995D01*
X104360225Y-71746995D01*
X104360167Y-71747003D01*
X104360138Y-71747006D01*
X104348296Y-71747939D01*
X104304110Y-71749327D01*
X104286744Y-71754372D01*
X104284658Y-71754978D01*
X104265306Y-71758986D01*
X104253068Y-71760532D01*
X104253066Y-71760533D01*
X104245203Y-71761526D01*
X104204086Y-71777806D01*
X104192885Y-71781641D01*
X104150406Y-71793982D01*
X104143587Y-71798015D01*
X104143582Y-71798017D01*
X104132971Y-71804293D01*
X104115221Y-71812990D01*
X104096383Y-71820448D01*
X104089967Y-71825109D01*
X104089966Y-71825110D01*
X104060625Y-71846428D01*
X104050701Y-71852947D01*
X104019460Y-71871422D01*
X104019455Y-71871426D01*
X104012637Y-71875458D01*
X103998313Y-71889782D01*
X103983281Y-71902621D01*
X103966893Y-71914528D01*
X103966715Y-71914743D01*
X103906400Y-71945256D01*
X103835779Y-71937968D01*
X103780308Y-71893656D01*
X103757500Y-71821355D01*
X103757500Y-68904062D01*
X115610493Y-68904062D01*
X115619789Y-68916077D01*
X115670994Y-68951931D01*
X115680489Y-68957414D01*
X115877947Y-69049490D01*
X115888239Y-69053236D01*
X116098688Y-69109625D01*
X116109481Y-69111528D01*
X116326525Y-69130517D01*
X116337475Y-69130517D01*
X116554519Y-69111528D01*
X116565312Y-69109625D01*
X116775761Y-69053236D01*
X116786053Y-69049490D01*
X116983511Y-68957414D01*
X116993006Y-68951931D01*
X117045048Y-68915491D01*
X117053424Y-68905012D01*
X117052925Y-68904062D01*
X119420493Y-68904062D01*
X119429789Y-68916077D01*
X119480994Y-68951931D01*
X119490489Y-68957414D01*
X119687947Y-69049490D01*
X119698239Y-69053236D01*
X119908688Y-69109625D01*
X119919481Y-69111528D01*
X120136525Y-69130517D01*
X120147475Y-69130517D01*
X120364519Y-69111528D01*
X120375312Y-69109625D01*
X120585761Y-69053236D01*
X120596053Y-69049490D01*
X120793511Y-68957414D01*
X120803006Y-68951931D01*
X120855048Y-68915491D01*
X120863424Y-68905012D01*
X120856356Y-68891566D01*
X120154812Y-68190022D01*
X120140868Y-68182408D01*
X120139035Y-68182539D01*
X120132420Y-68186790D01*
X119426923Y-68892287D01*
X119420493Y-68904062D01*
X117052925Y-68904062D01*
X117046356Y-68891566D01*
X116344812Y-68190022D01*
X116330868Y-68182408D01*
X116329035Y-68182539D01*
X116322420Y-68186790D01*
X115616923Y-68892287D01*
X115610493Y-68904062D01*
X103757500Y-68904062D01*
X103757500Y-68386594D01*
X103777502Y-68318473D01*
X103794405Y-68297499D01*
X104268429Y-67823475D01*
X115019483Y-67823475D01*
X115038472Y-68040519D01*
X115040375Y-68051312D01*
X115096764Y-68261761D01*
X115100510Y-68272053D01*
X115192586Y-68469511D01*
X115198069Y-68479006D01*
X115234509Y-68531048D01*
X115244988Y-68539424D01*
X115258434Y-68532356D01*
X115959978Y-67830812D01*
X115966356Y-67819132D01*
X116696408Y-67819132D01*
X116696539Y-67820965D01*
X116700790Y-67827580D01*
X117406287Y-68533077D01*
X117418062Y-68539507D01*
X117430077Y-68530211D01*
X117465931Y-68479006D01*
X117471414Y-68469511D01*
X117563490Y-68272053D01*
X117567236Y-68261761D01*
X117623625Y-68051312D01*
X117625528Y-68040519D01*
X117644517Y-67823475D01*
X118829483Y-67823475D01*
X118848472Y-68040519D01*
X118850375Y-68051312D01*
X118906764Y-68261761D01*
X118910510Y-68272053D01*
X119002586Y-68469511D01*
X119008069Y-68479006D01*
X119044509Y-68531048D01*
X119054988Y-68539424D01*
X119068434Y-68532356D01*
X119769978Y-67830812D01*
X119776356Y-67819132D01*
X120506408Y-67819132D01*
X120506539Y-67820965D01*
X120510790Y-67827580D01*
X121216287Y-68533077D01*
X121228062Y-68539507D01*
X121240077Y-68530211D01*
X121275931Y-68479006D01*
X121281414Y-68469511D01*
X121373490Y-68272053D01*
X121377236Y-68261761D01*
X121433625Y-68051312D01*
X121435528Y-68040519D01*
X121454517Y-67823475D01*
X121454517Y-67812525D01*
X121435528Y-67595481D01*
X121433625Y-67584688D01*
X121377236Y-67374239D01*
X121373490Y-67363947D01*
X121281414Y-67166489D01*
X121275931Y-67156994D01*
X121239491Y-67104952D01*
X121229012Y-67096576D01*
X121215566Y-67103644D01*
X120514022Y-67805188D01*
X120506408Y-67819132D01*
X119776356Y-67819132D01*
X119777592Y-67816868D01*
X119777461Y-67815035D01*
X119773210Y-67808420D01*
X119067713Y-67102923D01*
X119055938Y-67096493D01*
X119043923Y-67105789D01*
X119008069Y-67156994D01*
X119002586Y-67166489D01*
X118910510Y-67363947D01*
X118906764Y-67374239D01*
X118850375Y-67584688D01*
X118848472Y-67595481D01*
X118829483Y-67812525D01*
X118829483Y-67823475D01*
X117644517Y-67823475D01*
X117644517Y-67812525D01*
X117625528Y-67595481D01*
X117623625Y-67584688D01*
X117567236Y-67374239D01*
X117563490Y-67363947D01*
X117471414Y-67166489D01*
X117465931Y-67156994D01*
X117429491Y-67104952D01*
X117419012Y-67096576D01*
X117405566Y-67103644D01*
X116704022Y-67805188D01*
X116696408Y-67819132D01*
X115966356Y-67819132D01*
X115967592Y-67816868D01*
X115967461Y-67815035D01*
X115963210Y-67808420D01*
X115257713Y-67102923D01*
X115245938Y-67096493D01*
X115233923Y-67105789D01*
X115198069Y-67156994D01*
X115192586Y-67166489D01*
X115100510Y-67363947D01*
X115096764Y-67374239D01*
X115040375Y-67584688D01*
X115038472Y-67595481D01*
X115019483Y-67812525D01*
X115019483Y-67823475D01*
X104268429Y-67823475D01*
X105360916Y-66730988D01*
X115610576Y-66730988D01*
X115617644Y-66744434D01*
X116319188Y-67445978D01*
X116333132Y-67453592D01*
X116334965Y-67453461D01*
X116341580Y-67449210D01*
X117047077Y-66743713D01*
X117053507Y-66731938D01*
X117052772Y-66730988D01*
X119420576Y-66730988D01*
X119427644Y-66744434D01*
X120129188Y-67445978D01*
X120143132Y-67453592D01*
X120144965Y-67453461D01*
X120151580Y-67449210D01*
X120857077Y-66743713D01*
X120863507Y-66731938D01*
X120854211Y-66719923D01*
X120803006Y-66684069D01*
X120793511Y-66678586D01*
X120596053Y-66586510D01*
X120585761Y-66582764D01*
X120375312Y-66526375D01*
X120364519Y-66524472D01*
X120147475Y-66505483D01*
X120136525Y-66505483D01*
X119919481Y-66524472D01*
X119908688Y-66526375D01*
X119698239Y-66582764D01*
X119687947Y-66586510D01*
X119490489Y-66678586D01*
X119480994Y-66684069D01*
X119428952Y-66720509D01*
X119420576Y-66730988D01*
X117052772Y-66730988D01*
X117044211Y-66719923D01*
X116993006Y-66684069D01*
X116983511Y-66678586D01*
X116786053Y-66586510D01*
X116775761Y-66582764D01*
X116565312Y-66526375D01*
X116554519Y-66524472D01*
X116337475Y-66505483D01*
X116326525Y-66505483D01*
X116109481Y-66524472D01*
X116098688Y-66526375D01*
X115888239Y-66582764D01*
X115877947Y-66586510D01*
X115680489Y-66678586D01*
X115670994Y-66684069D01*
X115618952Y-66720509D01*
X115610576Y-66730988D01*
X105360916Y-66730988D01*
X106530752Y-65561152D01*
X106593064Y-65527126D01*
X106652459Y-65528541D01*
X106710591Y-65544118D01*
X106710602Y-65544120D01*
X106715913Y-65545543D01*
X106944000Y-65565498D01*
X107172087Y-65545543D01*
X107177400Y-65544119D01*
X107177402Y-65544119D01*
X107387933Y-65487707D01*
X107387935Y-65487706D01*
X107393243Y-65486284D01*
X107399235Y-65483490D01*
X107595762Y-65391849D01*
X107595767Y-65391846D01*
X107600749Y-65389523D01*
X107727358Y-65300870D01*
X107783789Y-65261357D01*
X107783792Y-65261355D01*
X107788300Y-65258198D01*
X107950198Y-65096300D01*
X107957856Y-65085364D01*
X108029295Y-64983338D01*
X108081523Y-64908749D01*
X108083846Y-64903767D01*
X108083849Y-64903762D01*
X108175961Y-64706225D01*
X108175961Y-64706224D01*
X108178284Y-64701243D01*
X108194390Y-64641137D01*
X108236119Y-64485402D01*
X108236119Y-64485400D01*
X108237543Y-64480087D01*
X108257498Y-64252000D01*
X108237543Y-64023913D01*
X108214669Y-63938547D01*
X108179707Y-63808067D01*
X108179706Y-63808065D01*
X108178284Y-63802757D01*
X108157118Y-63757365D01*
X108083849Y-63600238D01*
X108083846Y-63600233D01*
X108081523Y-63595251D01*
X107995301Y-63472114D01*
X107953357Y-63412211D01*
X107953355Y-63412208D01*
X107950198Y-63407700D01*
X107788300Y-63245802D01*
X107783792Y-63242645D01*
X107783789Y-63242643D01*
X107653076Y-63151117D01*
X107600749Y-63114477D01*
X107595767Y-63112154D01*
X107595762Y-63112151D01*
X107561543Y-63096195D01*
X107508258Y-63049278D01*
X107488797Y-62981001D01*
X107509339Y-62913041D01*
X107561543Y-62867805D01*
X107595762Y-62851849D01*
X107595767Y-62851846D01*
X107600749Y-62849523D01*
X107727358Y-62760870D01*
X107783789Y-62721357D01*
X107783792Y-62721355D01*
X107788300Y-62718198D01*
X107950198Y-62556300D01*
X107957856Y-62545364D01*
X108009458Y-62471668D01*
X108081523Y-62368749D01*
X108083846Y-62363767D01*
X108083849Y-62363762D01*
X108175961Y-62166225D01*
X108175961Y-62166224D01*
X108178284Y-62161243D01*
X108194390Y-62101137D01*
X108236119Y-61945402D01*
X108236119Y-61945400D01*
X108237543Y-61940087D01*
X108257498Y-61712000D01*
X108237543Y-61483913D01*
X108230653Y-61458198D01*
X108179707Y-61268067D01*
X108179706Y-61268065D01*
X108178284Y-61262757D01*
X108157118Y-61217365D01*
X108083849Y-61060238D01*
X108083846Y-61060233D01*
X108081523Y-61055251D01*
X107950198Y-60867700D01*
X107788300Y-60705802D01*
X107783792Y-60702645D01*
X107783789Y-60702643D01*
X107705611Y-60647902D01*
X107600749Y-60574477D01*
X107595767Y-60572154D01*
X107595762Y-60572151D01*
X107561543Y-60556195D01*
X107508258Y-60509278D01*
X107488797Y-60441001D01*
X107509339Y-60373041D01*
X107561543Y-60327805D01*
X107595762Y-60311849D01*
X107595767Y-60311846D01*
X107600749Y-60309523D01*
X107715186Y-60229393D01*
X107783789Y-60181357D01*
X107783792Y-60181355D01*
X107788300Y-60178198D01*
X107950198Y-60016300D01*
X107955843Y-60008239D01*
X108029295Y-59903338D01*
X108081523Y-59828749D01*
X108083846Y-59823767D01*
X108083849Y-59823762D01*
X108175961Y-59626225D01*
X108175961Y-59626224D01*
X108178284Y-59621243D01*
X108194390Y-59561137D01*
X108236119Y-59405402D01*
X108236119Y-59405400D01*
X108237543Y-59400087D01*
X108257498Y-59172000D01*
X108237543Y-58943913D01*
X108236117Y-58938591D01*
X108179707Y-58728067D01*
X108179706Y-58728065D01*
X108178284Y-58722757D01*
X108157118Y-58677365D01*
X108083849Y-58520238D01*
X108083846Y-58520233D01*
X108081523Y-58515251D01*
X107950198Y-58327700D01*
X107788300Y-58165802D01*
X107783792Y-58162645D01*
X107783789Y-58162643D01*
X107705611Y-58107902D01*
X107600749Y-58034477D01*
X107595767Y-58032154D01*
X107595762Y-58032151D01*
X107561543Y-58016195D01*
X107508258Y-57969278D01*
X107488797Y-57901001D01*
X107509339Y-57833041D01*
X107561543Y-57787805D01*
X107595762Y-57771849D01*
X107595767Y-57771846D01*
X107600749Y-57769523D01*
X107727358Y-57680870D01*
X107783789Y-57641357D01*
X107783792Y-57641355D01*
X107788300Y-57638198D01*
X107950198Y-57476300D01*
X107954472Y-57470197D01*
X108067183Y-57309229D01*
X108122640Y-57264901D01*
X108170396Y-57255500D01*
X111556606Y-57255500D01*
X111624727Y-57275502D01*
X111659819Y-57309229D01*
X111753433Y-57442923D01*
X111769802Y-57466300D01*
X111931700Y-57628198D01*
X111936208Y-57631355D01*
X111936211Y-57631357D01*
X112088771Y-57738181D01*
X112133099Y-57793638D01*
X112142500Y-57841394D01*
X112142500Y-59232606D01*
X112122498Y-59300727D01*
X112088771Y-59335819D01*
X111936211Y-59442643D01*
X111936208Y-59442645D01*
X111931700Y-59445802D01*
X111769802Y-59607700D01*
X111766645Y-59612208D01*
X111766643Y-59612211D01*
X111741627Y-59647938D01*
X111638477Y-59795251D01*
X111636154Y-59800233D01*
X111636151Y-59800238D01*
X111564033Y-59954897D01*
X111541716Y-60002757D01*
X111540294Y-60008065D01*
X111540293Y-60008067D01*
X111492756Y-60185478D01*
X111482457Y-60223913D01*
X111462502Y-60452000D01*
X111482457Y-60680087D01*
X111483881Y-60685400D01*
X111483881Y-60685402D01*
X111493031Y-60719548D01*
X111541716Y-60901243D01*
X111544039Y-60906224D01*
X111544039Y-60906225D01*
X111636151Y-61103762D01*
X111636154Y-61103767D01*
X111638477Y-61108749D01*
X111641634Y-61113257D01*
X111758802Y-61280590D01*
X111769802Y-61296300D01*
X111931700Y-61458198D01*
X111936208Y-61461355D01*
X111936211Y-61461357D01*
X111976251Y-61489393D01*
X112119251Y-61589523D01*
X112124233Y-61591846D01*
X112124238Y-61591849D01*
X112273403Y-61661405D01*
X112326757Y-61686284D01*
X112332065Y-61687706D01*
X112332067Y-61687707D01*
X112542598Y-61744119D01*
X112542600Y-61744119D01*
X112547913Y-61745543D01*
X112776000Y-61765498D01*
X113004087Y-61745543D01*
X113009400Y-61744119D01*
X113009402Y-61744119D01*
X113219933Y-61687707D01*
X113219935Y-61687706D01*
X113225243Y-61686284D01*
X113278597Y-61661405D01*
X113427762Y-61591849D01*
X113427767Y-61591846D01*
X113432749Y-61589523D01*
X113575749Y-61489393D01*
X113615789Y-61461357D01*
X113615792Y-61461355D01*
X113620300Y-61458198D01*
X113782198Y-61296300D01*
X113793199Y-61280590D01*
X113910366Y-61113257D01*
X113913523Y-61108749D01*
X113915846Y-61103767D01*
X113915849Y-61103762D01*
X114007961Y-60906225D01*
X114007961Y-60906224D01*
X114010284Y-60901243D01*
X114058970Y-60719548D01*
X114059245Y-60718522D01*
X121653273Y-60718522D01*
X121700764Y-60895761D01*
X121704510Y-60906053D01*
X121796586Y-61103511D01*
X121802069Y-61113007D01*
X121927028Y-61291467D01*
X121934084Y-61299875D01*
X122088125Y-61453916D01*
X122096533Y-61460972D01*
X122274993Y-61585931D01*
X122284489Y-61591414D01*
X122481947Y-61683490D01*
X122492239Y-61687236D01*
X122664503Y-61733394D01*
X122678599Y-61733058D01*
X122682000Y-61725116D01*
X122682000Y-61719967D01*
X123190000Y-61719967D01*
X123193973Y-61733498D01*
X123202522Y-61734727D01*
X123379761Y-61687236D01*
X123390053Y-61683490D01*
X123587511Y-61591414D01*
X123597007Y-61585931D01*
X123775467Y-61460972D01*
X123783875Y-61453916D01*
X123937916Y-61299875D01*
X123944972Y-61291467D01*
X124069931Y-61113007D01*
X124075414Y-61103511D01*
X124167490Y-60906053D01*
X124171236Y-60895761D01*
X124217394Y-60723497D01*
X124217058Y-60709401D01*
X124209116Y-60706000D01*
X123208115Y-60706000D01*
X123192876Y-60710475D01*
X123191671Y-60711865D01*
X123190000Y-60719548D01*
X123190000Y-61719967D01*
X122682000Y-61719967D01*
X122682000Y-60724115D01*
X122677525Y-60708876D01*
X122676135Y-60707671D01*
X122668452Y-60706000D01*
X121668033Y-60706000D01*
X121654502Y-60709973D01*
X121653273Y-60718522D01*
X114059245Y-60718522D01*
X114068119Y-60685402D01*
X114068119Y-60685400D01*
X114069543Y-60680087D01*
X114089498Y-60452000D01*
X114069543Y-60223913D01*
X114059244Y-60185478D01*
X114057911Y-60180503D01*
X121654606Y-60180503D01*
X121654942Y-60194599D01*
X121662884Y-60198000D01*
X122663885Y-60198000D01*
X122679124Y-60193525D01*
X122680329Y-60192135D01*
X122682000Y-60184452D01*
X122682000Y-60179885D01*
X123190000Y-60179885D01*
X123194475Y-60195124D01*
X123195865Y-60196329D01*
X123203548Y-60198000D01*
X124203967Y-60198000D01*
X124217498Y-60194027D01*
X124218727Y-60185478D01*
X124171236Y-60008239D01*
X124167490Y-59997947D01*
X124075414Y-59800489D01*
X124069931Y-59790993D01*
X123944972Y-59612533D01*
X123937916Y-59604125D01*
X123783875Y-59450084D01*
X123775467Y-59443028D01*
X123597007Y-59318069D01*
X123587511Y-59312586D01*
X123390053Y-59220510D01*
X123379761Y-59216764D01*
X123207497Y-59170606D01*
X123193401Y-59170942D01*
X123190000Y-59178884D01*
X123190000Y-60179885D01*
X122682000Y-60179885D01*
X122682000Y-59184033D01*
X122678027Y-59170502D01*
X122669478Y-59169273D01*
X122492239Y-59216764D01*
X122481947Y-59220510D01*
X122284489Y-59312586D01*
X122274993Y-59318069D01*
X122096533Y-59443028D01*
X122088125Y-59450084D01*
X121934084Y-59604125D01*
X121927028Y-59612533D01*
X121802069Y-59790993D01*
X121796586Y-59800489D01*
X121704510Y-59997947D01*
X121700764Y-60008239D01*
X121654606Y-60180503D01*
X114057911Y-60180503D01*
X114011707Y-60008067D01*
X114011706Y-60008065D01*
X114010284Y-60002757D01*
X113987967Y-59954897D01*
X113915849Y-59800238D01*
X113915846Y-59800233D01*
X113913523Y-59795251D01*
X113810373Y-59647938D01*
X113785357Y-59612211D01*
X113785355Y-59612208D01*
X113782198Y-59607700D01*
X113620300Y-59445802D01*
X113615792Y-59442645D01*
X113615789Y-59442643D01*
X113463229Y-59335819D01*
X113418901Y-59280362D01*
X113409500Y-59232606D01*
X113409500Y-57841394D01*
X113429502Y-57773273D01*
X113463229Y-57738181D01*
X113615789Y-57631357D01*
X113615792Y-57631355D01*
X113620300Y-57628198D01*
X113782198Y-57466300D01*
X113801516Y-57438712D01*
X113859383Y-57356069D01*
X113913523Y-57278749D01*
X113915846Y-57273767D01*
X113915849Y-57273762D01*
X114007961Y-57076225D01*
X114007961Y-57076224D01*
X114010284Y-57071243D01*
X114066864Y-56860087D01*
X114068119Y-56855402D01*
X114068119Y-56855400D01*
X114069543Y-56850087D01*
X114089498Y-56622000D01*
X114069543Y-56393913D01*
X114048639Y-56315899D01*
X114011707Y-56178067D01*
X114011706Y-56178065D01*
X114010284Y-56172757D01*
X113980549Y-56108989D01*
X113915849Y-55970238D01*
X113915846Y-55970233D01*
X113913523Y-55965251D01*
X113789200Y-55787700D01*
X113785357Y-55782211D01*
X113785355Y-55782208D01*
X113782198Y-55777700D01*
X113620300Y-55615802D01*
X113615792Y-55612645D01*
X113615789Y-55612643D01*
X113447030Y-55494477D01*
X113432749Y-55484477D01*
X113427767Y-55482154D01*
X113425973Y-55481118D01*
X113376981Y-55429734D01*
X113363546Y-55360021D01*
X113389934Y-55294110D01*
X113425973Y-55262882D01*
X113427767Y-55261846D01*
X113432749Y-55259523D01*
X113581820Y-55155142D01*
X113615789Y-55131357D01*
X113615792Y-55131355D01*
X113620300Y-55128198D01*
X113782198Y-54966300D01*
X113803205Y-54936300D01*
X113910366Y-54783257D01*
X113913523Y-54778749D01*
X113915846Y-54773767D01*
X113915849Y-54773762D01*
X114007961Y-54576225D01*
X114007961Y-54576224D01*
X114010284Y-54571243D01*
X114019746Y-54535933D01*
X114068119Y-54355402D01*
X114068119Y-54355400D01*
X114069543Y-54350087D01*
X114089498Y-54122000D01*
X114069543Y-53893913D01*
X114062973Y-53869393D01*
X114011707Y-53678067D01*
X114011706Y-53678065D01*
X114010284Y-53672757D01*
X113993972Y-53637775D01*
X113915849Y-53470238D01*
X113915846Y-53470233D01*
X113913523Y-53465251D01*
X113782198Y-53277700D01*
X113677093Y-53172595D01*
X113643067Y-53110283D01*
X113648132Y-53039468D01*
X113690679Y-52982632D01*
X113757199Y-52957821D01*
X113766188Y-52957500D01*
X122764500Y-52957500D01*
X122832621Y-52977502D01*
G37*
%TD.AperFunction*%
%TD*%
M02*
