%TF.GenerationSoftware,KiCad,Pcbnew,(6.0.4-0)*%
%TF.CreationDate,2023-05-27T11:23:48-07:00*%
%TF.ProjectId,BeebLED,42656562-4c45-4442-9e6b-696361645f70,rev?*%
%TF.SameCoordinates,Original*%
%TF.FileFunction,Soldermask,Bot*%
%TF.FilePolarity,Negative*%
%FSLAX46Y46*%
G04 Gerber Fmt 4.6, Leading zero omitted, Abs format (unit mm)*
G04 Created by KiCad (PCBNEW (6.0.4-0)) date 2023-05-27 11:23:48*
%MOMM*%
%LPD*%
G01*
G04 APERTURE LIST*
G04 Aperture macros list*
%AMRoundRect*
0 Rectangle with rounded corners*
0 $1 Rounding radius*
0 $2 $3 $4 $5 $6 $7 $8 $9 X,Y pos of 4 corners*
0 Add a 4 corners polygon primitive as box body*
4,1,4,$2,$3,$4,$5,$6,$7,$8,$9,$2,$3,0*
0 Add four circle primitives for the rounded corners*
1,1,$1+$1,$2,$3*
1,1,$1+$1,$4,$5*
1,1,$1+$1,$6,$7*
1,1,$1+$1,$8,$9*
0 Add four rect primitives between the rounded corners*
20,1,$1+$1,$2,$3,$4,$5,0*
20,1,$1+$1,$4,$5,$6,$7,0*
20,1,$1+$1,$6,$7,$8,$9,0*
20,1,$1+$1,$8,$9,$2,$3,0*%
G04 Aperture macros list end*
%ADD10C,1.600000*%
%ADD11O,1.600000X1.600000*%
%ADD12R,1.600000X1.600000*%
%ADD13C,3.500000*%
%ADD14R,4.000000X4.000000*%
%ADD15C,3.300000*%
%ADD16R,1.800000X1.800000*%
%ADD17O,1.800000X1.800000*%
%ADD18R,2.000000X2.000000*%
%ADD19C,2.000000*%
%ADD20R,1.700000X1.700000*%
%ADD21O,1.700000X1.700000*%
%ADD22RoundRect,0.250000X0.600000X0.600000X-0.600000X0.600000X-0.600000X-0.600000X0.600000X-0.600000X0*%
%ADD23C,1.700000*%
G04 APERTURE END LIST*
D10*
%TO.C,C1*%
X112776000Y-56622000D03*
X112776000Y-54122000D03*
%TD*%
%TO.C,R3*%
X112776000Y-95504000D03*
D11*
X122936000Y-95504000D03*
%TD*%
D12*
%TO.C,U2*%
X99324000Y-72380000D03*
D11*
X99324000Y-74920000D03*
X99324000Y-77460000D03*
X99324000Y-80000000D03*
X99324000Y-82540000D03*
X99324000Y-85080000D03*
X99324000Y-87620000D03*
X99324000Y-90160000D03*
X106944000Y-90160000D03*
X106944000Y-87620000D03*
X106944000Y-85080000D03*
X106944000Y-82540000D03*
X106944000Y-80000000D03*
X106944000Y-77460000D03*
X106944000Y-74920000D03*
X106944000Y-72380000D03*
%TD*%
D13*
%TO.C,J2*%
X130524000Y-49204000D03*
X130524000Y-40204000D03*
D10*
X132524000Y-44704000D03*
D14*
X123524000Y-44704000D03*
D15*
X129524000Y-44704000D03*
%TD*%
D12*
%TO.C,X1*%
X131572000Y-67818000D03*
D10*
X116332000Y-67818000D03*
X116332000Y-75438000D03*
X131572000Y-75438000D03*
%TD*%
D16*
%TO.C,D1*%
X111542039Y-41628395D03*
D17*
X119162039Y-41628395D03*
%TD*%
D18*
%TO.C,C3*%
X126319677Y-84836000D03*
D19*
X121319677Y-84836000D03*
%TD*%
D20*
%TO.C,J3*%
X128016000Y-98029000D03*
D21*
X128016000Y-95489000D03*
X128016000Y-92949000D03*
%TD*%
D22*
%TO.C,J1*%
X94597500Y-81534000D03*
D23*
X92057500Y-81534000D03*
X94597500Y-78994000D03*
X92057500Y-78994000D03*
X94597500Y-76454000D03*
X92057500Y-76454000D03*
X94597500Y-73914000D03*
X92057500Y-73914000D03*
X94597500Y-71374000D03*
X92057500Y-71374000D03*
X94597500Y-68834000D03*
X92057500Y-68834000D03*
X94597500Y-66294000D03*
X92057500Y-66294000D03*
X94597500Y-63754000D03*
X92057500Y-63754000D03*
X94597500Y-61214000D03*
X92057500Y-61214000D03*
X94597500Y-58674000D03*
X92057500Y-58674000D03*
%TD*%
D12*
%TO.C,X2*%
X127762000Y-67818000D03*
D10*
X120142000Y-67818000D03*
X120142000Y-75438000D03*
X127762000Y-75438000D03*
%TD*%
D12*
%TO.C,U1*%
X99324000Y-49012000D03*
D11*
X99324000Y-51552000D03*
X99324000Y-54092000D03*
X99324000Y-56632000D03*
X99324000Y-59172000D03*
X99324000Y-61712000D03*
X99324000Y-64252000D03*
X106944000Y-64252000D03*
X106944000Y-61712000D03*
X106944000Y-59172000D03*
X106944000Y-56632000D03*
X106944000Y-54092000D03*
X106944000Y-51552000D03*
X106944000Y-49012000D03*
%TD*%
D10*
%TO.C,R1*%
X112776000Y-60452000D03*
D11*
X122936000Y-60452000D03*
%TD*%
D10*
%TO.C,C2*%
X115590000Y-48768000D03*
X118090000Y-48768000D03*
%TD*%
%TO.C,R2*%
X98044000Y-41656000D03*
D11*
X108204000Y-41656000D03*
%TD*%
M02*
