%TF.GenerationSoftware,KiCad,Pcbnew,(6.0.4-0)*%
%TF.CreationDate,2023-05-07T08:38:51+01:00*%
%TF.ProjectId,BeebLED,42656562-4c45-4442-9e6b-696361645f70,rev?*%
%TF.SameCoordinates,Original*%
%TF.FileFunction,Legend,Top*%
%TF.FilePolarity,Positive*%
%FSLAX46Y46*%
G04 Gerber Fmt 4.6, Leading zero omitted, Abs format (unit mm)*
G04 Created by KiCad (PCBNEW (6.0.4-0)) date 2023-05-07 08:38:51*
%MOMM*%
%LPD*%
G01*
G04 APERTURE LIST*
%ADD10C,0.200001*%
%ADD11C,0.200000*%
%ADD12C,0.150000*%
%ADD13C,0.120000*%
%ADD14C,0.100000*%
G04 APERTURE END LIST*
D10*
X101700000Y-96520000D02*
G75*
G03*
X101700000Y-96520000I-100000J0D01*
G01*
X101700000Y-96012000D02*
G75*
G03*
X101700000Y-96012000I-100000J0D01*
G01*
X101192000Y-96012000D02*
G75*
G03*
X101192000Y-96012000I-100000J0D01*
G01*
X101700000Y-95504000D02*
G75*
G03*
X101700000Y-95504000I-100000J0D01*
G01*
X101192000Y-95504000D02*
G75*
G03*
X101192000Y-95504000I-100000J0D01*
G01*
X101700000Y-94996000D02*
G75*
G03*
X101700000Y-94996000I-100000J0D01*
G01*
X101192000Y-94996000D02*
G75*
G03*
X101192000Y-94996000I-100000J0D01*
G01*
X101700000Y-94488000D02*
G75*
G03*
X101700000Y-94488000I-100000J0D01*
G01*
X99667999Y-96012000D02*
G75*
G03*
X99667999Y-96012000I-100000J0D01*
G01*
X100176000Y-97028000D02*
G75*
G03*
X100176000Y-97028000I-100000J0D01*
G01*
X99668000Y-94488000D02*
G75*
G03*
X99668000Y-94488000I-100000J0D01*
G01*
X99668000Y-94996000D02*
G75*
G03*
X99668000Y-94996000I-100000J0D01*
G01*
X100684000Y-93980000D02*
G75*
G03*
X100684000Y-93980000I-100000J0D01*
G01*
X101192000Y-93980000D02*
G75*
G03*
X101192000Y-93980000I-100000J0D01*
G01*
X99667999Y-97028000D02*
G75*
G03*
X99667999Y-97028000I-100000J0D01*
G01*
X100176000Y-94488000D02*
G75*
G03*
X100176000Y-94488000I-100000J0D01*
G01*
X101192000Y-97028000D02*
G75*
G03*
X101192000Y-97028000I-100000J0D01*
G01*
X100176000Y-96012000D02*
G75*
G03*
X100176000Y-96012000I-100000J0D01*
G01*
X100176000Y-95504000D02*
G75*
G03*
X100176000Y-95504000I-100000J0D01*
G01*
X99667999Y-96520000D02*
G75*
G03*
X99667999Y-96520000I-100000J0D01*
G01*
X101192000Y-96520000D02*
G75*
G03*
X101192000Y-96520000I-100000J0D01*
G01*
X99668000Y-95504000D02*
G75*
G03*
X99668000Y-95504000I-100000J0D01*
G01*
X99668000Y-93980000D02*
G75*
G03*
X99668000Y-93980000I-100000J0D01*
G01*
X100176000Y-93980000D02*
G75*
G03*
X100176000Y-93980000I-100000J0D01*
G01*
X100176000Y-96520000D02*
G75*
G03*
X100176000Y-96520000I-100000J0D01*
G01*
X100684000Y-97028000D02*
G75*
G03*
X100684000Y-97028000I-100000J0D01*
G01*
X101192000Y-94488000D02*
G75*
G03*
X101192000Y-94488000I-100000J0D01*
G01*
X100176000Y-94996000D02*
G75*
G03*
X100176000Y-94996000I-100000J0D01*
G01*
X97127999Y-96012000D02*
G75*
G03*
X97127999Y-96012000I-100000J0D01*
G01*
X97636000Y-97028000D02*
G75*
G03*
X97636000Y-97028000I-100000J0D01*
G01*
X97128000Y-94488000D02*
G75*
G03*
X97128000Y-94488000I-100000J0D01*
G01*
X97128000Y-94996000D02*
G75*
G03*
X97128000Y-94996000I-100000J0D01*
G01*
X98144000Y-93980000D02*
G75*
G03*
X98144000Y-93980000I-100000J0D01*
G01*
X98652000Y-93980000D02*
G75*
G03*
X98652000Y-93980000I-100000J0D01*
G01*
X97127999Y-97028000D02*
G75*
G03*
X97127999Y-97028000I-100000J0D01*
G01*
X97636000Y-94488000D02*
G75*
G03*
X97636000Y-94488000I-100000J0D01*
G01*
X98144000Y-94488000D02*
G75*
G03*
X98144000Y-94488000I-100000J0D01*
G01*
X98144000Y-96520000D02*
G75*
G03*
X98144000Y-96520000I-100000J0D01*
G01*
X98652000Y-97028000D02*
G75*
G03*
X98652000Y-97028000I-100000J0D01*
G01*
X98652000Y-95504000D02*
G75*
G03*
X98652000Y-95504000I-100000J0D01*
G01*
X97636000Y-96012000D02*
G75*
G03*
X97636000Y-96012000I-100000J0D01*
G01*
X97636000Y-95504000D02*
G75*
G03*
X97636000Y-95504000I-100000J0D01*
G01*
X97127999Y-96520000D02*
G75*
G03*
X97127999Y-96520000I-100000J0D01*
G01*
X98652000Y-96520000D02*
G75*
G03*
X98652000Y-96520000I-100000J0D01*
G01*
X97128000Y-95504000D02*
G75*
G03*
X97128000Y-95504000I-100000J0D01*
G01*
X97128000Y-93980000D02*
G75*
G03*
X97128000Y-93980000I-100000J0D01*
G01*
X97636000Y-93980000D02*
G75*
G03*
X97636000Y-93980000I-100000J0D01*
G01*
X97636000Y-96520000D02*
G75*
G03*
X97636000Y-96520000I-100000J0D01*
G01*
X98144000Y-95504000D02*
G75*
G03*
X98144000Y-95504000I-100000J0D01*
G01*
X98144000Y-97028000D02*
G75*
G03*
X98144000Y-97028000I-100000J0D01*
G01*
X98652000Y-94488000D02*
G75*
G03*
X98652000Y-94488000I-100000J0D01*
G01*
X97636000Y-94996000D02*
G75*
G03*
X97636000Y-94996000I-100000J0D01*
G01*
X94587999Y-96012000D02*
G75*
G03*
X94587999Y-96012000I-100000J0D01*
G01*
X95096000Y-97028000D02*
G75*
G03*
X95096000Y-97028000I-100000J0D01*
G01*
X94588000Y-94488000D02*
G75*
G03*
X94588000Y-94488000I-100000J0D01*
G01*
X94588000Y-94996000D02*
G75*
G03*
X94588000Y-94996000I-100000J0D01*
G01*
X94587999Y-97028000D02*
G75*
G03*
X94587999Y-97028000I-100000J0D01*
G01*
X95096000Y-94488000D02*
G75*
G03*
X95096000Y-94488000I-100000J0D01*
G01*
X95604000Y-96520000D02*
G75*
G03*
X95604000Y-96520000I-100000J0D01*
G01*
X96112000Y-97028000D02*
G75*
G03*
X96112000Y-97028000I-100000J0D01*
G01*
X95096000Y-96012000D02*
G75*
G03*
X95096000Y-96012000I-100000J0D01*
G01*
X95096000Y-95504000D02*
G75*
G03*
X95096000Y-95504000I-100000J0D01*
G01*
X94587999Y-96520000D02*
G75*
G03*
X94587999Y-96520000I-100000J0D01*
G01*
X96112000Y-96520000D02*
G75*
G03*
X96112000Y-96520000I-100000J0D01*
G01*
X94588000Y-95504000D02*
G75*
G03*
X94588000Y-95504000I-100000J0D01*
G01*
X94588000Y-93980000D02*
G75*
G03*
X94588000Y-93980000I-100000J0D01*
G01*
X95096000Y-93980000D02*
G75*
G03*
X95096000Y-93980000I-100000J0D01*
G01*
X95096000Y-96520000D02*
G75*
G03*
X95096000Y-96520000I-100000J0D01*
G01*
X95604000Y-97028000D02*
G75*
G03*
X95604000Y-97028000I-100000J0D01*
G01*
X95096000Y-94996000D02*
G75*
G03*
X95096000Y-94996000I-100000J0D01*
G01*
X88999999Y-96012000D02*
G75*
G03*
X88999999Y-96012000I-100000J0D01*
G01*
X89508000Y-97028000D02*
G75*
G03*
X89508000Y-97028000I-100000J0D01*
G01*
X89000000Y-94488000D02*
G75*
G03*
X89000000Y-94488000I-100000J0D01*
G01*
X89000000Y-94996000D02*
G75*
G03*
X89000000Y-94996000I-100000J0D01*
G01*
X90016000Y-93980000D02*
G75*
G03*
X90016000Y-93980000I-100000J0D01*
G01*
X90524000Y-93980000D02*
G75*
G03*
X90524000Y-93980000I-100000J0D01*
G01*
X88999999Y-97028000D02*
G75*
G03*
X88999999Y-97028000I-100000J0D01*
G01*
X89508000Y-94488000D02*
G75*
G03*
X89508000Y-94488000I-100000J0D01*
G01*
X90016000Y-94488000D02*
G75*
G03*
X90016000Y-94488000I-100000J0D01*
G01*
X90016000Y-96520000D02*
G75*
G03*
X90016000Y-96520000I-100000J0D01*
G01*
X90524000Y-97028000D02*
G75*
G03*
X90524000Y-97028000I-100000J0D01*
G01*
X90524000Y-95504000D02*
G75*
G03*
X90524000Y-95504000I-100000J0D01*
G01*
X89508000Y-96012000D02*
G75*
G03*
X89508000Y-96012000I-100000J0D01*
G01*
X89508000Y-95504000D02*
G75*
G03*
X89508000Y-95504000I-100000J0D01*
G01*
X88999999Y-96520000D02*
G75*
G03*
X88999999Y-96520000I-100000J0D01*
G01*
X90524000Y-96520000D02*
G75*
G03*
X90524000Y-96520000I-100000J0D01*
G01*
X89000000Y-95504000D02*
G75*
G03*
X89000000Y-95504000I-100000J0D01*
G01*
X89000000Y-93980000D02*
G75*
G03*
X89000000Y-93980000I-100000J0D01*
G01*
X89508000Y-93980000D02*
G75*
G03*
X89508000Y-93980000I-100000J0D01*
G01*
X89508000Y-96520000D02*
G75*
G03*
X89508000Y-96520000I-100000J0D01*
G01*
X90016000Y-95504000D02*
G75*
G03*
X90016000Y-95504000I-100000J0D01*
G01*
X90016000Y-97028000D02*
G75*
G03*
X90016000Y-97028000I-100000J0D01*
G01*
X90524000Y-94488000D02*
G75*
G03*
X90524000Y-94488000I-100000J0D01*
G01*
X89508000Y-94996000D02*
G75*
G03*
X89508000Y-94996000I-100000J0D01*
G01*
X92556000Y-97028000D02*
G75*
G03*
X92556000Y-97028000I-100000J0D01*
G01*
X93063999Y-97028000D02*
G75*
G03*
X93063999Y-97028000I-100000J0D01*
G01*
X93572000Y-96520000D02*
G75*
G03*
X93572000Y-96520000I-100000J0D01*
G01*
X93063999Y-96520000D02*
G75*
G03*
X93063999Y-96520000I-100000J0D01*
G01*
X93572000Y-96012000D02*
G75*
G03*
X93572000Y-96012000I-100000J0D01*
G01*
X93063999Y-96012000D02*
G75*
G03*
X93063999Y-96012000I-100000J0D01*
G01*
X92556000Y-95504000D02*
G75*
G03*
X92556000Y-95504000I-100000J0D01*
G01*
X93064000Y-95504000D02*
G75*
G03*
X93064000Y-95504000I-100000J0D01*
G01*
X93064000Y-94996000D02*
G75*
G03*
X93064000Y-94996000I-100000J0D01*
G01*
X93572000Y-94996000D02*
G75*
G03*
X93572000Y-94996000I-100000J0D01*
G01*
X93572000Y-94488000D02*
G75*
G03*
X93572000Y-94488000I-100000J0D01*
G01*
X93064000Y-94488000D02*
G75*
G03*
X93064000Y-94488000I-100000J0D01*
G01*
X93064000Y-93980000D02*
G75*
G03*
X93064000Y-93980000I-100000J0D01*
G01*
X92556000Y-93980000D02*
G75*
G03*
X92556000Y-93980000I-100000J0D01*
G01*
X92048000Y-97028000D02*
G75*
G03*
X92048000Y-97028000I-100000J0D01*
G01*
X92048000Y-96520000D02*
G75*
G03*
X92048000Y-96520000I-100000J0D01*
G01*
X92048000Y-96012000D02*
G75*
G03*
X92048000Y-96012000I-100000J0D01*
G01*
X92048001Y-95504000D02*
G75*
G03*
X92048001Y-95504000I-100000J0D01*
G01*
X92048000Y-94996000D02*
G75*
G03*
X92048000Y-94996000I-100000J0D01*
G01*
X92048000Y-94488000D02*
G75*
G03*
X92048000Y-94488000I-100000J0D01*
G01*
X91540001Y-94488000D02*
G75*
G03*
X91540001Y-94488000I-100000J0D01*
G01*
X92048000Y-93980000D02*
G75*
G03*
X92048000Y-93980000I-100000J0D01*
G01*
X91540000Y-97028000D02*
G75*
G03*
X91540000Y-97028000I-100000J0D01*
G01*
X91540000Y-96520000D02*
G75*
G03*
X91540000Y-96520000I-100000J0D01*
G01*
X91540000Y-96012000D02*
G75*
G03*
X91540000Y-96012000I-100000J0D01*
G01*
X91540000Y-95504000D02*
G75*
G03*
X91540000Y-95504000I-100000J0D01*
G01*
X91540000Y-94996000D02*
G75*
G03*
X91540000Y-94996000I-100000J0D01*
G01*
X91540000Y-94488000D02*
G75*
G03*
X91540000Y-94488000I-100000J0D01*
G01*
X91540000Y-93980000D02*
G75*
G03*
X91540000Y-93980000I-100000J0D01*
G01*
X87984000Y-97028000D02*
G75*
G03*
X87984000Y-97028000I-100000J0D01*
G01*
X87984000Y-96520000D02*
G75*
G03*
X87984000Y-96520000I-100000J0D01*
G01*
X87476000Y-97028000D02*
G75*
G03*
X87476000Y-97028000I-100000J0D01*
G01*
X87476000Y-96520000D02*
G75*
G03*
X87476000Y-96520000I-100000J0D01*
G01*
X87984000Y-95504000D02*
G75*
G03*
X87984000Y-95504000I-100000J0D01*
G01*
X87984000Y-94488000D02*
G75*
G03*
X87984000Y-94488000I-100000J0D01*
G01*
X87476000Y-95504000D02*
G75*
G03*
X87476000Y-95504000I-100000J0D01*
G01*
X87476000Y-94488000D02*
G75*
G03*
X87476000Y-94488000I-100000J0D01*
G01*
X87984000Y-93980000D02*
G75*
G03*
X87984000Y-93980000I-100000J0D01*
G01*
X87476000Y-93980000D02*
G75*
G03*
X87476000Y-93980000I-100000J0D01*
G01*
X86968000Y-97028000D02*
G75*
G03*
X86968000Y-97028000I-100000J0D01*
G01*
X86968000Y-96520000D02*
G75*
G03*
X86968000Y-96520000I-100000J0D01*
G01*
X86968000Y-96012000D02*
G75*
G03*
X86968000Y-96012000I-100000J0D01*
G01*
X86968000Y-95504000D02*
G75*
G03*
X86968000Y-95504000I-100000J0D01*
G01*
X86968000Y-94996000D02*
G75*
G03*
X86968000Y-94996000I-100000J0D01*
G01*
X86968000Y-94488000D02*
G75*
G03*
X86968000Y-94488000I-100000J0D01*
G01*
X86968000Y-93980000D02*
G75*
G03*
X86968000Y-93980000I-100000J0D01*
G01*
X86459999Y-97028000D02*
G75*
G03*
X86459999Y-97028000I-100000J0D01*
G01*
X86459999Y-96520000D02*
G75*
G03*
X86459999Y-96520000I-100000J0D01*
G01*
X86459999Y-96012000D02*
G75*
G03*
X86459999Y-96012000I-100000J0D01*
G01*
X86460000Y-95504000D02*
G75*
G03*
X86460000Y-95504000I-100000J0D01*
G01*
X86460000Y-94488000D02*
G75*
G03*
X86460000Y-94488000I-100000J0D01*
G01*
X86460000Y-94996000D02*
G75*
G03*
X86460000Y-94996000I-100000J0D01*
G01*
X86460000Y-93980000D02*
G75*
G03*
X86460000Y-93980000I-100000J0D01*
G01*
X85444000Y-96520000D02*
G75*
G03*
X85444000Y-96520000I-100000J0D01*
G01*
X85444000Y-96012000D02*
G75*
G03*
X85444000Y-96012000I-100000J0D01*
G01*
X85443999Y-94996000D02*
G75*
G03*
X85443999Y-94996000I-100000J0D01*
G01*
X85444000Y-94488000D02*
G75*
G03*
X85444000Y-94488000I-100000J0D01*
G01*
X84936000Y-95504000D02*
G75*
G03*
X84936000Y-95504000I-100000J0D01*
G01*
X84936000Y-96520000D02*
G75*
G03*
X84936000Y-96520000I-100000J0D01*
G01*
X84936000Y-97027999D02*
G75*
G03*
X84936000Y-97027999I-100000J0D01*
G01*
X84936000Y-94996001D02*
G75*
G03*
X84936000Y-94996001I-100000J0D01*
G01*
X84936000Y-96012000D02*
G75*
G03*
X84936000Y-96012000I-100000J0D01*
G01*
X84936000Y-94996000D02*
G75*
G03*
X84936000Y-94996000I-100000J0D01*
G01*
X84936000Y-94488000D02*
G75*
G03*
X84936000Y-94488000I-100000J0D01*
G01*
X84936000Y-93980000D02*
G75*
G03*
X84936000Y-93980000I-100000J0D01*
G01*
X84428000Y-95504000D02*
G75*
G03*
X84428000Y-95504000I-100000J0D01*
G01*
X84936000Y-97028000D02*
G75*
G03*
X84936000Y-97028000I-100000J0D01*
G01*
X84428000Y-97028000D02*
G75*
G03*
X84428000Y-97028000I-100000J0D01*
G01*
X83920001Y-97028000D02*
G75*
G03*
X83920001Y-97028000I-100000J0D01*
G01*
X83920000Y-96520000D02*
G75*
G03*
X83920000Y-96520000I-100000J0D01*
G01*
X83920000Y-96012000D02*
G75*
G03*
X83920000Y-96012000I-100000J0D01*
G01*
X83920000Y-95504000D02*
G75*
G03*
X83920000Y-95504000I-100000J0D01*
G01*
X83920000Y-94996000D02*
G75*
G03*
X83920000Y-94996000I-100000J0D01*
G01*
X83920000Y-94488000D02*
G75*
G03*
X83920000Y-94488000I-100000J0D01*
G01*
X84428000Y-93980000D02*
G75*
G03*
X84428000Y-93980000I-100000J0D01*
G01*
X83920000Y-93980000D02*
G75*
G03*
X83920000Y-93980000I-100000J0D01*
G01*
X83412000Y-97028000D02*
G75*
G03*
X83412000Y-97028000I-100000J0D01*
G01*
X83412000Y-96520000D02*
G75*
G03*
X83412000Y-96520000I-100000J0D01*
G01*
X83412000Y-96012000D02*
G75*
G03*
X83412000Y-96012000I-100000J0D01*
G01*
X83412000Y-95504000D02*
G75*
G03*
X83412000Y-95504000I-100000J0D01*
G01*
X83412000Y-94996000D02*
G75*
G03*
X83412000Y-94996000I-100000J0D01*
G01*
X83412001Y-94488000D02*
G75*
G03*
X83412001Y-94488000I-100000J0D01*
G01*
X83412000Y-93980000D02*
G75*
G03*
X83412000Y-93980000I-100000J0D01*
G01*
D11*
X83219714Y-100110857D02*
X83219714Y-98910857D01*
X83505428Y-98910857D01*
X83676857Y-98968000D01*
X83791142Y-99082285D01*
X83848285Y-99196571D01*
X83905428Y-99425142D01*
X83905428Y-99596571D01*
X83848285Y-99825142D01*
X83791142Y-99939428D01*
X83676857Y-100053714D01*
X83505428Y-100110857D01*
X83219714Y-100110857D01*
X84876857Y-100053714D02*
X84762571Y-100110857D01*
X84534000Y-100110857D01*
X84419714Y-100053714D01*
X84362571Y-99939428D01*
X84362571Y-99482285D01*
X84419714Y-99368000D01*
X84534000Y-99310857D01*
X84762571Y-99310857D01*
X84876857Y-99368000D01*
X84934000Y-99482285D01*
X84934000Y-99596571D01*
X84362571Y-99710857D01*
X85391142Y-100053714D02*
X85505428Y-100110857D01*
X85734000Y-100110857D01*
X85848285Y-100053714D01*
X85905428Y-99939428D01*
X85905428Y-99882285D01*
X85848285Y-99768000D01*
X85734000Y-99710857D01*
X85562571Y-99710857D01*
X85448285Y-99653714D01*
X85391142Y-99539428D01*
X85391142Y-99482285D01*
X85448285Y-99368000D01*
X85562571Y-99310857D01*
X85734000Y-99310857D01*
X85848285Y-99368000D01*
X86419714Y-100110857D02*
X86419714Y-99310857D01*
X86419714Y-98910857D02*
X86362571Y-98968000D01*
X86419714Y-99025142D01*
X86476857Y-98968000D01*
X86419714Y-98910857D01*
X86419714Y-99025142D01*
X87505428Y-99310857D02*
X87505428Y-100282285D01*
X87448285Y-100396571D01*
X87391142Y-100453714D01*
X87276857Y-100510857D01*
X87105428Y-100510857D01*
X86991142Y-100453714D01*
X87505428Y-100053714D02*
X87391142Y-100110857D01*
X87162571Y-100110857D01*
X87048285Y-100053714D01*
X86991142Y-99996571D01*
X86934000Y-99882285D01*
X86934000Y-99539428D01*
X86991142Y-99425142D01*
X87048285Y-99368000D01*
X87162571Y-99310857D01*
X87391142Y-99310857D01*
X87505428Y-99368000D01*
X88076857Y-99310857D02*
X88076857Y-100110857D01*
X88076857Y-99425142D02*
X88134000Y-99368000D01*
X88248285Y-99310857D01*
X88419714Y-99310857D01*
X88534000Y-99368000D01*
X88591142Y-99482285D01*
X88591142Y-100110857D01*
X89619714Y-100053714D02*
X89505428Y-100110857D01*
X89276857Y-100110857D01*
X89162571Y-100053714D01*
X89105428Y-99939428D01*
X89105428Y-99482285D01*
X89162571Y-99368000D01*
X89276857Y-99310857D01*
X89505428Y-99310857D01*
X89619714Y-99368000D01*
X89676857Y-99482285D01*
X89676857Y-99596571D01*
X89105428Y-99710857D01*
X90705428Y-100110857D02*
X90705428Y-98910857D01*
X90705428Y-100053714D02*
X90591142Y-100110857D01*
X90362571Y-100110857D01*
X90248285Y-100053714D01*
X90191142Y-99996571D01*
X90134000Y-99882285D01*
X90134000Y-99539428D01*
X90191142Y-99425142D01*
X90248285Y-99368000D01*
X90362571Y-99310857D01*
X90591142Y-99310857D01*
X90705428Y-99368000D01*
X92191142Y-100110857D02*
X92191142Y-98910857D01*
X92191142Y-99368000D02*
X92305428Y-99310857D01*
X92534000Y-99310857D01*
X92648285Y-99368000D01*
X92705428Y-99425142D01*
X92762571Y-99539428D01*
X92762571Y-99882285D01*
X92705428Y-99996571D01*
X92648285Y-100053714D01*
X92534000Y-100110857D01*
X92305428Y-100110857D01*
X92191142Y-100053714D01*
X93162571Y-99310857D02*
X93448285Y-100110857D01*
X93734000Y-99310857D02*
X93448285Y-100110857D01*
X93334000Y-100396571D01*
X93276857Y-100453714D01*
X93162571Y-100510857D01*
X95105428Y-99996571D02*
X95162571Y-100053714D01*
X95105428Y-100110857D01*
X95048285Y-100053714D01*
X95105428Y-99996571D01*
X95105428Y-100110857D01*
X95105428Y-99653714D02*
X95048285Y-98968000D01*
X95105428Y-98910857D01*
X95162571Y-98968000D01*
X95105428Y-99653714D01*
X95105428Y-98910857D01*
X96076857Y-99482285D02*
X95676857Y-99482285D01*
X95676857Y-100110857D02*
X95676857Y-98910857D01*
X96248285Y-98910857D01*
X96934000Y-98910857D02*
X97162571Y-98910857D01*
X97276857Y-98968000D01*
X97391142Y-99082285D01*
X97448285Y-99310857D01*
X97448285Y-99710857D01*
X97391142Y-99939428D01*
X97276857Y-100053714D01*
X97162571Y-100110857D01*
X96934000Y-100110857D01*
X96819714Y-100053714D01*
X96705428Y-99939428D01*
X96648285Y-99710857D01*
X96648285Y-99310857D01*
X96705428Y-99082285D01*
X96819714Y-98968000D01*
X96934000Y-98910857D01*
X97848285Y-98910857D02*
X98648285Y-98910857D01*
X97848285Y-100110857D01*
X98648285Y-100110857D01*
X99105428Y-99996571D02*
X99162571Y-100053714D01*
X99105428Y-100110857D01*
X99048285Y-100053714D01*
X99105428Y-99996571D01*
X99105428Y-100110857D01*
X99105428Y-99653714D02*
X99048285Y-98968000D01*
X99105428Y-98910857D01*
X99162571Y-98968000D01*
X99105428Y-99653714D01*
X99105428Y-98910857D01*
X100591142Y-100110857D02*
X100591142Y-98910857D01*
X100991142Y-99768000D01*
X101391142Y-98910857D01*
X101391142Y-100110857D01*
X102476857Y-100110857D02*
X102476857Y-99482285D01*
X102419714Y-99368000D01*
X102305428Y-99310857D01*
X102076857Y-99310857D01*
X101962571Y-99368000D01*
X102476857Y-100053714D02*
X102362571Y-100110857D01*
X102076857Y-100110857D01*
X101962571Y-100053714D01*
X101905428Y-99939428D01*
X101905428Y-99825142D01*
X101962571Y-99710857D01*
X102076857Y-99653714D01*
X102362571Y-99653714D01*
X102476857Y-99596571D01*
X102934000Y-99310857D02*
X103219714Y-100110857D01*
X103505428Y-99310857D02*
X103219714Y-100110857D01*
X103105428Y-100396571D01*
X103048285Y-100453714D01*
X102934000Y-100510857D01*
X104819714Y-99025142D02*
X104876857Y-98968000D01*
X104991142Y-98910857D01*
X105276857Y-98910857D01*
X105391142Y-98968000D01*
X105448285Y-99025142D01*
X105505428Y-99139428D01*
X105505428Y-99253714D01*
X105448285Y-99425142D01*
X104762571Y-100110857D01*
X105505428Y-100110857D01*
X106248285Y-98910857D02*
X106362571Y-98910857D01*
X106476857Y-98968000D01*
X106534000Y-99025142D01*
X106591142Y-99139428D01*
X106648285Y-99368000D01*
X106648285Y-99653714D01*
X106591142Y-99882285D01*
X106534000Y-99996571D01*
X106476857Y-100053714D01*
X106362571Y-100110857D01*
X106248285Y-100110857D01*
X106134000Y-100053714D01*
X106076857Y-99996571D01*
X106019714Y-99882285D01*
X105962571Y-99653714D01*
X105962571Y-99368000D01*
X106019714Y-99139428D01*
X106076857Y-99025142D01*
X106134000Y-98968000D01*
X106248285Y-98910857D01*
X107105428Y-99025142D02*
X107162571Y-98968000D01*
X107276857Y-98910857D01*
X107562571Y-98910857D01*
X107676857Y-98968000D01*
X107734000Y-99025142D01*
X107791142Y-99139428D01*
X107791142Y-99253714D01*
X107734000Y-99425142D01*
X107048285Y-100110857D01*
X107791142Y-100110857D01*
X108191142Y-98910857D02*
X108933999Y-98910857D01*
X108533999Y-99368000D01*
X108705428Y-99368000D01*
X108819714Y-99425142D01*
X108876857Y-99482285D01*
X108933999Y-99596571D01*
X108933999Y-99882285D01*
X108876857Y-99996571D01*
X108819714Y-100053714D01*
X108705428Y-100110857D01*
X108362571Y-100110857D01*
X108248285Y-100053714D01*
X108191142Y-99996571D01*
X83442857Y-40046285D02*
X83614285Y-40103428D01*
X83671428Y-40160571D01*
X83728571Y-40274857D01*
X83728571Y-40446285D01*
X83671428Y-40560571D01*
X83614285Y-40617714D01*
X83500000Y-40674857D01*
X83042857Y-40674857D01*
X83042857Y-39474857D01*
X83442857Y-39474857D01*
X83557142Y-39532000D01*
X83614285Y-39589142D01*
X83671428Y-39703428D01*
X83671428Y-39817714D01*
X83614285Y-39932000D01*
X83557142Y-39989142D01*
X83442857Y-40046285D01*
X83042857Y-40046285D01*
X84700000Y-40617714D02*
X84585714Y-40674857D01*
X84357142Y-40674857D01*
X84242857Y-40617714D01*
X84185714Y-40503428D01*
X84185714Y-40046285D01*
X84242857Y-39932000D01*
X84357142Y-39874857D01*
X84585714Y-39874857D01*
X84700000Y-39932000D01*
X84757142Y-40046285D01*
X84757142Y-40160571D01*
X84185714Y-40274857D01*
X85728571Y-40617714D02*
X85614285Y-40674857D01*
X85385714Y-40674857D01*
X85271428Y-40617714D01*
X85214285Y-40503428D01*
X85214285Y-40046285D01*
X85271428Y-39932000D01*
X85385714Y-39874857D01*
X85614285Y-39874857D01*
X85728571Y-39932000D01*
X85785714Y-40046285D01*
X85785714Y-40160571D01*
X85214285Y-40274857D01*
X86300000Y-40674857D02*
X86300000Y-39474857D01*
X86300000Y-39932000D02*
X86414285Y-39874857D01*
X86642857Y-39874857D01*
X86757142Y-39932000D01*
X86814285Y-39989142D01*
X86871428Y-40103428D01*
X86871428Y-40446285D01*
X86814285Y-40560571D01*
X86757142Y-40617714D01*
X86642857Y-40674857D01*
X86414285Y-40674857D01*
X86300000Y-40617714D01*
X87957142Y-40674857D02*
X87385714Y-40674857D01*
X87385714Y-39474857D01*
X88357142Y-40046285D02*
X88757142Y-40046285D01*
X88928571Y-40674857D02*
X88357142Y-40674857D01*
X88357142Y-39474857D01*
X88928571Y-39474857D01*
X89442857Y-40674857D02*
X89442857Y-39474857D01*
X89728571Y-39474857D01*
X89900000Y-39532000D01*
X90014285Y-39646285D01*
X90071428Y-39760571D01*
X90128571Y-39989142D01*
X90128571Y-40160571D01*
X90071428Y-40389142D01*
X90014285Y-40503428D01*
X89900000Y-40617714D01*
X89728571Y-40674857D01*
X89442857Y-40674857D01*
X91442857Y-39874857D02*
X91728571Y-40674857D01*
X92014285Y-39874857D01*
X93100000Y-40674857D02*
X92414285Y-40674857D01*
X92757142Y-40674857D02*
X92757142Y-39474857D01*
X92642857Y-39646285D01*
X92528571Y-39760571D01*
X92414285Y-39817714D01*
X93614285Y-40560571D02*
X93671428Y-40617714D01*
X93614285Y-40674857D01*
X93557142Y-40617714D01*
X93614285Y-40560571D01*
X93614285Y-40674857D01*
X94814285Y-40674857D02*
X94128571Y-40674857D01*
X94471428Y-40674857D02*
X94471428Y-39474857D01*
X94357142Y-39646285D01*
X94242857Y-39760571D01*
X94128571Y-39817714D01*
D12*
X83139595Y-43038380D02*
X83139595Y-42038380D01*
X83377690Y-42038380D01*
X83520547Y-42086000D01*
X83615785Y-42181238D01*
X83663404Y-42276476D01*
X83711023Y-42466952D01*
X83711023Y-42609809D01*
X83663404Y-42800285D01*
X83615785Y-42895523D01*
X83520547Y-42990761D01*
X83377690Y-43038380D01*
X83139595Y-43038380D01*
X84520547Y-42990761D02*
X84425309Y-43038380D01*
X84234833Y-43038380D01*
X84139595Y-42990761D01*
X84091976Y-42895523D01*
X84091976Y-42514571D01*
X84139595Y-42419333D01*
X84234833Y-42371714D01*
X84425309Y-42371714D01*
X84520547Y-42419333D01*
X84568166Y-42514571D01*
X84568166Y-42609809D01*
X84091976Y-42705047D01*
X84996738Y-43038380D02*
X84996738Y-42371714D01*
X84996738Y-42562190D02*
X85044357Y-42466952D01*
X85091976Y-42419333D01*
X85187214Y-42371714D01*
X85282452Y-42371714D01*
X85615785Y-43038380D02*
X85615785Y-42371714D01*
X85615785Y-42038380D02*
X85568166Y-42086000D01*
X85615785Y-42133619D01*
X85663404Y-42086000D01*
X85615785Y-42038380D01*
X85615785Y-42133619D01*
X85996738Y-42371714D02*
X86234833Y-43038380D01*
X86472928Y-42371714D01*
X87234833Y-42990761D02*
X87139595Y-43038380D01*
X86949119Y-43038380D01*
X86853880Y-42990761D01*
X86806261Y-42895523D01*
X86806261Y-42514571D01*
X86853880Y-42419333D01*
X86949119Y-42371714D01*
X87139595Y-42371714D01*
X87234833Y-42419333D01*
X87282452Y-42514571D01*
X87282452Y-42609809D01*
X86806261Y-42705047D01*
X88139595Y-43038380D02*
X88139595Y-42038380D01*
X88139595Y-42990761D02*
X88044357Y-43038380D01*
X87853880Y-43038380D01*
X87758642Y-42990761D01*
X87711023Y-42943142D01*
X87663404Y-42847904D01*
X87663404Y-42562190D01*
X87711023Y-42466952D01*
X87758642Y-42419333D01*
X87853880Y-42371714D01*
X88044357Y-42371714D01*
X88139595Y-42419333D01*
X89234833Y-42371714D02*
X89615785Y-42371714D01*
X89377690Y-43038380D02*
X89377690Y-42181238D01*
X89425309Y-42086000D01*
X89520547Y-42038380D01*
X89615785Y-42038380D01*
X89949119Y-43038380D02*
X89949119Y-42371714D01*
X89949119Y-42562190D02*
X89996738Y-42466952D01*
X90044357Y-42419333D01*
X90139595Y-42371714D01*
X90234833Y-42371714D01*
X90711023Y-43038380D02*
X90615785Y-42990761D01*
X90568166Y-42943142D01*
X90520547Y-42847904D01*
X90520547Y-42562190D01*
X90568166Y-42466952D01*
X90615785Y-42419333D01*
X90711023Y-42371714D01*
X90853880Y-42371714D01*
X90949119Y-42419333D01*
X90996738Y-42466952D01*
X91044357Y-42562190D01*
X91044357Y-42847904D01*
X90996738Y-42943142D01*
X90949119Y-42990761D01*
X90853880Y-43038380D01*
X90711023Y-43038380D01*
X91472928Y-43038380D02*
X91472928Y-42371714D01*
X91472928Y-42466952D02*
X91520547Y-42419333D01*
X91615785Y-42371714D01*
X91758642Y-42371714D01*
X91853880Y-42419333D01*
X91901500Y-42514571D01*
X91901500Y-43038380D01*
X91901500Y-42514571D02*
X91949119Y-42419333D01*
X92044357Y-42371714D01*
X92187214Y-42371714D01*
X92282452Y-42419333D01*
X92330071Y-42514571D01*
X92330071Y-43038380D01*
X93996738Y-43038380D02*
X93996738Y-42514571D01*
X93949119Y-42419333D01*
X93853880Y-42371714D01*
X93663404Y-42371714D01*
X93568166Y-42419333D01*
X93996738Y-42990761D02*
X93901500Y-43038380D01*
X93663404Y-43038380D01*
X93568166Y-42990761D01*
X93520547Y-42895523D01*
X93520547Y-42800285D01*
X93568166Y-42705047D01*
X93663404Y-42657428D01*
X93901500Y-42657428D01*
X93996738Y-42609809D01*
X83568166Y-44648380D02*
X83568166Y-43648380D01*
X83568166Y-44600761D02*
X83472928Y-44648380D01*
X83282452Y-44648380D01*
X83187214Y-44600761D01*
X83139595Y-44553142D01*
X83091976Y-44457904D01*
X83091976Y-44172190D01*
X83139595Y-44076952D01*
X83187214Y-44029333D01*
X83282452Y-43981714D01*
X83472928Y-43981714D01*
X83568166Y-44029333D01*
X84425309Y-44600761D02*
X84330071Y-44648380D01*
X84139595Y-44648380D01*
X84044357Y-44600761D01*
X83996738Y-44505523D01*
X83996738Y-44124571D01*
X84044357Y-44029333D01*
X84139595Y-43981714D01*
X84330071Y-43981714D01*
X84425309Y-44029333D01*
X84472928Y-44124571D01*
X84472928Y-44219809D01*
X83996738Y-44315047D01*
X84853880Y-44600761D02*
X84949119Y-44648380D01*
X85139595Y-44648380D01*
X85234833Y-44600761D01*
X85282452Y-44505523D01*
X85282452Y-44457904D01*
X85234833Y-44362666D01*
X85139595Y-44315047D01*
X84996738Y-44315047D01*
X84901500Y-44267428D01*
X84853880Y-44172190D01*
X84853880Y-44124571D01*
X84901500Y-44029333D01*
X84996738Y-43981714D01*
X85139595Y-43981714D01*
X85234833Y-44029333D01*
X85711023Y-44648380D02*
X85711023Y-43981714D01*
X85711023Y-43648380D02*
X85663404Y-43696000D01*
X85711023Y-43743619D01*
X85758642Y-43696000D01*
X85711023Y-43648380D01*
X85711023Y-43743619D01*
X86615785Y-43981714D02*
X86615785Y-44791238D01*
X86568166Y-44886476D01*
X86520547Y-44934095D01*
X86425309Y-44981714D01*
X86282452Y-44981714D01*
X86187214Y-44934095D01*
X86615785Y-44600761D02*
X86520547Y-44648380D01*
X86330071Y-44648380D01*
X86234833Y-44600761D01*
X86187214Y-44553142D01*
X86139595Y-44457904D01*
X86139595Y-44172190D01*
X86187214Y-44076952D01*
X86234833Y-44029333D01*
X86330071Y-43981714D01*
X86520547Y-43981714D01*
X86615785Y-44029333D01*
X87091976Y-43981714D02*
X87091976Y-44648380D01*
X87091976Y-44076952D02*
X87139595Y-44029333D01*
X87234833Y-43981714D01*
X87377690Y-43981714D01*
X87472928Y-44029333D01*
X87520547Y-44124571D01*
X87520547Y-44648380D01*
X88901500Y-44648380D02*
X88806261Y-44600761D01*
X88758642Y-44553142D01*
X88711023Y-44457904D01*
X88711023Y-44172190D01*
X88758642Y-44076952D01*
X88806261Y-44029333D01*
X88901500Y-43981714D01*
X89044357Y-43981714D01*
X89139595Y-44029333D01*
X89187214Y-44076952D01*
X89234833Y-44172190D01*
X89234833Y-44457904D01*
X89187214Y-44553142D01*
X89139595Y-44600761D01*
X89044357Y-44648380D01*
X88901500Y-44648380D01*
X89663404Y-43981714D02*
X89663404Y-44648380D01*
X89663404Y-44076952D02*
X89711023Y-44029333D01*
X89806261Y-43981714D01*
X89949119Y-43981714D01*
X90044357Y-44029333D01*
X90091976Y-44124571D01*
X90091976Y-44648380D01*
X83091976Y-45972666D02*
X83568166Y-45972666D01*
X82996738Y-46258380D02*
X83330071Y-45258380D01*
X83663404Y-46258380D01*
X84330071Y-45734571D02*
X84472928Y-45782190D01*
X84520547Y-45829809D01*
X84568166Y-45925047D01*
X84568166Y-46067904D01*
X84520547Y-46163142D01*
X84472928Y-46210761D01*
X84377690Y-46258380D01*
X83996738Y-46258380D01*
X83996738Y-45258380D01*
X84330071Y-45258380D01*
X84425309Y-45306000D01*
X84472928Y-45353619D01*
X84520547Y-45448857D01*
X84520547Y-45544095D01*
X84472928Y-45639333D01*
X84425309Y-45686952D01*
X84330071Y-45734571D01*
X83996738Y-45734571D01*
X84996738Y-46258380D02*
X84996738Y-45258380D01*
X85568166Y-46258380D01*
X85568166Y-45258380D01*
X86044357Y-46258380D02*
X86044357Y-45258380D01*
X86520547Y-45734571D02*
X86853880Y-45734571D01*
X86996738Y-46258380D02*
X86520547Y-46258380D01*
X86520547Y-45258380D01*
X86996738Y-45258380D01*
X87901500Y-46258380D02*
X87425309Y-46258380D01*
X87425309Y-45258380D01*
X88187214Y-46210761D02*
X88330071Y-46258380D01*
X88568166Y-46258380D01*
X88663404Y-46210761D01*
X88711023Y-46163142D01*
X88758642Y-46067904D01*
X88758642Y-45972666D01*
X88711023Y-45877428D01*
X88663404Y-45829809D01*
X88568166Y-45782190D01*
X88377690Y-45734571D01*
X88282452Y-45686952D01*
X88234833Y-45639333D01*
X88187214Y-45544095D01*
X88187214Y-45448857D01*
X88234833Y-45353619D01*
X88282452Y-45306000D01*
X88377690Y-45258380D01*
X88615785Y-45258380D01*
X88758642Y-45306000D01*
X89187214Y-45734571D02*
X89520547Y-45734571D01*
X89663404Y-46258380D02*
X89187214Y-46258380D01*
X89187214Y-45258380D01*
X89663404Y-45258380D01*
X90091976Y-46258380D02*
X90091976Y-45258380D01*
X90663404Y-46258380D01*
X90663404Y-45258380D01*
X91139595Y-46163142D02*
X91187214Y-46210761D01*
X91139595Y-46258380D01*
X91091976Y-46210761D01*
X91139595Y-46163142D01*
X91139595Y-46258380D01*
X92187214Y-46163142D02*
X92139595Y-46210761D01*
X91996738Y-46258380D01*
X91901500Y-46258380D01*
X91758642Y-46210761D01*
X91663404Y-46115523D01*
X91615785Y-46020285D01*
X91568166Y-45829809D01*
X91568166Y-45686952D01*
X91615785Y-45496476D01*
X91663404Y-45401238D01*
X91758642Y-45306000D01*
X91901500Y-45258380D01*
X91996738Y-45258380D01*
X92139595Y-45306000D01*
X92187214Y-45353619D01*
X92806261Y-45258380D02*
X92996738Y-45258380D01*
X93091976Y-45306000D01*
X93187214Y-45401238D01*
X93234833Y-45591714D01*
X93234833Y-45925047D01*
X93187214Y-46115523D01*
X93091976Y-46210761D01*
X92996738Y-46258380D01*
X92806261Y-46258380D01*
X92711023Y-46210761D01*
X92615785Y-46115523D01*
X92568166Y-45925047D01*
X92568166Y-45591714D01*
X92615785Y-45401238D01*
X92711023Y-45306000D01*
X92806261Y-45258380D01*
X93663404Y-46258380D02*
X93663404Y-45258380D01*
X93996738Y-45972666D01*
X94330071Y-45258380D01*
X94330071Y-46258380D01*
%TO.C,C1*%
X110633142Y-55538666D02*
X110680761Y-55586285D01*
X110728380Y-55729142D01*
X110728380Y-55824380D01*
X110680761Y-55967238D01*
X110585523Y-56062476D01*
X110490285Y-56110095D01*
X110299809Y-56157714D01*
X110156952Y-56157714D01*
X109966476Y-56110095D01*
X109871238Y-56062476D01*
X109776000Y-55967238D01*
X109728380Y-55824380D01*
X109728380Y-55729142D01*
X109776000Y-55586285D01*
X109823619Y-55538666D01*
X110728380Y-54586285D02*
X110728380Y-55157714D01*
X110728380Y-54872000D02*
X109728380Y-54872000D01*
X109871238Y-54967238D01*
X109966476Y-55062476D01*
X110014095Y-55157714D01*
X115061714Y-56110095D02*
X115728380Y-56110095D01*
X114680761Y-56348190D02*
X115395047Y-56586285D01*
X115395047Y-55967238D01*
X114728380Y-55681523D02*
X114728380Y-55014857D01*
X115728380Y-55443428D01*
X115061714Y-54633904D02*
X116061714Y-54633904D01*
X115109333Y-54633904D02*
X115061714Y-54538666D01*
X115061714Y-54348190D01*
X115109333Y-54252952D01*
X115156952Y-54205333D01*
X115252190Y-54157714D01*
X115537904Y-54157714D01*
X115633142Y-54205333D01*
X115680761Y-54252952D01*
X115728380Y-54348190D01*
X115728380Y-54538666D01*
X115680761Y-54633904D01*
%TO.C,R3*%
X117689333Y-90538380D02*
X117356000Y-90062190D01*
X117117904Y-90538380D02*
X117117904Y-89538380D01*
X117498857Y-89538380D01*
X117594095Y-89586000D01*
X117641714Y-89633619D01*
X117689333Y-89728857D01*
X117689333Y-89871714D01*
X117641714Y-89966952D01*
X117594095Y-90014571D01*
X117498857Y-90062190D01*
X117117904Y-90062190D01*
X118022666Y-89538380D02*
X118641714Y-89538380D01*
X118308380Y-89919333D01*
X118451238Y-89919333D01*
X118546476Y-89966952D01*
X118594095Y-90014571D01*
X118641714Y-90109809D01*
X118641714Y-90347904D01*
X118594095Y-90443142D01*
X118546476Y-90490761D01*
X118451238Y-90538380D01*
X118165523Y-90538380D01*
X118070285Y-90490761D01*
X118022666Y-90443142D01*
X115070285Y-94611714D02*
X115070285Y-95278380D01*
X114832190Y-94230761D02*
X114594095Y-94945047D01*
X115213142Y-94945047D01*
X115498857Y-94278380D02*
X116165523Y-94278380D01*
X115736952Y-95278380D01*
X116736952Y-94278380D02*
X116832190Y-94278380D01*
X116927428Y-94326000D01*
X116975047Y-94373619D01*
X117022666Y-94468857D01*
X117070285Y-94659333D01*
X117070285Y-94897428D01*
X117022666Y-95087904D01*
X116975047Y-95183142D01*
X116927428Y-95230761D01*
X116832190Y-95278380D01*
X116736952Y-95278380D01*
X116641714Y-95230761D01*
X116594095Y-95183142D01*
X116546476Y-95087904D01*
X116498857Y-94897428D01*
X116498857Y-94659333D01*
X116546476Y-94468857D01*
X116594095Y-94373619D01*
X116641714Y-94326000D01*
X116736952Y-94278380D01*
X118451238Y-94278380D02*
X118641714Y-94278380D01*
X118736952Y-94326000D01*
X118832190Y-94421238D01*
X118879809Y-94611714D01*
X118879809Y-94945047D01*
X118832190Y-95135523D01*
X118736952Y-95230761D01*
X118641714Y-95278380D01*
X118451238Y-95278380D01*
X118356000Y-95230761D01*
X118260761Y-95135523D01*
X118213142Y-94945047D01*
X118213142Y-94611714D01*
X118260761Y-94421238D01*
X118356000Y-94326000D01*
X118451238Y-94278380D01*
X119308380Y-95278380D02*
X119308380Y-94278380D01*
X119736952Y-95278380D02*
X119736952Y-94754571D01*
X119689333Y-94659333D01*
X119594095Y-94611714D01*
X119451238Y-94611714D01*
X119356000Y-94659333D01*
X119308380Y-94706952D01*
X120213142Y-95278380D02*
X120213142Y-94611714D01*
X120213142Y-94706952D02*
X120260761Y-94659333D01*
X120356000Y-94611714D01*
X120498857Y-94611714D01*
X120594095Y-94659333D01*
X120641714Y-94754571D01*
X120641714Y-95278380D01*
X120641714Y-94754571D02*
X120689333Y-94659333D01*
X120784571Y-94611714D01*
X120927428Y-94611714D01*
X121022666Y-94659333D01*
X121070285Y-94754571D01*
X121070285Y-95278380D01*
%TO.C,U2*%
X102372095Y-69502380D02*
X102372095Y-70311904D01*
X102419714Y-70407142D01*
X102467333Y-70454761D01*
X102562571Y-70502380D01*
X102753047Y-70502380D01*
X102848285Y-70454761D01*
X102895904Y-70407142D01*
X102943523Y-70311904D01*
X102943523Y-69502380D01*
X103372095Y-69597619D02*
X103419714Y-69550000D01*
X103514952Y-69502380D01*
X103753047Y-69502380D01*
X103848285Y-69550000D01*
X103895904Y-69597619D01*
X103943523Y-69692857D01*
X103943523Y-69788095D01*
X103895904Y-69930952D01*
X103324476Y-70502380D01*
X103943523Y-70502380D01*
X100014952Y-91942380D02*
X100681619Y-91942380D01*
X100253047Y-92942380D01*
X101491142Y-92275714D02*
X101491142Y-92942380D01*
X101253047Y-91894761D02*
X101014952Y-92609047D01*
X101634000Y-92609047D01*
X102491142Y-92942380D02*
X102014952Y-92942380D01*
X102014952Y-91942380D01*
X102776857Y-92894761D02*
X102919714Y-92942380D01*
X103157809Y-92942380D01*
X103253047Y-92894761D01*
X103300666Y-92847142D01*
X103348285Y-92751904D01*
X103348285Y-92656666D01*
X103300666Y-92561428D01*
X103253047Y-92513809D01*
X103157809Y-92466190D01*
X102967333Y-92418571D01*
X102872095Y-92370952D01*
X102824476Y-92323333D01*
X102776857Y-92228095D01*
X102776857Y-92132857D01*
X102824476Y-92037619D01*
X102872095Y-91990000D01*
X102967333Y-91942380D01*
X103205428Y-91942380D01*
X103348285Y-91990000D01*
X104300666Y-92942380D02*
X103729238Y-92942380D01*
X104014952Y-92942380D02*
X104014952Y-91942380D01*
X103919714Y-92085238D01*
X103824476Y-92180476D01*
X103729238Y-92228095D01*
X105157809Y-91942380D02*
X104967333Y-91942380D01*
X104872095Y-91990000D01*
X104824476Y-92037619D01*
X104729238Y-92180476D01*
X104681619Y-92370952D01*
X104681619Y-92751904D01*
X104729238Y-92847142D01*
X104776857Y-92894761D01*
X104872095Y-92942380D01*
X105062571Y-92942380D01*
X105157809Y-92894761D01*
X105205428Y-92847142D01*
X105253047Y-92751904D01*
X105253047Y-92513809D01*
X105205428Y-92418571D01*
X105157809Y-92370952D01*
X105062571Y-92323333D01*
X104872095Y-92323333D01*
X104776857Y-92370952D01*
X104729238Y-92418571D01*
X104681619Y-92513809D01*
X106157809Y-91942380D02*
X105681619Y-91942380D01*
X105634000Y-92418571D01*
X105681619Y-92370952D01*
X105776857Y-92323333D01*
X106014952Y-92323333D01*
X106110190Y-92370952D01*
X106157809Y-92418571D01*
X106205428Y-92513809D01*
X106205428Y-92751904D01*
X106157809Y-92847142D01*
X106110190Y-92894761D01*
X106014952Y-92942380D01*
X105776857Y-92942380D01*
X105681619Y-92894761D01*
X105634000Y-92847142D01*
%TO.C,J2*%
X119676380Y-45037333D02*
X120390666Y-45037333D01*
X120533523Y-45084952D01*
X120628761Y-45180190D01*
X120676380Y-45323047D01*
X120676380Y-45418285D01*
X119771619Y-44608761D02*
X119724000Y-44561142D01*
X119676380Y-44465904D01*
X119676380Y-44227809D01*
X119724000Y-44132571D01*
X119771619Y-44084952D01*
X119866857Y-44037333D01*
X119962095Y-44037333D01*
X120104952Y-44084952D01*
X120676380Y-44656380D01*
X120676380Y-44037333D01*
X127794095Y-52284380D02*
X127794095Y-52998666D01*
X127746476Y-53141523D01*
X127651238Y-53236761D01*
X127508380Y-53284380D01*
X127413142Y-53284380D01*
X128698857Y-53284380D02*
X128698857Y-52760571D01*
X128651238Y-52665333D01*
X128556000Y-52617714D01*
X128365523Y-52617714D01*
X128270285Y-52665333D01*
X128698857Y-53236761D02*
X128603619Y-53284380D01*
X128365523Y-53284380D01*
X128270285Y-53236761D01*
X128222666Y-53141523D01*
X128222666Y-53046285D01*
X128270285Y-52951047D01*
X128365523Y-52903428D01*
X128603619Y-52903428D01*
X128698857Y-52855809D01*
X129603619Y-53236761D02*
X129508380Y-53284380D01*
X129317904Y-53284380D01*
X129222666Y-53236761D01*
X129175047Y-53189142D01*
X129127428Y-53093904D01*
X129127428Y-52808190D01*
X129175047Y-52712952D01*
X129222666Y-52665333D01*
X129317904Y-52617714D01*
X129508380Y-52617714D01*
X129603619Y-52665333D01*
X130032190Y-53284380D02*
X130032190Y-52284380D01*
X130127428Y-52903428D02*
X130413142Y-53284380D01*
X130413142Y-52617714D02*
X130032190Y-52998666D01*
X130841714Y-52903428D02*
X131603619Y-52903428D01*
X132079809Y-53284380D02*
X132079809Y-52284380D01*
X132317904Y-52284380D01*
X132460761Y-52332000D01*
X132556000Y-52427238D01*
X132603619Y-52522476D01*
X132651238Y-52712952D01*
X132651238Y-52855809D01*
X132603619Y-53046285D01*
X132556000Y-53141523D01*
X132460761Y-53236761D01*
X132317904Y-53284380D01*
X132079809Y-53284380D01*
X133651238Y-53189142D02*
X133603619Y-53236761D01*
X133460761Y-53284380D01*
X133365523Y-53284380D01*
X133222666Y-53236761D01*
X133127428Y-53141523D01*
X133079809Y-53046285D01*
X133032190Y-52855809D01*
X133032190Y-52712952D01*
X133079809Y-52522476D01*
X133127428Y-52427238D01*
X133222666Y-52332000D01*
X133365523Y-52284380D01*
X133460761Y-52284380D01*
X133603619Y-52332000D01*
X133651238Y-52379619D01*
%TO.C,X1*%
X123142476Y-78530380D02*
X123809142Y-79530380D01*
X123809142Y-78530380D02*
X123142476Y-79530380D01*
X124713904Y-79530380D02*
X124142476Y-79530380D01*
X124428190Y-79530380D02*
X124428190Y-78530380D01*
X124332952Y-78673238D01*
X124237714Y-78768476D01*
X124142476Y-78816095D01*
X122428190Y-63958952D02*
X122332952Y-63911333D01*
X122285333Y-63863714D01*
X122237714Y-63768476D01*
X122237714Y-63720857D01*
X122285333Y-63625619D01*
X122332952Y-63578000D01*
X122428190Y-63530380D01*
X122618666Y-63530380D01*
X122713904Y-63578000D01*
X122761523Y-63625619D01*
X122809142Y-63720857D01*
X122809142Y-63768476D01*
X122761523Y-63863714D01*
X122713904Y-63911333D01*
X122618666Y-63958952D01*
X122428190Y-63958952D01*
X122332952Y-64006571D01*
X122285333Y-64054190D01*
X122237714Y-64149428D01*
X122237714Y-64339904D01*
X122285333Y-64435142D01*
X122332952Y-64482761D01*
X122428190Y-64530380D01*
X122618666Y-64530380D01*
X122713904Y-64482761D01*
X122761523Y-64435142D01*
X122809142Y-64339904D01*
X122809142Y-64149428D01*
X122761523Y-64054190D01*
X122713904Y-64006571D01*
X122618666Y-63958952D01*
X123237714Y-64530380D02*
X123237714Y-63530380D01*
X123571047Y-64244666D01*
X123904380Y-63530380D01*
X123904380Y-64530380D01*
X124380571Y-64530380D02*
X124380571Y-63530380D01*
X124809142Y-64530380D02*
X124809142Y-64006571D01*
X124761523Y-63911333D01*
X124666285Y-63863714D01*
X124523428Y-63863714D01*
X124428190Y-63911333D01*
X124380571Y-63958952D01*
X125190095Y-63863714D02*
X125713904Y-63863714D01*
X125190095Y-64530380D01*
X125713904Y-64530380D01*
%TO.C,D1*%
X114577904Y-44578380D02*
X114577904Y-43578380D01*
X114816000Y-43578380D01*
X114958857Y-43626000D01*
X115054095Y-43721238D01*
X115101714Y-43816476D01*
X115149333Y-44006952D01*
X115149333Y-44149809D01*
X115101714Y-44340285D01*
X115054095Y-44435523D01*
X114958857Y-44530761D01*
X114816000Y-44578380D01*
X114577904Y-44578380D01*
X116101714Y-44578380D02*
X115530285Y-44578380D01*
X115816000Y-44578380D02*
X115816000Y-43578380D01*
X115720761Y-43721238D01*
X115625523Y-43816476D01*
X115530285Y-43864095D01*
X114077904Y-38971714D02*
X114077904Y-39638380D01*
X113839809Y-38590761D02*
X113601714Y-39305047D01*
X114220761Y-39305047D01*
X115125523Y-39638380D02*
X114554095Y-39638380D01*
X114839809Y-39638380D02*
X114839809Y-38638380D01*
X114744571Y-38781238D01*
X114649333Y-38876476D01*
X114554095Y-38924095D01*
X115982666Y-38971714D02*
X115982666Y-39638380D01*
X115744571Y-38590761D02*
X115506476Y-39305047D01*
X116125523Y-39305047D01*
X116649333Y-39066952D02*
X116554095Y-39019333D01*
X116506476Y-38971714D01*
X116458857Y-38876476D01*
X116458857Y-38828857D01*
X116506476Y-38733619D01*
X116554095Y-38686000D01*
X116649333Y-38638380D01*
X116839809Y-38638380D01*
X116935047Y-38686000D01*
X116982666Y-38733619D01*
X117030285Y-38828857D01*
X117030285Y-38876476D01*
X116982666Y-38971714D01*
X116935047Y-39019333D01*
X116839809Y-39066952D01*
X116649333Y-39066952D01*
X116554095Y-39114571D01*
X116506476Y-39162190D01*
X116458857Y-39257428D01*
X116458857Y-39447904D01*
X116506476Y-39543142D01*
X116554095Y-39590761D01*
X116649333Y-39638380D01*
X116839809Y-39638380D01*
X116935047Y-39590761D01*
X116982666Y-39543142D01*
X117030285Y-39447904D01*
X117030285Y-39257428D01*
X116982666Y-39162190D01*
X116935047Y-39114571D01*
X116839809Y-39066952D01*
X118864095Y-40076380D02*
X118864095Y-39076380D01*
X119435523Y-40076380D02*
X119006952Y-39504952D01*
X119435523Y-39076380D02*
X118864095Y-39647809D01*
%TO.C,C3*%
X124248446Y-87419142D02*
X124200827Y-87466761D01*
X124057970Y-87514380D01*
X123962732Y-87514380D01*
X123819874Y-87466761D01*
X123724636Y-87371523D01*
X123677017Y-87276285D01*
X123629398Y-87085809D01*
X123629398Y-86942952D01*
X123677017Y-86752476D01*
X123724636Y-86657238D01*
X123819874Y-86562000D01*
X123962732Y-86514380D01*
X124057970Y-86514380D01*
X124200827Y-86562000D01*
X124248446Y-86609619D01*
X124581779Y-86514380D02*
X125200827Y-86514380D01*
X124867493Y-86895333D01*
X125010351Y-86895333D01*
X125105589Y-86942952D01*
X125153208Y-86990571D01*
X125200827Y-87085809D01*
X125200827Y-87323904D01*
X125153208Y-87419142D01*
X125105589Y-87466761D01*
X125010351Y-87514380D01*
X124724636Y-87514380D01*
X124629398Y-87466761D01*
X124581779Y-87419142D01*
X120848380Y-85335809D02*
X120848380Y-85907238D01*
X120848380Y-85621523D02*
X119848380Y-85621523D01*
X119991238Y-85716761D01*
X120086476Y-85812000D01*
X120134095Y-85907238D01*
X119848380Y-84716761D02*
X119848380Y-84621523D01*
X119896000Y-84526285D01*
X119943619Y-84478666D01*
X120038857Y-84431047D01*
X120229333Y-84383428D01*
X120467428Y-84383428D01*
X120657904Y-84431047D01*
X120753142Y-84478666D01*
X120800761Y-84526285D01*
X120848380Y-84621523D01*
X120848380Y-84716761D01*
X120800761Y-84812000D01*
X120753142Y-84859619D01*
X120657904Y-84907238D01*
X120467428Y-84954857D01*
X120229333Y-84954857D01*
X120038857Y-84907238D01*
X119943619Y-84859619D01*
X119896000Y-84812000D01*
X119848380Y-84716761D01*
X119848380Y-83764380D02*
X119848380Y-83669142D01*
X119896000Y-83573904D01*
X119943619Y-83526285D01*
X120038857Y-83478666D01*
X120229333Y-83431047D01*
X120467428Y-83431047D01*
X120657904Y-83478666D01*
X120753142Y-83526285D01*
X120800761Y-83573904D01*
X120848380Y-83669142D01*
X120848380Y-83764380D01*
X120800761Y-83859619D01*
X120753142Y-83907238D01*
X120657904Y-83954857D01*
X120467428Y-84002476D01*
X120229333Y-84002476D01*
X120038857Y-83954857D01*
X119943619Y-83907238D01*
X119896000Y-83859619D01*
X119848380Y-83764380D01*
X119848380Y-82812000D02*
X119848380Y-82716761D01*
X119896000Y-82621523D01*
X119943619Y-82573904D01*
X120038857Y-82526285D01*
X120229333Y-82478666D01*
X120467428Y-82478666D01*
X120657904Y-82526285D01*
X120753142Y-82573904D01*
X120800761Y-82621523D01*
X120848380Y-82716761D01*
X120848380Y-82812000D01*
X120800761Y-82907238D01*
X120753142Y-82954857D01*
X120657904Y-83002476D01*
X120467428Y-83050095D01*
X120229333Y-83050095D01*
X120038857Y-83002476D01*
X119943619Y-82954857D01*
X119896000Y-82907238D01*
X119848380Y-82812000D01*
X120181714Y-81621523D02*
X120848380Y-81621523D01*
X120181714Y-82050095D02*
X120705523Y-82050095D01*
X120800761Y-82002476D01*
X120848380Y-81907238D01*
X120848380Y-81764380D01*
X120800761Y-81669142D01*
X120753142Y-81621523D01*
X120324571Y-80812000D02*
X120324571Y-81145333D01*
X120848380Y-81145333D02*
X119848380Y-81145333D01*
X119848380Y-80669142D01*
%TO.C,J3*%
X126532380Y-92789333D02*
X127246666Y-92789333D01*
X127389523Y-92836952D01*
X127484761Y-92932190D01*
X127532380Y-93075047D01*
X127532380Y-93170285D01*
X126532380Y-92408380D02*
X126532380Y-91789333D01*
X126913333Y-92122666D01*
X126913333Y-91979809D01*
X126960952Y-91884571D01*
X127008571Y-91836952D01*
X127103809Y-91789333D01*
X127341904Y-91789333D01*
X127437142Y-91836952D01*
X127484761Y-91884571D01*
X127532380Y-91979809D01*
X127532380Y-92265523D01*
X127484761Y-92360761D01*
X127437142Y-92408380D01*
X127786285Y-97496380D02*
X128024380Y-98496380D01*
X128214857Y-97782095D01*
X128405333Y-98496380D01*
X128643428Y-97496380D01*
X128976761Y-98448761D02*
X129119619Y-98496380D01*
X129357714Y-98496380D01*
X129452952Y-98448761D01*
X129500571Y-98401142D01*
X129548190Y-98305904D01*
X129548190Y-98210666D01*
X129500571Y-98115428D01*
X129452952Y-98067809D01*
X129357714Y-98020190D01*
X129167238Y-97972571D01*
X129072000Y-97924952D01*
X129024380Y-97877333D01*
X128976761Y-97782095D01*
X128976761Y-97686857D01*
X129024380Y-97591619D01*
X129072000Y-97544000D01*
X129167238Y-97496380D01*
X129405333Y-97496380D01*
X129548190Y-97544000D01*
X130452952Y-97496380D02*
X129976761Y-97496380D01*
X129929142Y-97972571D01*
X129976761Y-97924952D01*
X130072000Y-97877333D01*
X130310095Y-97877333D01*
X130405333Y-97924952D01*
X130452952Y-97972571D01*
X130500571Y-98067809D01*
X130500571Y-98305904D01*
X130452952Y-98401142D01*
X130405333Y-98448761D01*
X130310095Y-98496380D01*
X130072000Y-98496380D01*
X129976761Y-98448761D01*
X129929142Y-98401142D01*
X131452952Y-98496380D02*
X130881523Y-98496380D01*
X131167238Y-98496380D02*
X131167238Y-97496380D01*
X131072000Y-97639238D01*
X130976761Y-97734476D01*
X130881523Y-97782095D01*
X131833904Y-97591619D02*
X131881523Y-97544000D01*
X131976761Y-97496380D01*
X132214857Y-97496380D01*
X132310095Y-97544000D01*
X132357714Y-97591619D01*
X132405333Y-97686857D01*
X132405333Y-97782095D01*
X132357714Y-97924952D01*
X131786285Y-98496380D01*
X132405333Y-98496380D01*
X132976761Y-97924952D02*
X132881523Y-97877333D01*
X132833904Y-97829714D01*
X132786285Y-97734476D01*
X132786285Y-97686857D01*
X132833904Y-97591619D01*
X132881523Y-97544000D01*
X132976761Y-97496380D01*
X133167238Y-97496380D01*
X133262476Y-97544000D01*
X133310095Y-97591619D01*
X133357714Y-97686857D01*
X133357714Y-97734476D01*
X133310095Y-97829714D01*
X133262476Y-97877333D01*
X133167238Y-97924952D01*
X132976761Y-97924952D01*
X132881523Y-97972571D01*
X132833904Y-98020190D01*
X132786285Y-98115428D01*
X132786285Y-98305904D01*
X132833904Y-98401142D01*
X132881523Y-98448761D01*
X132976761Y-98496380D01*
X133167238Y-98496380D01*
X133262476Y-98448761D01*
X133310095Y-98401142D01*
X133357714Y-98305904D01*
X133357714Y-98115428D01*
X133310095Y-98020190D01*
X133262476Y-97972571D01*
X133167238Y-97924952D01*
X133738666Y-97591619D02*
X133786285Y-97544000D01*
X133881523Y-97496380D01*
X134119619Y-97496380D01*
X134214857Y-97544000D01*
X134262476Y-97591619D01*
X134310095Y-97686857D01*
X134310095Y-97782095D01*
X134262476Y-97924952D01*
X133691047Y-98496380D01*
X134310095Y-98496380D01*
X135072000Y-97972571D02*
X135214857Y-98020190D01*
X135262476Y-98067809D01*
X135310095Y-98163047D01*
X135310095Y-98305904D01*
X135262476Y-98401142D01*
X135214857Y-98448761D01*
X135119619Y-98496380D01*
X134738666Y-98496380D01*
X134738666Y-97496380D01*
X135072000Y-97496380D01*
X135167238Y-97544000D01*
X135214857Y-97591619D01*
X135262476Y-97686857D01*
X135262476Y-97782095D01*
X135214857Y-97877333D01*
X135167238Y-97924952D01*
X135072000Y-97972571D01*
X134738666Y-97972571D01*
%TO.C,J1*%
X88049166Y-87086380D02*
X88049166Y-87800666D01*
X88001547Y-87943523D01*
X87906309Y-88038761D01*
X87763452Y-88086380D01*
X87668214Y-88086380D01*
X89049166Y-88086380D02*
X88477738Y-88086380D01*
X88763452Y-88086380D02*
X88763452Y-87086380D01*
X88668214Y-87229238D01*
X88572976Y-87324476D01*
X88477738Y-87372095D01*
%TO.C,X2*%
X123142476Y-75144380D02*
X123809142Y-76144380D01*
X123809142Y-75144380D02*
X123142476Y-76144380D01*
X124142476Y-75239619D02*
X124190095Y-75192000D01*
X124285333Y-75144380D01*
X124523428Y-75144380D01*
X124618666Y-75192000D01*
X124666285Y-75239619D01*
X124713904Y-75334857D01*
X124713904Y-75430095D01*
X124666285Y-75572952D01*
X124094857Y-76144380D01*
X124713904Y-76144380D01*
%TO.C,U1*%
X102372095Y-46134380D02*
X102372095Y-46943904D01*
X102419714Y-47039142D01*
X102467333Y-47086761D01*
X102562571Y-47134380D01*
X102753047Y-47134380D01*
X102848285Y-47086761D01*
X102895904Y-47039142D01*
X102943523Y-46943904D01*
X102943523Y-46134380D01*
X103943523Y-47134380D02*
X103372095Y-47134380D01*
X103657809Y-47134380D02*
X103657809Y-46134380D01*
X103562571Y-46277238D01*
X103467333Y-46372476D01*
X103372095Y-46420095D01*
X100348285Y-66034380D02*
X101014952Y-66034380D01*
X100586380Y-67034380D01*
X101824476Y-66367714D02*
X101824476Y-67034380D01*
X101586380Y-65986761D02*
X101348285Y-66701047D01*
X101967333Y-66701047D01*
X102348285Y-67034380D02*
X102348285Y-66034380D01*
X102348285Y-66510571D02*
X102919714Y-66510571D01*
X102919714Y-67034380D02*
X102919714Y-66034380D01*
X103967333Y-66939142D02*
X103919714Y-66986761D01*
X103776857Y-67034380D01*
X103681619Y-67034380D01*
X103538761Y-66986761D01*
X103443523Y-66891523D01*
X103395904Y-66796285D01*
X103348285Y-66605809D01*
X103348285Y-66462952D01*
X103395904Y-66272476D01*
X103443523Y-66177238D01*
X103538761Y-66082000D01*
X103681619Y-66034380D01*
X103776857Y-66034380D01*
X103919714Y-66082000D01*
X103967333Y-66129619D01*
X104919714Y-67034380D02*
X104348285Y-67034380D01*
X104634000Y-67034380D02*
X104634000Y-66034380D01*
X104538761Y-66177238D01*
X104443523Y-66272476D01*
X104348285Y-66320095D01*
X105776857Y-66367714D02*
X105776857Y-67034380D01*
X105538761Y-65986761D02*
X105300666Y-66701047D01*
X105919714Y-66701047D01*
%TO.C,R1*%
X117689333Y-58534380D02*
X117356000Y-58058190D01*
X117117904Y-58534380D02*
X117117904Y-57534380D01*
X117498857Y-57534380D01*
X117594095Y-57582000D01*
X117641714Y-57629619D01*
X117689333Y-57724857D01*
X117689333Y-57867714D01*
X117641714Y-57962952D01*
X117594095Y-58010571D01*
X117498857Y-58058190D01*
X117117904Y-58058190D01*
X118641714Y-58534380D02*
X118070285Y-58534380D01*
X118356000Y-58534380D02*
X118356000Y-57534380D01*
X118260761Y-57677238D01*
X118165523Y-57772476D01*
X118070285Y-57820095D01*
X116927428Y-62274380D02*
X116736952Y-62274380D01*
X116641714Y-62322000D01*
X116594095Y-62369619D01*
X116498857Y-62512476D01*
X116451238Y-62702952D01*
X116451238Y-63083904D01*
X116498857Y-63179142D01*
X116546476Y-63226761D01*
X116641714Y-63274380D01*
X116832190Y-63274380D01*
X116927428Y-63226761D01*
X116975047Y-63179142D01*
X117022666Y-63083904D01*
X117022666Y-62845809D01*
X116975047Y-62750571D01*
X116927428Y-62702952D01*
X116832190Y-62655333D01*
X116641714Y-62655333D01*
X116546476Y-62702952D01*
X116498857Y-62750571D01*
X116451238Y-62845809D01*
X117451238Y-63179142D02*
X117498857Y-63226761D01*
X117451238Y-63274380D01*
X117403619Y-63226761D01*
X117451238Y-63179142D01*
X117451238Y-63274380D01*
X118070285Y-62702952D02*
X117975047Y-62655333D01*
X117927428Y-62607714D01*
X117879809Y-62512476D01*
X117879809Y-62464857D01*
X117927428Y-62369619D01*
X117975047Y-62322000D01*
X118070285Y-62274380D01*
X118260761Y-62274380D01*
X118356000Y-62322000D01*
X118403619Y-62369619D01*
X118451238Y-62464857D01*
X118451238Y-62512476D01*
X118403619Y-62607714D01*
X118356000Y-62655333D01*
X118260761Y-62702952D01*
X118070285Y-62702952D01*
X117975047Y-62750571D01*
X117927428Y-62798190D01*
X117879809Y-62893428D01*
X117879809Y-63083904D01*
X117927428Y-63179142D01*
X117975047Y-63226761D01*
X118070285Y-63274380D01*
X118260761Y-63274380D01*
X118356000Y-63226761D01*
X118403619Y-63179142D01*
X118451238Y-63083904D01*
X118451238Y-62893428D01*
X118403619Y-62798190D01*
X118356000Y-62750571D01*
X118260761Y-62702952D01*
X118879809Y-63274380D02*
X118879809Y-62274380D01*
X118975047Y-62893428D02*
X119260761Y-63274380D01*
X119260761Y-62607714D02*
X118879809Y-62988666D01*
%TO.C,C2*%
X116673333Y-46625142D02*
X116625714Y-46672761D01*
X116482857Y-46720380D01*
X116387619Y-46720380D01*
X116244761Y-46672761D01*
X116149523Y-46577523D01*
X116101904Y-46482285D01*
X116054285Y-46291809D01*
X116054285Y-46148952D01*
X116101904Y-45958476D01*
X116149523Y-45863238D01*
X116244761Y-45768000D01*
X116387619Y-45720380D01*
X116482857Y-45720380D01*
X116625714Y-45768000D01*
X116673333Y-45815619D01*
X117054285Y-45815619D02*
X117101904Y-45768000D01*
X117197142Y-45720380D01*
X117435238Y-45720380D01*
X117530476Y-45768000D01*
X117578095Y-45815619D01*
X117625714Y-45910857D01*
X117625714Y-46006095D01*
X117578095Y-46148952D01*
X117006666Y-46720380D01*
X117625714Y-46720380D01*
X114673333Y-50720380D02*
X115292380Y-50720380D01*
X114959047Y-51101333D01*
X115101904Y-51101333D01*
X115197142Y-51148952D01*
X115244761Y-51196571D01*
X115292380Y-51291809D01*
X115292380Y-51529904D01*
X115244761Y-51625142D01*
X115197142Y-51672761D01*
X115101904Y-51720380D01*
X114816190Y-51720380D01*
X114720952Y-51672761D01*
X114673333Y-51625142D01*
X115625714Y-50720380D02*
X116244761Y-50720380D01*
X115911428Y-51101333D01*
X116054285Y-51101333D01*
X116149523Y-51148952D01*
X116197142Y-51196571D01*
X116244761Y-51291809D01*
X116244761Y-51529904D01*
X116197142Y-51625142D01*
X116149523Y-51672761D01*
X116054285Y-51720380D01*
X115768571Y-51720380D01*
X115673333Y-51672761D01*
X115625714Y-51625142D01*
X116863809Y-50720380D02*
X116959047Y-50720380D01*
X117054285Y-50768000D01*
X117101904Y-50815619D01*
X117149523Y-50910857D01*
X117197142Y-51101333D01*
X117197142Y-51339428D01*
X117149523Y-51529904D01*
X117101904Y-51625142D01*
X117054285Y-51672761D01*
X116959047Y-51720380D01*
X116863809Y-51720380D01*
X116768571Y-51672761D01*
X116720952Y-51625142D01*
X116673333Y-51529904D01*
X116625714Y-51339428D01*
X116625714Y-51101333D01*
X116673333Y-50910857D01*
X116720952Y-50815619D01*
X116768571Y-50768000D01*
X116863809Y-50720380D01*
X117625714Y-51053714D02*
X117625714Y-52053714D01*
X117625714Y-51101333D02*
X117720952Y-51053714D01*
X117911428Y-51053714D01*
X118006666Y-51101333D01*
X118054285Y-51148952D01*
X118101904Y-51244190D01*
X118101904Y-51529904D01*
X118054285Y-51625142D01*
X118006666Y-51672761D01*
X117911428Y-51720380D01*
X117720952Y-51720380D01*
X117625714Y-51672761D01*
X118863809Y-51196571D02*
X118530476Y-51196571D01*
X118530476Y-51720380D02*
X118530476Y-50720380D01*
X119006666Y-50720380D01*
%TO.C,R2*%
X102957333Y-39738380D02*
X102624000Y-39262190D01*
X102385904Y-39738380D02*
X102385904Y-38738380D01*
X102766857Y-38738380D01*
X102862095Y-38786000D01*
X102909714Y-38833619D01*
X102957333Y-38928857D01*
X102957333Y-39071714D01*
X102909714Y-39166952D01*
X102862095Y-39214571D01*
X102766857Y-39262190D01*
X102385904Y-39262190D01*
X103338285Y-38833619D02*
X103385904Y-38786000D01*
X103481142Y-38738380D01*
X103719238Y-38738380D01*
X103814476Y-38786000D01*
X103862095Y-38833619D01*
X103909714Y-38928857D01*
X103909714Y-39024095D01*
X103862095Y-39166952D01*
X103290666Y-39738380D01*
X103909714Y-39738380D01*
X102195428Y-43478380D02*
X102004952Y-43478380D01*
X101909714Y-43526000D01*
X101862095Y-43573619D01*
X101766857Y-43716476D01*
X101719238Y-43906952D01*
X101719238Y-44287904D01*
X101766857Y-44383142D01*
X101814476Y-44430761D01*
X101909714Y-44478380D01*
X102100190Y-44478380D01*
X102195428Y-44430761D01*
X102243047Y-44383142D01*
X102290666Y-44287904D01*
X102290666Y-44049809D01*
X102243047Y-43954571D01*
X102195428Y-43906952D01*
X102100190Y-43859333D01*
X101909714Y-43859333D01*
X101814476Y-43906952D01*
X101766857Y-43954571D01*
X101719238Y-44049809D01*
X102719238Y-44383142D02*
X102766857Y-44430761D01*
X102719238Y-44478380D01*
X102671619Y-44430761D01*
X102719238Y-44383142D01*
X102719238Y-44478380D01*
X103338285Y-43906952D02*
X103243047Y-43859333D01*
X103195428Y-43811714D01*
X103147809Y-43716476D01*
X103147809Y-43668857D01*
X103195428Y-43573619D01*
X103243047Y-43526000D01*
X103338285Y-43478380D01*
X103528761Y-43478380D01*
X103624000Y-43526000D01*
X103671619Y-43573619D01*
X103719238Y-43668857D01*
X103719238Y-43716476D01*
X103671619Y-43811714D01*
X103624000Y-43859333D01*
X103528761Y-43906952D01*
X103338285Y-43906952D01*
X103243047Y-43954571D01*
X103195428Y-44002190D01*
X103147809Y-44097428D01*
X103147809Y-44287904D01*
X103195428Y-44383142D01*
X103243047Y-44430761D01*
X103338285Y-44478380D01*
X103528761Y-44478380D01*
X103624000Y-44430761D01*
X103671619Y-44383142D01*
X103719238Y-44287904D01*
X103719238Y-44097428D01*
X103671619Y-44002190D01*
X103624000Y-43954571D01*
X103528761Y-43906952D01*
X104147809Y-44478380D02*
X104147809Y-43478380D01*
X104243047Y-44097428D02*
X104528761Y-44478380D01*
X104528761Y-43811714D02*
X104147809Y-44192666D01*
D13*
%TO.C,C1*%
X111406000Y-52752000D02*
X114146000Y-52752000D01*
X111406000Y-57992000D02*
X111406000Y-52752000D01*
X111406000Y-57992000D02*
X114146000Y-57992000D01*
X114146000Y-57992000D02*
X114146000Y-52752000D01*
%TO.C,R3*%
X121126000Y-91086000D02*
X114586000Y-91086000D01*
X114586000Y-93826000D02*
X121126000Y-93826000D01*
X121896000Y-92456000D02*
X121126000Y-92456000D01*
X114586000Y-91086000D02*
X114586000Y-93826000D01*
X121126000Y-93826000D02*
X121126000Y-91086000D01*
X113816000Y-92456000D02*
X114586000Y-92456000D01*
%TO.C,U2*%
X108274000Y-91550000D02*
X108274000Y-70990000D01*
X102134000Y-71050000D02*
X100484000Y-71050000D01*
X97994000Y-70990000D02*
X97994000Y-91550000D01*
X108274000Y-70990000D02*
X97994000Y-70990000D01*
X97994000Y-91550000D02*
X108274000Y-91550000D01*
X100484000Y-71050000D02*
X100484000Y-91490000D01*
X105784000Y-91490000D02*
X105784000Y-71050000D01*
X100484000Y-91490000D02*
X105784000Y-91490000D01*
X105784000Y-71050000D02*
X104134000Y-71050000D01*
X102134000Y-71050000D02*
G75*
G03*
X104134000Y-71050000I1000000J0D01*
G01*
%TO.C,J2*%
X121224000Y-45704000D02*
X121224000Y-43704000D01*
X122414000Y-49814000D02*
X122414000Y-47004000D01*
X135634000Y-39594000D02*
X135634000Y-49814000D01*
X122414000Y-42404000D02*
X122414000Y-39594000D01*
X132574000Y-39594000D02*
X135634000Y-39594000D01*
X122414000Y-39594000D02*
X128474000Y-39594000D01*
X128474000Y-49814000D02*
X122414000Y-49814000D01*
X135634000Y-49814000D02*
X132574000Y-49814000D01*
%TO.C,X1*%
X134402000Y-77328000D02*
X134402000Y-65178000D01*
X113502000Y-65928000D02*
X113502000Y-77328000D01*
X134402000Y-65178000D02*
X114252000Y-65178000D01*
X114252000Y-78078000D02*
X133652000Y-78078000D01*
X113502000Y-77328000D02*
G75*
G03*
X114252000Y-78078000I750000J0D01*
G01*
X133652000Y-78078000D02*
G75*
G03*
X134402000Y-77328000I0J750000D01*
G01*
X114252000Y-65178000D02*
G75*
G03*
X113502000Y-65928000I0J-750000D01*
G01*
%TO.C,D1*%
X117256000Y-43126000D02*
X117256000Y-40186000D01*
X117136000Y-43126000D02*
X117136000Y-40186000D01*
X117016000Y-43126000D02*
X117016000Y-40186000D01*
X118036000Y-43126000D02*
X112596000Y-43126000D01*
X112596000Y-43126000D02*
X112596000Y-42796000D01*
X118036000Y-40186000D02*
X112596000Y-40186000D01*
X118036000Y-40516000D02*
X118036000Y-40186000D01*
X118036000Y-42796000D02*
X118036000Y-43126000D01*
X112596000Y-40186000D02*
X112596000Y-40516000D01*
%TO.C,C3*%
X123935113Y-85848000D02*
X123935113Y-84352000D01*
X122054113Y-84410000D02*
X122054113Y-82214000D01*
X123134113Y-85559000D02*
X123134113Y-84352000D01*
X123254113Y-85622000D02*
X123254113Y-84352000D01*
X122574113Y-82272000D02*
X122574113Y-81486000D01*
X124255113Y-85888000D02*
X124255113Y-80736000D01*
X124015113Y-85862000D02*
X124015113Y-84352000D01*
X122334113Y-84866000D02*
X122334113Y-84352000D01*
X122534113Y-82272000D02*
X122534113Y-81527000D01*
X122454113Y-85011000D02*
X122454113Y-84352000D01*
X122894113Y-82272000D02*
X122894113Y-81217000D01*
X123334113Y-82272000D02*
X123334113Y-80964000D01*
X124375113Y-85892000D02*
X124375113Y-80732000D01*
X123054113Y-82272000D02*
X123054113Y-81112000D01*
X122414113Y-84965000D02*
X122414113Y-84352000D01*
X123214113Y-82272000D02*
X123214113Y-81022000D01*
X124055113Y-82272000D02*
X124055113Y-80756000D01*
X122094113Y-84490000D02*
X122094113Y-82134000D01*
X123414113Y-82272000D02*
X123414113Y-80930000D01*
X126969888Y-85037000D02*
X126969888Y-84537000D01*
X122934113Y-82272000D02*
X122934113Y-81190000D01*
X122774113Y-85316000D02*
X122774113Y-84352000D01*
X122854113Y-82272000D02*
X122854113Y-81247000D01*
X123895113Y-82272000D02*
X123895113Y-80784000D01*
X124215113Y-85885000D02*
X124215113Y-80739000D01*
X123014113Y-85487000D02*
X123014113Y-84352000D01*
X121854113Y-83830000D02*
X121854113Y-82794000D01*
X122174113Y-82272000D02*
X122174113Y-81993000D01*
X122454113Y-82272000D02*
X122454113Y-81613000D01*
X122894113Y-85407000D02*
X122894113Y-84352000D01*
X121934113Y-84117000D02*
X121934113Y-82507000D01*
X122254113Y-84755000D02*
X122254113Y-84352000D01*
X123534113Y-82272000D02*
X123534113Y-80884000D01*
X123254113Y-82272000D02*
X123254113Y-81002000D01*
X122654113Y-82272000D02*
X122654113Y-81411000D01*
X124055113Y-85868000D02*
X124055113Y-84352000D01*
X123775113Y-82272000D02*
X123775113Y-80811000D01*
X124175113Y-85881000D02*
X124175113Y-84352000D01*
X123494113Y-82272000D02*
X123494113Y-80898000D01*
X124135113Y-82272000D02*
X124135113Y-80747000D01*
X122014113Y-84323000D02*
X122014113Y-82301000D01*
X123694113Y-85792000D02*
X123694113Y-84352000D01*
X123815113Y-82272000D02*
X123815113Y-80801000D01*
X123294113Y-85641000D02*
X123294113Y-84352000D01*
X124095113Y-82272000D02*
X124095113Y-80751000D01*
X122374113Y-84917000D02*
X122374113Y-84352000D01*
X122214113Y-84695000D02*
X122214113Y-84352000D01*
X123614113Y-82272000D02*
X123614113Y-80857000D01*
X121894113Y-83989000D02*
X121894113Y-82635000D01*
X122494113Y-85055000D02*
X122494113Y-84352000D01*
X122734113Y-85283000D02*
X122734113Y-84352000D01*
X122494113Y-82272000D02*
X122494113Y-81569000D01*
X123374113Y-85677000D02*
X123374113Y-84352000D01*
X122734113Y-82272000D02*
X122734113Y-81341000D01*
X124095113Y-85873000D02*
X124095113Y-84352000D01*
X123174113Y-82272000D02*
X123174113Y-81044000D01*
X122774113Y-82272000D02*
X122774113Y-81308000D01*
X122934113Y-85434000D02*
X122934113Y-84352000D01*
X123895113Y-85840000D02*
X123895113Y-84352000D01*
X123054113Y-85512000D02*
X123054113Y-84352000D01*
X123574113Y-82272000D02*
X123574113Y-80870000D01*
X124415113Y-85892000D02*
X124415113Y-80732000D01*
X122174113Y-84631000D02*
X122174113Y-84352000D01*
X123975113Y-82272000D02*
X123975113Y-80769000D01*
X124295113Y-85890000D02*
X124295113Y-80734000D01*
X122854113Y-85377000D02*
X122854113Y-84352000D01*
X122294113Y-82272000D02*
X122294113Y-81812000D01*
X122134113Y-82272000D02*
X122134113Y-82061000D01*
X123094113Y-82272000D02*
X123094113Y-81088000D01*
X122214113Y-82272000D02*
X122214113Y-81929000D01*
X123414113Y-85694000D02*
X123414113Y-84352000D01*
X122334113Y-82272000D02*
X122334113Y-81758000D01*
X123654113Y-82272000D02*
X123654113Y-80844000D01*
X124175113Y-82272000D02*
X124175113Y-80743000D01*
X122694113Y-85249000D02*
X122694113Y-84352000D01*
X123654113Y-85780000D02*
X123654113Y-84352000D01*
X123094113Y-85536000D02*
X123094113Y-84352000D01*
X123334113Y-85660000D02*
X123334113Y-84352000D01*
X122134113Y-84563000D02*
X122134113Y-84352000D01*
X123014113Y-82272000D02*
X123014113Y-81137000D01*
X124015113Y-82272000D02*
X124015113Y-80762000D01*
X124335113Y-85891000D02*
X124335113Y-80733000D01*
X123294113Y-82272000D02*
X123294113Y-80983000D01*
X123735113Y-85803000D02*
X123735113Y-84352000D01*
X122574113Y-85138000D02*
X122574113Y-84352000D01*
X123214113Y-85602000D02*
X123214113Y-84352000D01*
X123574113Y-85754000D02*
X123574113Y-84352000D01*
X122534113Y-85097000D02*
X122534113Y-84352000D01*
X122814113Y-82272000D02*
X122814113Y-81277000D01*
X124135113Y-85877000D02*
X124135113Y-84352000D01*
X123815113Y-85823000D02*
X123815113Y-84352000D01*
X123454113Y-82272000D02*
X123454113Y-80914000D01*
X122974113Y-85461000D02*
X122974113Y-84352000D01*
X123855113Y-82272000D02*
X123855113Y-80792000D01*
X123855113Y-85832000D02*
X123855113Y-84352000D01*
X122414113Y-82272000D02*
X122414113Y-81659000D01*
X122974113Y-82272000D02*
X122974113Y-81163000D01*
X122374113Y-82272000D02*
X122374113Y-81707000D01*
X123374113Y-82272000D02*
X123374113Y-80947000D01*
X122654113Y-85213000D02*
X122654113Y-84352000D01*
X123494113Y-85726000D02*
X123494113Y-84352000D01*
X123134113Y-82272000D02*
X123134113Y-81065000D01*
X123775113Y-85813000D02*
X123775113Y-84352000D01*
X123935113Y-82272000D02*
X123935113Y-80776000D01*
X122694113Y-82272000D02*
X122694113Y-81375000D01*
X122614113Y-85176000D02*
X122614113Y-84352000D01*
X123614113Y-85767000D02*
X123614113Y-84352000D01*
X123694113Y-82272000D02*
X123694113Y-80832000D01*
X123534113Y-85740000D02*
X123534113Y-84352000D01*
X123174113Y-85580000D02*
X123174113Y-84352000D01*
X121814113Y-83596000D02*
X121814113Y-83028000D01*
X121974113Y-84227000D02*
X121974113Y-82397000D01*
X123975113Y-85855000D02*
X123975113Y-84352000D01*
X122254113Y-82272000D02*
X122254113Y-81869000D01*
X123454113Y-85710000D02*
X123454113Y-84352000D01*
X122294113Y-84812000D02*
X122294113Y-84352000D01*
X122814113Y-85347000D02*
X122814113Y-84352000D01*
X122614113Y-82272000D02*
X122614113Y-81448000D01*
X123735113Y-82272000D02*
X123735113Y-80821000D01*
X127219888Y-84787000D02*
X126719888Y-84787000D01*
X127035113Y-83312000D02*
G75*
G03*
X127035113Y-83312000I-2620000J0D01*
G01*
%TO.C,J3*%
X133730000Y-94756000D02*
X132130000Y-94756000D01*
X133730000Y-90156000D02*
X132130000Y-90156000D01*
X128170000Y-95596000D02*
X128170000Y-96516000D01*
X129770000Y-89316000D02*
X129770000Y-89596000D01*
X133730000Y-94756000D02*
X135990000Y-94756000D01*
X129770000Y-88396000D02*
X129770000Y-89316000D01*
X131630000Y-90956000D02*
X135990000Y-90956000D01*
X133730000Y-95256000D02*
X135990000Y-95256000D01*
X128170000Y-88396000D02*
X128170000Y-89316000D01*
X135990000Y-93956000D02*
X131630000Y-93956000D01*
X135990000Y-88396000D02*
X128170000Y-88396000D01*
X129770000Y-95596000D02*
X128170000Y-95596000D01*
X133730000Y-95756000D02*
X133730000Y-94756000D01*
X132130000Y-90156000D02*
X132130000Y-89156000D01*
X129770000Y-95316000D02*
X128555000Y-95316000D01*
X132130000Y-89156000D02*
X133730000Y-89156000D01*
X132130000Y-94756000D02*
X132130000Y-95756000D01*
X129770000Y-96516000D02*
X129770000Y-95596000D01*
X132130000Y-95756000D02*
X133730000Y-95756000D01*
X128170000Y-96516000D02*
X135990000Y-96516000D01*
X128170000Y-89316000D02*
X129770000Y-89316000D01*
X133730000Y-89156000D02*
X133730000Y-90156000D01*
X129770000Y-95316000D02*
X129770000Y-95596000D01*
X135990000Y-96516000D02*
X135990000Y-88396000D01*
X131630000Y-93956000D02*
X131630000Y-90956000D01*
%TO.C,J1*%
X96947500Y-82034000D02*
X96947500Y-81034000D01*
X90327500Y-72154000D02*
X81207500Y-72154000D01*
X81207500Y-86744000D02*
X81207500Y-53464000D01*
X90327500Y-68054000D02*
X81207500Y-68054000D01*
X81207500Y-53464000D02*
X90327500Y-53464000D01*
X90327500Y-53464000D02*
X90327500Y-86744000D01*
X96947500Y-81034000D02*
X95947500Y-81534000D01*
X95947500Y-81534000D02*
X96947500Y-82034000D01*
X90327500Y-86744000D02*
X81207500Y-86744000D01*
D14*
%TO.C,X2*%
X118602000Y-66628000D02*
X118602000Y-76628000D01*
X128952000Y-76978000D02*
X118952000Y-76978000D01*
X129302000Y-66278000D02*
X118952000Y-66278000D01*
X129302000Y-66278000D02*
X129302000Y-76628000D01*
X118952000Y-66278000D02*
G75*
G03*
X118602000Y-66628000I0J-350000D01*
G01*
X128952000Y-76978000D02*
G75*
G03*
X129302000Y-76628000I-1J350001D01*
G01*
X118602000Y-76628000D02*
G75*
G03*
X118952000Y-76978000I350000J0D01*
G01*
D13*
%TO.C,U1*%
X102134000Y-47682000D02*
X100484000Y-47682000D01*
X100484000Y-47682000D02*
X100484000Y-65582000D01*
X97994000Y-47622000D02*
X97994000Y-65642000D01*
X100484000Y-65582000D02*
X105784000Y-65582000D01*
X97994000Y-65642000D02*
X108274000Y-65642000D01*
X108274000Y-65642000D02*
X108274000Y-47622000D01*
X108274000Y-47622000D02*
X97994000Y-47622000D01*
X105784000Y-47682000D02*
X104134000Y-47682000D01*
X105784000Y-65582000D02*
X105784000Y-47682000D01*
X102134000Y-47682000D02*
G75*
G03*
X104134000Y-47682000I1000000J0D01*
G01*
%TO.C,R1*%
X121126000Y-61822000D02*
X121126000Y-59082000D01*
X121126000Y-59082000D02*
X114586000Y-59082000D01*
X121896000Y-60452000D02*
X121126000Y-60452000D01*
X114586000Y-61822000D02*
X121126000Y-61822000D01*
X114586000Y-59082000D02*
X114586000Y-61822000D01*
X113816000Y-60452000D02*
X114586000Y-60452000D01*
%TO.C,C2*%
X114220000Y-47398000D02*
X114220000Y-50138000D01*
X114220000Y-50138000D02*
X119460000Y-50138000D01*
X119460000Y-47398000D02*
X119460000Y-50138000D01*
X114220000Y-47398000D02*
X119460000Y-47398000D01*
%TO.C,R2*%
X106394000Y-40286000D02*
X99854000Y-40286000D01*
X99084000Y-41656000D02*
X99854000Y-41656000D01*
X106394000Y-43026000D02*
X106394000Y-40286000D01*
X99854000Y-40286000D02*
X99854000Y-43026000D01*
X107164000Y-41656000D02*
X106394000Y-41656000D01*
X99854000Y-43026000D02*
X106394000Y-43026000D01*
%TD*%
M02*
