M48
; DRILL file {KiCad (6.0.4-0)} date Saturday, May 27, 2023 at 11:23:56 AM
; FORMAT={-:-/ absolute / inch / decimal}
; #@! TF.CreationDate,2023-05-27T11:23:56-07:00
; #@! TF.GenerationSoftware,Kicad,Pcbnew,(6.0.4-0)
; #@! TF.FileFunction,Plated,1,2,PTH
FMAT,2
INCH
; #@! TA.AperFunction,Plated,PTH,ComponentDrill
T1C0.0315
; #@! TA.AperFunction,Plated,PTH,ComponentDrill
T2C0.0354
; #@! TA.AperFunction,Plated,PTH,ComponentDrill
T3C0.0394
; #@! TA.AperFunction,Plated,PTH,ComponentDrill
T4C0.0906
; #@! TA.AperFunction,Plated,PTH,ComponentDrill
T5C0.0984
; #@! TA.AperFunction,Plated,PTH,ComponentDrill
T6C0.1181
%
G90
G05
T1
X3.86Y-1.64
X3.9104Y-1.9296
X3.9104Y-2.0296
X3.9104Y-2.1296
X3.9104Y-2.2296
X3.9104Y-2.3296
X3.9104Y-2.4296
X3.9104Y-2.5296
X3.9104Y-2.8496
X3.9104Y-2.9496
X3.9104Y-3.0496
X3.9104Y-3.1496
X3.9104Y-3.2496
X3.9104Y-3.3496
X3.9104Y-3.4496
X3.9104Y-3.5496
X4.2104Y-1.9296
X4.2104Y-2.0296
X4.2104Y-2.1296
X4.2104Y-2.2296
X4.2104Y-2.3296
X4.2104Y-2.4296
X4.2104Y-2.5296
X4.2104Y-2.8496
X4.2104Y-2.9496
X4.2104Y-3.0496
X4.2104Y-3.1496
X4.2104Y-3.2496
X4.2104Y-3.3496
X4.2104Y-3.4496
X4.2104Y-3.5496
X4.26Y-1.64
X4.44Y-2.1308
X4.44Y-2.2292
X4.44Y-2.38
X4.44Y-3.76
X4.5508Y-1.92
X4.58Y-2.67
X4.58Y-2.97
X4.6492Y-1.92
X4.73Y-2.67
X4.73Y-2.97
X4.84Y-2.38
X4.84Y-3.76
X5.03Y-2.67
X5.03Y-2.97
X5.18Y-2.67
X5.18Y-2.97
T2
X4.3914Y-1.6389
X4.6914Y-1.6389
T3
X3.6243Y-2.31
X3.6243Y-2.41
X3.6243Y-2.51
X3.6243Y-2.61
X3.6243Y-2.71
X3.6243Y-2.81
X3.6243Y-2.91
X3.6243Y-3.01
X3.6243Y-3.11
X3.6243Y-3.21
X3.7243Y-2.31
X3.7243Y-2.41
X3.7243Y-2.51
X3.7243Y-2.61
X3.7243Y-2.71
X3.7243Y-2.81
X3.7243Y-2.91
X3.7243Y-3.01
X3.7243Y-3.11
X3.7243Y-3.21
X4.7764Y-3.34
X4.9732Y-3.34
X5.04Y-3.6594
X5.04Y-3.7594
X5.04Y-3.8594
T4
X5.0994Y-1.76
T5
X5.1387Y-1.5828
X5.1387Y-1.9372
T6
X4.8631Y-1.76
T0
M30
